<svg xmlns="http://www.w3.org/2000/svg" xmlns:rdkit="http://www.rdkit.org/xml" xmlns:xlink="http://www.w3.org/1999/xlink" version="1.1" baseProfile="full" xml:space="preserve" width="750px" height="750px" viewBox="0 0 750 750">
<!-- END OF HEADER -->
<rect style="opacity:1.0;fill:#FFFFFF;stroke:none" width="750.0" height="750.0" x="0.0" y="0.0"> </rect>
<path class="bond-0 atom-0 atom-1" d="M 49.6,185.8 L 47.2,156.0" style="fill:none;fill-rule:evenodd;stroke:#000000;stroke-width:2.0px;stroke-linecap:butt;stroke-linejoin:miter;stroke-opacity:1"/>
<path class="bond-1 atom-1 atom-2" d="M 47.2,156.0 L 14.3,140.5" style="fill:none;fill-rule:evenodd;stroke:#000000;stroke-width:2.0px;stroke-linecap:butt;stroke-linejoin:miter;stroke-opacity:1"/>
<path class="bond-1 atom-1 atom-2" d="M 45.3,147.1 L 22.4,136.2" style="fill:none;fill-rule:evenodd;stroke:#000000;stroke-width:2.0px;stroke-linecap:butt;stroke-linejoin:miter;stroke-opacity:1"/>
<path class="bond-2 atom-2 atom-3" d="M 14.3,140.5 L 11.4,104.3" style="fill:none;fill-rule:evenodd;stroke:#000000;stroke-width:2.0px;stroke-linecap:butt;stroke-linejoin:miter;stroke-opacity:1"/>
<path class="bond-3 atom-3 atom-4" d="M 11.4,104.3 L 41.2,83.6" style="fill:none;fill-rule:evenodd;stroke:#000000;stroke-width:2.0px;stroke-linecap:butt;stroke-linejoin:miter;stroke-opacity:1"/>
<path class="bond-3 atom-3 atom-4" d="M 20.0,107.2 L 40.9,92.7" style="fill:none;fill-rule:evenodd;stroke:#000000;stroke-width:2.0px;stroke-linecap:butt;stroke-linejoin:miter;stroke-opacity:1"/>
<path class="bond-4 atom-4 atom-5" d="M 41.2,83.6 L 74.0,99.1" style="fill:none;fill-rule:evenodd;stroke:#000000;stroke-width:2.0px;stroke-linecap:butt;stroke-linejoin:miter;stroke-opacity:1"/>
<path class="bond-5 atom-5 atom-6" d="M 74.0,99.1 L 77.0,135.3" style="fill:none;fill-rule:evenodd;stroke:#000000;stroke-width:2.0px;stroke-linecap:butt;stroke-linejoin:miter;stroke-opacity:1"/>
<path class="bond-5 atom-5 atom-6" d="M 67.2,105.2 L 69.3,130.5" style="fill:none;fill-rule:evenodd;stroke:#000000;stroke-width:2.0px;stroke-linecap:butt;stroke-linejoin:miter;stroke-opacity:1"/>
<path class="bond-6 atom-6 atom-7" d="M 77.0,135.3 L 103.9,148.1" style="fill:none;fill-rule:evenodd;stroke:#000000;stroke-width:2.0px;stroke-linecap:butt;stroke-linejoin:miter;stroke-opacity:1"/>
<path class="bond-7 atom-7 atom-8" d="M 115.7,146.8 L 139.7,130.2" style="fill:none;fill-rule:evenodd;stroke:#000000;stroke-width:2.0px;stroke-linecap:butt;stroke-linejoin:miter;stroke-opacity:1"/>
<path class="bond-8 atom-8 atom-9" d="M 136.1,130.5 L 133.6,100.9" style="fill:none;fill-rule:evenodd;stroke:#000000;stroke-width:2.0px;stroke-linecap:butt;stroke-linejoin:miter;stroke-opacity:1"/>
<path class="bond-8 atom-8 atom-9" d="M 143.3,129.9 L 140.9,100.3" style="fill:none;fill-rule:evenodd;stroke:#000000;stroke-width:2.0px;stroke-linecap:butt;stroke-linejoin:miter;stroke-opacity:1"/>
<path class="bond-9 atom-8 atom-10" d="M 139.7,130.2 L 172.5,145.7" style="fill:none;fill-rule:evenodd;stroke:#000000;stroke-width:2.0px;stroke-linecap:butt;stroke-linejoin:miter;stroke-opacity:1"/>
<path class="bond-10 atom-10 atom-11" d="M 172.5,145.7 L 175.5,181.9" style="fill:none;fill-rule:evenodd;stroke:#000000;stroke-width:2.0px;stroke-linecap:butt;stroke-linejoin:miter;stroke-opacity:1"/>
<path class="bond-10 atom-10 atom-11" d="M 180.2,150.5 L 182.3,175.9" style="fill:none;fill-rule:evenodd;stroke:#000000;stroke-width:2.0px;stroke-linecap:butt;stroke-linejoin:miter;stroke-opacity:1"/>
<path class="bond-11 atom-11 atom-12" d="M 175.5,181.9 L 208.3,197.4" style="fill:none;fill-rule:evenodd;stroke:#000000;stroke-width:2.0px;stroke-linecap:butt;stroke-linejoin:miter;stroke-opacity:1"/>
<path class="bond-12 atom-12 atom-13" d="M 208.3,197.4 L 238.1,176.8" style="fill:none;fill-rule:evenodd;stroke:#000000;stroke-width:2.0px;stroke-linecap:butt;stroke-linejoin:miter;stroke-opacity:1"/>
<path class="bond-12 atom-12 atom-13" d="M 208.6,188.4 L 229.5,173.9" style="fill:none;fill-rule:evenodd;stroke:#000000;stroke-width:2.0px;stroke-linecap:butt;stroke-linejoin:miter;stroke-opacity:1"/>
<path class="bond-13 atom-13 atom-14" d="M 238.1,176.8 L 235.2,140.6" style="fill:none;fill-rule:evenodd;stroke:#000000;stroke-width:2.0px;stroke-linecap:butt;stroke-linejoin:miter;stroke-opacity:1"/>
<path class="bond-14 atom-14 atom-15" d="M 235.2,140.6 L 202.4,125.1" style="fill:none;fill-rule:evenodd;stroke:#000000;stroke-width:2.0px;stroke-linecap:butt;stroke-linejoin:miter;stroke-opacity:1"/>
<path class="bond-14 atom-14 atom-15" d="M 227.2,144.8 L 204.2,133.9" style="fill:none;fill-rule:evenodd;stroke:#000000;stroke-width:2.0px;stroke-linecap:butt;stroke-linejoin:miter;stroke-opacity:1"/>
<path class="bond-15 atom-15 atom-16" d="M 202.4,125.1 L 199.9,95.2" style="fill:none;fill-rule:evenodd;stroke:#000000;stroke-width:2.0px;stroke-linecap:butt;stroke-linejoin:miter;stroke-opacity:1"/>
<path class="bond-16 atom-16 atom-17" d="M 197.9,71.2 L 196.9,59.0" style="fill:none;fill-rule:evenodd;stroke:#000000;stroke-width:2.0px;stroke-linecap:butt;stroke-linejoin:miter;stroke-opacity:1"/>
<path class="bond-17 atom-16 atom-18" d="M 203.9,88.5 L 231.3,86.2" style="fill:none;fill-rule:evenodd;stroke:#000000;stroke-width:2.0px;stroke-linecap:butt;stroke-linejoin:miter;stroke-opacity:1"/>
<path class="bond-18 atom-16 atom-19" d="M 194.9,89.2 L 167.5,91.5" style="fill:none;fill-rule:evenodd;stroke:#000000;stroke-width:2.0px;stroke-linecap:butt;stroke-linejoin:miter;stroke-opacity:1"/>
<path class="bond-19 atom-6 atom-1" d="M 77.0,135.3 L 47.2,156.0" style="fill:none;fill-rule:evenodd;stroke:#000000;stroke-width:2.0px;stroke-linecap:butt;stroke-linejoin:miter;stroke-opacity:1"/>
<path class="bond-20 atom-15 atom-10" d="M 202.4,125.1 L 172.5,145.7" style="fill:none;fill-rule:evenodd;stroke:#000000;stroke-width:2.0px;stroke-linecap:butt;stroke-linejoin:miter;stroke-opacity:1"/>
<path class="atom-0" d="M 47.8 187.0 L 51.2 192.5 Q 51.5 193.0, 52.1 194.0 Q 52.6 195.0, 52.7 195.0 L 52.7 187.0 L 54.0 187.0 L 54.0 197.3 L 52.6 197.3 L 49.0 191.4 Q 48.6 190.7, 48.1 189.9 Q 47.7 189.1, 47.6 188.8 L 47.6 197.3 L 46.2 197.3 L 46.2 187.0 L 47.8 187.0 " fill="#000000"/>
<path class="atom-0" d="M 55.2 187.0 L 56.6 187.0 L 56.6 191.4 L 61.9 191.4 L 61.9 187.0 L 63.3 187.0 L 63.3 197.3 L 61.9 197.3 L 61.9 192.6 L 56.6 192.6 L 56.6 197.3 L 55.2 197.3 L 55.2 187.0 " fill="#000000"/>
<path class="atom-0" d="M 64.5 197.0 Q 64.8 196.3, 65.4 196.0 Q 66.0 195.6, 66.8 195.6 Q 67.8 195.6, 68.4 196.2 Q 69.0 196.7, 69.0 197.7 Q 69.0 198.7, 68.2 199.6 Q 67.5 200.6, 65.9 201.7 L 69.1 201.7 L 69.1 202.5 L 64.5 202.5 L 64.5 201.8 Q 65.8 200.9, 66.5 200.2 Q 67.3 199.6, 67.6 199.0 Q 68.0 198.4, 68.0 197.7 Q 68.0 197.1, 67.7 196.7 Q 67.4 196.4, 66.8 196.4 Q 66.2 196.4, 65.9 196.6 Q 65.5 196.8, 65.3 197.3 L 64.5 197.0 " fill="#000000"/>
<path class="atom-7" d="M 105.1 150.9 Q 105.1 148.4, 106.3 147.0 Q 107.5 145.7, 109.8 145.7 Q 112.1 145.7, 113.3 147.0 Q 114.5 148.4, 114.5 150.9 Q 114.5 153.4, 113.3 154.8 Q 112.1 156.2, 109.8 156.2 Q 107.6 156.2, 106.3 154.8 Q 105.1 153.4, 105.1 150.9 M 109.8 155.1 Q 111.4 155.1, 112.2 154.0 Q 113.1 152.9, 113.1 150.9 Q 113.1 148.9, 112.2 147.8 Q 111.4 146.8, 109.8 146.8 Q 108.3 146.8, 107.4 147.8 Q 106.6 148.8, 106.6 150.9 Q 106.6 153.0, 107.4 154.0 Q 108.3 155.1, 109.8 155.1 " fill="#000000"/>
<path class="atom-9" d="M 132.0 94.0 Q 132.0 91.6, 133.2 90.2 Q 134.4 88.8, 136.7 88.8 Q 139.0 88.8, 140.2 90.2 Q 141.4 91.6, 141.4 94.0 Q 141.4 96.5, 140.2 98.0 Q 139.0 99.4, 136.7 99.4 Q 134.5 99.4, 133.2 98.0 Q 132.0 96.5, 132.0 94.0 M 136.7 98.2 Q 138.3 98.2, 139.1 97.2 Q 140.0 96.1, 140.0 94.0 Q 140.0 92.0, 139.1 91.0 Q 138.3 90.0, 136.7 90.0 Q 135.1 90.0, 134.3 91.0 Q 133.4 92.0, 133.4 94.0 Q 133.4 96.1, 134.3 97.2 Q 135.1 98.2, 136.7 98.2 " fill="#000000"/>
<path class="atom-16" d="M 199.1 83.7 Q 200.9 83.7, 201.8 84.5 Q 202.7 85.3, 202.7 86.7 Q 202.7 88.2, 201.8 89.0 Q 200.9 89.8, 199.1 89.8 L 197.5 89.8 L 197.5 94.0 L 196.1 94.0 L 196.1 83.7 L 199.1 83.7 M 199.1 88.6 Q 200.1 88.6, 200.7 88.1 Q 201.2 87.7, 201.2 86.7 Q 201.2 85.8, 200.7 85.4 Q 200.2 84.9, 199.1 84.9 L 197.5 84.9 L 197.5 88.6 L 199.1 88.6 " fill="#000000"/>
<path class="atom-16" d="M 195.4 72.4 L 196.8 72.4 L 196.8 76.8 L 202.0 76.8 L 202.0 72.4 L 203.4 72.4 L 203.4 82.7 L 202.0 82.7 L 202.0 77.9 L 196.8 77.9 L 196.8 82.7 L 195.4 82.7 L 195.4 72.4 " fill="#000000"/>
<path class="atom-17" d="M 193.4 47.5 L 199.5 47.5 L 199.5 48.7 L 194.7 48.7 L 194.7 51.8 L 199.0 51.8 L 199.0 53.0 L 194.7 53.0 L 194.7 57.8 L 193.4 57.8 L 193.4 47.5 " fill="#000000"/>
<path class="atom-18" d="M 232.5 80.8 L 238.6 80.8 L 238.6 81.9 L 233.9 81.9 L 233.9 85.1 L 238.1 85.1 L 238.1 86.2 L 233.9 86.2 L 233.9 91.0 L 232.5 91.0 L 232.5 80.8 " fill="#000000"/>
<path class="atom-19" d="M 160.1 86.7 L 166.3 86.7 L 166.3 87.9 L 161.5 87.9 L 161.5 91.0 L 165.7 91.0 L 165.7 92.2 L 161.5 92.2 L 161.5 97.0 L 160.1 97.0 L 160.1 86.7 " fill="#000000"/>
<path class="bond-0 atom-0 atom-1" d="M 279.1,156.4 L 301.6,163.1" style="fill:none;fill-rule:evenodd;stroke:#000000;stroke-width:2.0px;stroke-linecap:butt;stroke-linejoin:miter;stroke-opacity:1"/>
<path class="bond-1 atom-1 atom-2" d="M 301.6,163.1 L 321.7,144.2" style="fill:none;fill-rule:evenodd;stroke:#000000;stroke-width:2.0px;stroke-linecap:butt;stroke-linejoin:miter;stroke-opacity:1"/>
<path class="bond-2 atom-2 atom-3" d="M 321.7,144.2 L 348.1,152.2" style="fill:none;fill-rule:evenodd;stroke:#000000;stroke-width:2.0px;stroke-linecap:butt;stroke-linejoin:miter;stroke-opacity:1"/>
<path class="bond-3 atom-3 atom-4" d="M 348.1,152.2 L 357.2,178.2" style="fill:none;fill-rule:evenodd;stroke:#000000;stroke-width:2.0px;stroke-linecap:butt;stroke-linejoin:miter;stroke-opacity:1"/>
<path class="bond-4 atom-4 atom-5" d="M 357.2,178.2 L 384.7,177.6" style="fill:none;fill-rule:evenodd;stroke:#000000;stroke-width:2.0px;stroke-linecap:butt;stroke-linejoin:miter;stroke-opacity:1"/>
<path class="bond-5 atom-5 atom-6" d="M 384.7,177.6 L 392.7,151.2" style="fill:none;fill-rule:evenodd;stroke:#000000;stroke-width:2.0px;stroke-linecap:butt;stroke-linejoin:miter;stroke-opacity:1"/>
<path class="bond-6 atom-6 atom-7" d="M 392.7,151.2 L 370.0,135.5" style="fill:none;fill-rule:evenodd;stroke:#000000;stroke-width:2.0px;stroke-linecap:butt;stroke-linejoin:miter;stroke-opacity:1"/>
<path class="bond-7 atom-7 atom-8" d="M 370.0,135.5 L 369.5,112.8" style="fill:none;fill-rule:evenodd;stroke:#000000;stroke-width:2.0px;stroke-linecap:butt;stroke-linejoin:miter;stroke-opacity:1"/>
<path class="bond-8 atom-8 atom-9" d="M 365.5,106.2 L 344.3,96.5" style="fill:none;fill-rule:evenodd;stroke:#000000;stroke-width:2.0px;stroke-linecap:butt;stroke-linejoin:miter;stroke-opacity:1"/>
<path class="bond-9 atom-9 atom-10" d="M 344.3,96.5 L 337.6,69.8" style="fill:none;fill-rule:evenodd;stroke:#000000;stroke-width:2.0px;stroke-linecap:butt;stroke-linejoin:miter;stroke-opacity:1"/>
<path class="bond-10 atom-10 atom-11" d="M 337.6,69.8 L 354.3,47.9" style="fill:none;fill-rule:evenodd;stroke:#000000;stroke-width:2.0px;stroke-linecap:butt;stroke-linejoin:miter;stroke-opacity:1"/>
<path class="bond-11 atom-11 atom-12" d="M 354.3,47.9 L 381.8,47.3" style="fill:none;fill-rule:evenodd;stroke:#000000;stroke-width:2.0px;stroke-linecap:butt;stroke-linejoin:miter;stroke-opacity:1"/>
<path class="bond-12 atom-12 atom-13" d="M 381.8,47.3 L 399.5,68.4" style="fill:none;fill-rule:evenodd;stroke:#000000;stroke-width:2.0px;stroke-linecap:butt;stroke-linejoin:miter;stroke-opacity:1"/>
<path class="bond-13 atom-13 atom-14" d="M 399.5,68.4 L 394.0,95.4" style="fill:none;fill-rule:evenodd;stroke:#000000;stroke-width:2.0px;stroke-linecap:butt;stroke-linejoin:miter;stroke-opacity:1"/>
<path class="bond-14 atom-14 atom-15" d="M 394.0,95.4 L 391.1,117.9" style="fill:none;fill-rule:evenodd;stroke:#000000;stroke-width:2.0px;stroke-linecap:butt;stroke-linejoin:miter;stroke-opacity:1"/>
<path class="bond-15 atom-14 atom-16" d="M 394.0,95.4 L 419.4,84.8" style="fill:none;fill-rule:evenodd;stroke:#000000;stroke-width:2.0px;stroke-linecap:butt;stroke-linejoin:miter;stroke-opacity:1"/>
<path class="bond-16 atom-16 atom-17" d="M 419.4,84.8 L 441.3,101.5" style="fill:none;fill-rule:evenodd;stroke:#000000;stroke-width:2.0px;stroke-linecap:butt;stroke-linejoin:miter;stroke-opacity:1"/>
<path class="bond-17 atom-17 atom-18" d="M 441.3,101.5 L 466.7,90.8" style="fill:none;fill-rule:evenodd;stroke:#000000;stroke-width:2.0px;stroke-linecap:butt;stroke-linejoin:miter;stroke-opacity:1"/>
<path class="bond-17 atom-17 atom-18" d="M 447.2,105.0 L 465.0,97.5" style="fill:none;fill-rule:evenodd;stroke:#000000;stroke-width:2.0px;stroke-linecap:butt;stroke-linejoin:miter;stroke-opacity:1"/>
<path class="bond-18 atom-18 atom-19" d="M 466.7,90.8 L 488.6,107.5" style="fill:none;fill-rule:evenodd;stroke:#000000;stroke-width:2.0px;stroke-linecap:butt;stroke-linejoin:miter;stroke-opacity:1"/>
<path class="bond-19 atom-19 atom-20" d="M 488.6,107.5 L 485.1,134.9" style="fill:none;fill-rule:evenodd;stroke:#000000;stroke-width:2.0px;stroke-linecap:butt;stroke-linejoin:miter;stroke-opacity:1"/>
<path class="bond-19 atom-19 atom-20" d="M 482.6,110.9 L 480.2,130.1" style="fill:none;fill-rule:evenodd;stroke:#000000;stroke-width:2.0px;stroke-linecap:butt;stroke-linejoin:miter;stroke-opacity:1"/>
<path class="bond-20 atom-20 atom-21" d="M 485.1,134.9 L 459.7,145.5" style="fill:none;fill-rule:evenodd;stroke:#000000;stroke-width:2.0px;stroke-linecap:butt;stroke-linejoin:miter;stroke-opacity:1"/>
<path class="bond-21 atom-21 atom-22" d="M 459.7,145.5 L 437.8,128.8" style="fill:none;fill-rule:evenodd;stroke:#000000;stroke-width:2.0px;stroke-linecap:butt;stroke-linejoin:miter;stroke-opacity:1"/>
<path class="bond-21 atom-21 atom-22" d="M 459.8,138.6 L 444.4,126.9" style="fill:none;fill-rule:evenodd;stroke:#000000;stroke-width:2.0px;stroke-linecap:butt;stroke-linejoin:miter;stroke-opacity:1"/>
<path class="bond-22 atom-22 atom-23" d="M 437.8,128.8 L 416.3,137.8" style="fill:none;fill-rule:evenodd;stroke:#000000;stroke-width:2.0px;stroke-linecap:butt;stroke-linejoin:miter;stroke-opacity:1"/>
<path class="bond-23 atom-23 atom-24" d="M 411.8,144.3 L 408.9,166.8" style="fill:none;fill-rule:evenodd;stroke:#000000;stroke-width:2.0px;stroke-linecap:butt;stroke-linejoin:miter;stroke-opacity:1"/>
<path class="bond-24 atom-24 atom-25" d="M 408.9,166.8 L 381.6,170.5" style="fill:none;fill-rule:evenodd;stroke:#000000;stroke-width:2.0px;stroke-linecap:butt;stroke-linejoin:miter;stroke-opacity:1"/>
<path class="bond-25 atom-25 atom-26" d="M 381.6,170.5 L 398.4,192.3" style="fill:none;fill-rule:evenodd;stroke:#000000;stroke-width:2.0px;stroke-linecap:butt;stroke-linejoin:miter;stroke-opacity:1"/>
<path class="bond-26 atom-26 atom-27" d="M 398.4,192.3 L 423.9,202.7" style="fill:none;fill-rule:evenodd;stroke:#000000;stroke-width:2.0px;stroke-linecap:butt;stroke-linejoin:miter;stroke-opacity:1"/>
<path class="bond-26 atom-26 atom-27" d="M 404.3,188.7 L 422.2,196.1" style="fill:none;fill-rule:evenodd;stroke:#000000;stroke-width:2.0px;stroke-linecap:butt;stroke-linejoin:miter;stroke-opacity:1"/>
<path class="bond-27 atom-27 atom-28" d="M 423.9,202.7 L 434.4,177.2" style="fill:none;fill-rule:evenodd;stroke:#000000;stroke-width:2.0px;stroke-linecap:butt;stroke-linejoin:miter;stroke-opacity:1"/>
<path class="bond-28 atom-28 atom-29" d="M 434.4,177.2 L 455.3,168.5" style="fill:none;fill-rule:evenodd;stroke:#000000;stroke-width:2.0px;stroke-linecap:butt;stroke-linejoin:miter;stroke-opacity:1"/>
<path class="bond-29 atom-7 atom-3" d="M 370.0,135.5 L 348.1,152.2" style="fill:none;fill-rule:evenodd;stroke:#000000;stroke-width:2.0px;stroke-linecap:butt;stroke-linejoin:miter;stroke-opacity:1"/>
<path class="bond-30 atom-14 atom-8" d="M 394.0,95.4 L 373.3,105.9" style="fill:none;fill-rule:evenodd;stroke:#000000;stroke-width:2.0px;stroke-linecap:butt;stroke-linejoin:miter;stroke-opacity:1"/>
<path class="bond-31 atom-23 atom-15" d="M 408.5,136.5 L 395.0,126.2" style="fill:none;fill-rule:evenodd;stroke:#000000;stroke-width:2.0px;stroke-linecap:butt;stroke-linejoin:miter;stroke-opacity:1"/>
<path class="bond-32 atom-22 atom-17" d="M 437.8,128.8 L 441.3,101.5" style="fill:none;fill-rule:evenodd;stroke:#000000;stroke-width:2.0px;stroke-linecap:butt;stroke-linejoin:miter;stroke-opacity:1"/>
<path class="bond-33 atom-26 atom-24" d="M 398.4,192.3 L 408.9,166.8" style="fill:none;fill-rule:evenodd;stroke:#000000;stroke-width:2.0px;stroke-linecap:butt;stroke-linejoin:miter;stroke-opacity:1"/>
<path class="bond-34 atom-28 atom-24" d="M 434.4,177.2 L 408.9,166.8" style="fill:none;fill-rule:evenodd;stroke:#000000;stroke-width:2.0px;stroke-linecap:butt;stroke-linejoin:miter;stroke-opacity:1"/>
<path class="bond-35 atom-28 atom-25" d="M 434.4,177.2 L 381.6,170.5" style="fill:none;fill-rule:evenodd;stroke:#000000;stroke-width:2.0px;stroke-linecap:butt;stroke-linejoin:miter;stroke-opacity:1"/>
<path class="atom-0" d="M 261.4 151.3 L 262.4 151.3 L 262.4 154.6 L 266.4 154.6 L 266.4 151.3 L 267.5 151.3 L 267.5 159.1 L 266.4 159.1 L 266.4 155.5 L 262.4 155.5 L 262.4 159.1 L 261.4 159.1 L 261.4 151.3 " fill="#000000"/>
<path class="atom-0" d="M 270.9 160.3 Q 271.4 160.4, 271.6 160.8 Q 271.9 161.1, 271.9 161.6 Q 271.9 162.0, 271.7 162.4 Q 271.4 162.7, 271.0 162.9 Q 270.6 163.1, 270.1 163.1 Q 269.6 163.1, 269.1 162.9 Q 268.7 162.7, 268.4 162.3 L 268.8 161.9 Q 269.1 162.2, 269.4 162.4 Q 269.7 162.5, 270.1 162.5 Q 270.6 162.5, 270.9 162.2 Q 271.1 162.0, 271.1 161.6 Q 271.1 161.0, 270.8 160.8 Q 270.6 160.6, 269.9 160.6 L 269.5 160.6 L 269.5 160.1 L 269.9 160.1 Q 270.4 160.0, 270.7 159.8 Q 271.0 159.6, 271.0 159.1 Q 271.0 158.8, 270.8 158.6 Q 270.5 158.4, 270.1 158.4 Q 269.7 158.4, 269.4 158.5 Q 269.2 158.7, 269.0 159.1 L 268.5 158.8 Q 268.6 158.4, 269.1 158.1 Q 269.5 157.8, 270.1 157.8 Q 270.9 157.8, 271.3 158.1 Q 271.8 158.5, 271.8 159.1 Q 271.8 159.5, 271.5 159.8 Q 271.3 160.1, 270.9 160.3 " fill="#000000"/>
<path class="atom-0" d="M 273.5 151.3 L 276.1 155.4 Q 276.3 155.8, 276.8 156.6 Q 277.2 157.3, 277.2 157.3 L 277.2 151.3 L 278.2 151.3 L 278.2 159.1 L 277.1 159.1 L 274.4 154.6 Q 274.1 154.0, 273.7 153.4 Q 273.4 152.8, 273.3 152.6 L 273.3 159.1 L 272.3 159.1 L 272.3 151.3 L 273.5 151.3 " fill="#000000"/>
<path class="atom-0" d="M 279.1 152.7 L 280.5 152.7 L 280.5 151.2 L 281.1 151.2 L 281.1 152.7 L 282.5 152.7 L 282.5 153.2 L 281.1 153.2 L 281.1 154.7 L 280.5 154.7 L 280.5 153.2 L 279.1 153.2 L 279.1 152.7 " fill="#000000"/>
<path class="atom-8" d="M 367.7 104.0 L 370.2 108.2 Q 370.5 108.6, 370.9 109.3 Q 371.3 110.0, 371.3 110.1 L 371.3 104.0 L 372.4 104.0 L 372.4 111.8 L 371.3 111.8 L 368.6 107.3 Q 368.2 106.8, 367.9 106.2 Q 367.6 105.6, 367.5 105.4 L 367.5 111.8 L 366.4 111.8 L 366.4 104.0 L 367.7 104.0 " fill="#000000"/>
<path class="atom-15" d="M 386.9 122.8 Q 386.9 120.9, 387.8 119.9 Q 388.7 118.8, 390.5 118.8 Q 392.2 118.8, 393.1 119.9 Q 394.0 120.9, 394.0 122.8 Q 394.0 124.7, 393.1 125.7 Q 392.2 126.8, 390.5 126.8 Q 388.7 126.8, 387.8 125.7 Q 386.9 124.7, 386.9 122.8 M 390.5 125.9 Q 391.7 125.9, 392.3 125.1 Q 392.9 124.3, 392.9 122.8 Q 392.9 121.2, 392.3 120.5 Q 391.7 119.7, 390.5 119.7 Q 389.3 119.7, 388.6 120.5 Q 388.0 121.2, 388.0 122.8 Q 388.0 124.4, 388.6 125.1 Q 389.3 125.9, 390.5 125.9 " fill="#000000"/>
<path class="atom-23" d="M 410.7 135.5 L 413.2 139.7 Q 413.5 140.1, 413.9 140.8 Q 414.3 141.6, 414.3 141.6 L 414.3 135.5 L 415.3 135.5 L 415.3 143.3 L 414.3 143.3 L 411.5 138.8 Q 411.2 138.3, 410.9 137.7 Q 410.5 137.1, 410.4 136.9 L 410.4 143.3 L 409.4 143.3 L 409.4 135.5 L 410.7 135.5 " fill="#000000"/>
<path class="atom-23" d="M 409.3 127.0 L 410.4 127.0 L 410.4 130.3 L 414.4 130.3 L 414.4 127.0 L 415.4 127.0 L 415.4 134.8 L 414.4 134.8 L 414.4 131.2 L 410.4 131.2 L 410.4 134.8 L 409.3 134.8 L 409.3 127.0 " fill="#000000"/>
<path class="atom-23" d="M 416.4 128.4 L 417.7 128.4 L 417.7 126.9 L 418.4 126.9 L 418.4 128.4 L 419.8 128.4 L 419.8 128.9 L 418.4 128.9 L 418.4 130.3 L 417.7 130.3 L 417.7 128.9 L 416.4 128.9 L 416.4 128.4 " fill="#000000"/>
<path class="atom-29" d="M 456.2 166.6 Q 456.2 164.7, 457.1 163.7 Q 458.1 162.7, 459.8 162.7 Q 461.5 162.7, 462.4 163.7 Q 463.4 164.7, 463.4 166.6 Q 463.4 168.5, 462.4 169.6 Q 461.5 170.7, 459.8 170.7 Q 458.1 170.7, 457.1 169.6 Q 456.2 168.5, 456.2 166.6 M 459.8 169.8 Q 461.0 169.8, 461.6 169.0 Q 462.3 168.2, 462.3 166.6 Q 462.3 165.1, 461.6 164.3 Q 461.0 163.5, 459.8 163.5 Q 458.6 163.5, 458.0 164.3 Q 457.3 165.1, 457.3 166.6 Q 457.3 168.2, 458.0 169.0 Q 458.6 169.8, 459.8 169.8 " fill="#000000"/>
<path class="atom-29" d="M 463.9 163.9 L 466.6 163.9 L 466.6 164.5 L 463.9 164.5 L 463.9 163.9 " fill="#000000"/>
<path class="bond-0 atom-0 atom-1" d="M 701.1,154.2 L 612.4,103.0" style="fill:none;fill-rule:evenodd;stroke:#000000;stroke-width:2.0px;stroke-linecap:butt;stroke-linejoin:miter;stroke-opacity:1"/>
<path class="bond-0 atom-0 atom-1" d="M 713.3,133.0 L 624.6,81.8" style="fill:none;fill-rule:evenodd;stroke:#000000;stroke-width:2.0px;stroke-linecap:butt;stroke-linejoin:miter;stroke-opacity:1"/>
<path class="bond-1 atom-1 atom-2" d="M 618.5,92.4 L 512.8,153.4" style="fill:none;fill-rule:evenodd;stroke:#000000;stroke-width:2.0px;stroke-linecap:butt;stroke-linejoin:miter;stroke-opacity:1"/>
<path class="atom-0" d="M 711.2 153.5 Q 711.2 146.7, 714.6 142.9 Q 717.9 139.1, 724.2 139.1 Q 730.5 139.1, 733.8 142.9 Q 737.2 146.7, 737.2 153.5 Q 737.2 160.4, 733.8 164.3 Q 730.4 168.2, 724.2 168.2 Q 718.0 168.2, 714.6 164.3 Q 711.2 160.4, 711.2 153.5 M 724.2 165.0 Q 728.5 165.0, 730.8 162.1 Q 733.2 159.2, 733.2 153.5 Q 733.2 147.9, 730.8 145.1 Q 728.5 142.3, 724.2 142.3 Q 719.9 142.3, 717.5 145.1 Q 715.2 147.9, 715.2 153.5 Q 715.2 159.2, 717.5 162.1 Q 719.9 165.0, 724.2 165.0 " fill="#000000"/>
<path class="bond-0 atom-0 atom-1" d="M 77.1,374.9 L 183.0,374.9" style="fill:none;fill-rule:evenodd;stroke:#000000;stroke-width:2.0px;stroke-linecap:butt;stroke-linejoin:miter;stroke-opacity:1"/>
<path class="atom-0" d="M 31.6 375.0 Q 31.6 368.2, 35.0 364.4 Q 38.4 360.6, 44.6 360.6 Q 50.9 360.6, 54.3 364.4 Q 57.6 368.2, 57.6 375.0 Q 57.6 381.8, 54.2 385.8 Q 50.8 389.6, 44.6 389.6 Q 38.4 389.6, 35.0 385.8 Q 31.6 381.9, 31.6 375.0 M 44.6 386.4 Q 49.0 386.4, 51.3 383.6 Q 53.6 380.6, 53.6 375.0 Q 53.6 369.4, 51.3 366.6 Q 49.0 363.8, 44.6 363.8 Q 40.3 363.8, 38.0 366.6 Q 35.6 369.4, 35.6 375.0 Q 35.6 380.7, 38.0 383.6 Q 40.3 386.4, 44.6 386.4 " fill="#000000"/>
<path class="atom-0" d="M 59.6 365.6 L 64.6 365.6 L 64.6 360.4 L 66.8 360.4 L 66.8 365.6 L 72.0 365.6 L 72.0 367.5 L 66.8 367.5 L 66.8 372.8 L 64.6 372.8 L 64.6 367.5 L 59.6 367.5 L 59.6 365.6 " fill="#000000"/>
<path class="atom-1" d="M 188.2 375.0 Q 188.2 368.2, 191.5 364.4 Q 194.9 360.6, 201.2 360.6 Q 207.5 360.6, 210.8 364.4 Q 214.2 368.2, 214.2 375.0 Q 214.2 381.8, 210.8 385.8 Q 207.4 389.6, 201.2 389.6 Q 194.9 389.6, 191.5 385.8 Q 188.2 381.9, 188.2 375.0 M 201.2 386.4 Q 205.5 386.4, 207.8 383.6 Q 210.2 380.6, 210.2 375.0 Q 210.2 369.4, 207.8 366.6 Q 205.5 363.8, 201.2 363.8 Q 196.9 363.8, 194.5 366.6 Q 192.2 369.4, 192.2 375.0 Q 192.2 380.7, 194.5 383.6 Q 196.9 386.4, 201.2 386.4 " fill="#000000"/>
<path class="atom-1" d="M 216.2 365.2 L 225.9 365.2 L 225.9 367.3 L 216.2 367.3 L 216.2 365.2 " fill="#000000"/>
<path class="atom-0" d="M 27.6,378.9 L 27.6,379.1 L 27.6,379.2 L 27.6,379.4 L 27.5,379.6 L 27.5,379.7 L 27.4,379.9 L 27.3,380.0 L 27.2,380.2 L 27.1,380.3 L 26.9,380.4 L 26.8,380.5 L 26.7,380.6 L 26.5,380.7 L 26.4,380.8 L 26.2,380.8 L 26.0,380.8 L 25.9,380.9 L 25.7,380.9 L 25.5,380.9 L 25.3,380.9 L 25.2,380.8 L 25.0,380.8 L 24.8,380.7 L 24.7,380.6 L 24.5,380.6 L 24.4,380.5 L 24.3,380.3 L 24.1,380.2 L 24.0,380.1 L 23.9,379.9 L 23.9,379.8 L 23.8,379.6 L 23.7,379.5 L 23.7,379.3 L 23.7,379.1 L 23.6,379.0 L 23.6,378.8 L 23.7,378.6 L 23.7,378.5 L 23.7,378.3 L 23.8,378.1 L 23.9,378.0 L 23.9,377.8 L 24.0,377.7 L 24.1,377.5 L 24.3,377.4 L 24.4,377.3 L 24.5,377.2 L 24.7,377.1 L 24.8,377.0 L 25.0,377.0 L 25.2,376.9 L 25.3,376.9 L 25.5,376.9 L 25.7,376.9 L 25.9,376.9 L 26.0,376.9 L 26.2,377.0 L 26.4,377.0 L 26.5,377.1 L 26.7,377.2 L 26.8,377.3 L 26.9,377.4 L 27.1,377.5 L 27.2,377.6 L 27.3,377.8 L 27.4,377.9 L 27.5,378.1 L 27.5,378.2 L 27.6,378.4 L 27.6,378.5 L 27.6,378.7 L 27.6,378.9 L 25.6,378.9 Z" style="fill:#000000;fill-rule:evenodd;fill-opacity:1;stroke:#000000;stroke-width:0.0px;stroke-linecap:butt;stroke-linejoin:miter;stroke-opacity:1;"/>
<path class="atom-0" d="M 27.6,370.9 L 27.6,371.1 L 27.6,371.2 L 27.6,371.4 L 27.5,371.6 L 27.5,371.7 L 27.4,371.9 L 27.3,372.0 L 27.2,372.2 L 27.1,372.3 L 26.9,372.4 L 26.8,372.5 L 26.7,372.6 L 26.5,372.7 L 26.4,372.8 L 26.2,372.8 L 26.0,372.8 L 25.9,372.9 L 25.7,372.9 L 25.5,372.9 L 25.3,372.9 L 25.2,372.8 L 25.0,372.8 L 24.8,372.7 L 24.7,372.6 L 24.5,372.6 L 24.4,372.5 L 24.3,372.3 L 24.1,372.2 L 24.0,372.1 L 23.9,371.9 L 23.9,371.8 L 23.8,371.6 L 23.7,371.5 L 23.7,371.3 L 23.7,371.1 L 23.6,371.0 L 23.6,370.8 L 23.7,370.6 L 23.7,370.5 L 23.7,370.3 L 23.8,370.1 L 23.9,370.0 L 23.9,369.8 L 24.0,369.7 L 24.1,369.5 L 24.3,369.4 L 24.4,369.3 L 24.5,369.2 L 24.7,369.1 L 24.8,369.0 L 25.0,369.0 L 25.2,368.9 L 25.3,368.9 L 25.5,368.9 L 25.7,368.9 L 25.9,368.9 L 26.0,368.9 L 26.2,369.0 L 26.4,369.0 L 26.5,369.1 L 26.7,369.2 L 26.8,369.3 L 26.9,369.4 L 27.1,369.5 L 27.2,369.6 L 27.3,369.8 L 27.4,369.9 L 27.5,370.1 L 27.5,370.2 L 27.6,370.4 L 27.6,370.5 L 27.6,370.7 L 27.6,370.9 L 25.6,370.9 Z" style="fill:#000000;fill-rule:evenodd;fill-opacity:1;stroke:#000000;stroke-width:0.0px;stroke-linecap:butt;stroke-linejoin:miter;stroke-opacity:1;"/>
<path class="bond-0 atom-0 atom-1" d="M 414.8,343.9 L 401.7,350.9" style="fill:none;fill-rule:evenodd;stroke:#000000;stroke-width:2.0px;stroke-linecap:butt;stroke-linejoin:miter;stroke-opacity:1"/>
<path class="bond-0 atom-0 atom-1" d="M 413.1,340.7 L 399.9,347.7" style="fill:none;fill-rule:evenodd;stroke:#000000;stroke-width:2.0px;stroke-linecap:butt;stroke-linejoin:miter;stroke-opacity:1"/>
<path class="bond-1 atom-1 atom-2" d="M 400.8,349.3 L 388.6,340.3" style="fill:none;fill-rule:evenodd;stroke:#000000;stroke-width:2.0px;stroke-linecap:butt;stroke-linejoin:miter;stroke-opacity:1"/>
<path class="bond-2 atom-2 atom-3" d="M 383.5,339.1 L 368.4,343.2" style="fill:none;fill-rule:evenodd;stroke:#000000;stroke-width:2.0px;stroke-linecap:butt;stroke-linejoin:miter;stroke-opacity:1"/>
<path class="bond-3 atom-3 atom-4" d="M 368.4,343.2 L 357.5,328.5" style="fill:none;fill-rule:evenodd;stroke:#000000;stroke-width:2.0px;stroke-linecap:butt;stroke-linejoin:miter;stroke-opacity:1"/>
<path class="bond-3 atom-3 atom-4" d="M 363.8,343.2 L 356.2,332.9" style="fill:none;fill-rule:evenodd;stroke:#000000;stroke-width:2.0px;stroke-linecap:butt;stroke-linejoin:miter;stroke-opacity:1"/>
<path class="bond-4 atom-4 atom-5" d="M 357.5,328.5 L 339.3,330.6" style="fill:none;fill-rule:evenodd;stroke:#000000;stroke-width:2.0px;stroke-linecap:butt;stroke-linejoin:miter;stroke-opacity:1"/>
<path class="bond-5 atom-5 atom-6" d="M 339.3,330.6 L 332.0,347.4" style="fill:none;fill-rule:evenodd;stroke:#000000;stroke-width:2.0px;stroke-linecap:butt;stroke-linejoin:miter;stroke-opacity:1"/>
<path class="bond-5 atom-5 atom-6" d="M 341.6,334.6 L 336.5,346.3" style="fill:none;fill-rule:evenodd;stroke:#000000;stroke-width:2.0px;stroke-linecap:butt;stroke-linejoin:miter;stroke-opacity:1"/>
<path class="bond-6 atom-6 atom-7" d="M 332.0,347.4 L 342.9,362.1" style="fill:none;fill-rule:evenodd;stroke:#000000;stroke-width:2.0px;stroke-linecap:butt;stroke-linejoin:miter;stroke-opacity:1"/>
<path class="bond-7 atom-7 atom-8" d="M 342.9,362.1 L 337.0,375.7" style="fill:none;fill-rule:evenodd;stroke:#000000;stroke-width:2.0px;stroke-linecap:butt;stroke-linejoin:miter;stroke-opacity:1"/>
<path class="bond-8 atom-8 atom-9" d="M 333.1,379.2 L 317.5,380.9" style="fill:none;fill-rule:evenodd;stroke:#000000;stroke-width:2.0px;stroke-linecap:butt;stroke-linejoin:miter;stroke-opacity:1"/>
<path class="bond-9 atom-9 atom-10" d="M 317.5,380.9 L 306.6,366.2" style="fill:none;fill-rule:evenodd;stroke:#000000;stroke-width:2.0px;stroke-linecap:butt;stroke-linejoin:miter;stroke-opacity:1"/>
<path class="bond-9 atom-9 atom-10" d="M 312.9,380.9 L 305.2,370.6" style="fill:none;fill-rule:evenodd;stroke:#000000;stroke-width:2.0px;stroke-linecap:butt;stroke-linejoin:miter;stroke-opacity:1"/>
<path class="bond-10 atom-10 atom-11" d="M 306.6,366.2 L 288.4,368.3" style="fill:none;fill-rule:evenodd;stroke:#000000;stroke-width:2.0px;stroke-linecap:butt;stroke-linejoin:miter;stroke-opacity:1"/>
<path class="bond-11 atom-11 atom-12" d="M 288.4,368.3 L 281.1,385.1" style="fill:none;fill-rule:evenodd;stroke:#000000;stroke-width:2.0px;stroke-linecap:butt;stroke-linejoin:miter;stroke-opacity:1"/>
<path class="bond-11 atom-11 atom-12" d="M 290.6,372.3 L 285.5,384.1" style="fill:none;fill-rule:evenodd;stroke:#000000;stroke-width:2.0px;stroke-linecap:butt;stroke-linejoin:miter;stroke-opacity:1"/>
<path class="bond-12 atom-12 atom-13" d="M 281.1,385.1 L 265.0,387.0" style="fill:none;fill-rule:evenodd;stroke:#000000;stroke-width:2.0px;stroke-linecap:butt;stroke-linejoin:miter;stroke-opacity:1"/>
<path class="bond-13 atom-12 atom-14" d="M 281.1,385.1 L 292.0,399.8" style="fill:none;fill-rule:evenodd;stroke:#000000;stroke-width:2.0px;stroke-linecap:butt;stroke-linejoin:miter;stroke-opacity:1"/>
<path class="bond-14 atom-14 atom-15" d="M 292.0,399.8 L 310.2,397.7" style="fill:none;fill-rule:evenodd;stroke:#000000;stroke-width:2.0px;stroke-linecap:butt;stroke-linejoin:miter;stroke-opacity:1"/>
<path class="bond-14 atom-14 atom-15" d="M 294.3,395.9 L 307.0,394.4" style="fill:none;fill-rule:evenodd;stroke:#000000;stroke-width:2.0px;stroke-linecap:butt;stroke-linejoin:miter;stroke-opacity:1"/>
<path class="bond-15 atom-7 atom-16" d="M 342.9,362.1 L 361.1,360.0" style="fill:none;fill-rule:evenodd;stroke:#000000;stroke-width:2.0px;stroke-linecap:butt;stroke-linejoin:miter;stroke-opacity:1"/>
<path class="bond-15 atom-7 atom-16" d="M 345.2,358.1 L 358.0,356.7" style="fill:none;fill-rule:evenodd;stroke:#000000;stroke-width:2.0px;stroke-linecap:butt;stroke-linejoin:miter;stroke-opacity:1"/>
<path class="bond-16 atom-16 atom-17" d="M 361.1,360.0 L 368.0,373.0" style="fill:none;fill-rule:evenodd;stroke:#000000;stroke-width:2.0px;stroke-linecap:butt;stroke-linejoin:miter;stroke-opacity:1"/>
<path class="bond-17 atom-17 atom-18" d="M 372.3,376.6 L 387.7,379.5" style="fill:none;fill-rule:evenodd;stroke:#000000;stroke-width:2.0px;stroke-linecap:butt;stroke-linejoin:miter;stroke-opacity:1"/>
<path class="bond-18 atom-18 atom-19" d="M 387.7,379.5 L 391.1,397.5" style="fill:none;fill-rule:evenodd;stroke:#000000;stroke-width:2.0px;stroke-linecap:butt;stroke-linejoin:miter;stroke-opacity:1"/>
<path class="bond-18 atom-18 atom-19" d="M 391.8,381.5 L 394.2,394.1" style="fill:none;fill-rule:evenodd;stroke:#000000;stroke-width:2.0px;stroke-linecap:butt;stroke-linejoin:miter;stroke-opacity:1"/>
<path class="bond-19 atom-19 atom-20" d="M 391.1,397.5 L 394.5,415.5" style="fill:none;fill-rule:evenodd;stroke:#000000;stroke-width:2.0px;stroke-linecap:butt;stroke-linejoin:miter;stroke-opacity:1"/>
<path class="bond-20 atom-20 atom-21" d="M 394.5,415.5 L 411.8,421.5" style="fill:none;fill-rule:evenodd;stroke:#000000;stroke-width:2.0px;stroke-linecap:butt;stroke-linejoin:miter;stroke-opacity:1"/>
<path class="bond-20 atom-20 atom-21" d="M 398.3,412.9 L 410.4,417.1" style="fill:none;fill-rule:evenodd;stroke:#000000;stroke-width:2.0px;stroke-linecap:butt;stroke-linejoin:miter;stroke-opacity:1"/>
<path class="bond-21 atom-21 atom-22" d="M 411.8,421.5 L 425.7,409.5" style="fill:none;fill-rule:evenodd;stroke:#000000;stroke-width:2.0px;stroke-linecap:butt;stroke-linejoin:miter;stroke-opacity:1"/>
<path class="bond-22 atom-1 atom-23" d="M 400.8,349.3 L 401.5,367.6" style="fill:none;fill-rule:evenodd;stroke:#000000;stroke-width:2.0px;stroke-linecap:butt;stroke-linejoin:miter;stroke-opacity:1"/>
<path class="bond-23 atom-23 atom-24" d="M 401.5,367.6 L 416.5,372.8" style="fill:none;fill-rule:evenodd;stroke:#000000;stroke-width:2.0px;stroke-linecap:butt;stroke-linejoin:miter;stroke-opacity:1"/>
<path class="bond-23 atom-23 atom-24" d="M 402.6,371.8 L 413.1,375.5" style="fill:none;fill-rule:evenodd;stroke:#000000;stroke-width:2.0px;stroke-linecap:butt;stroke-linejoin:miter;stroke-opacity:1"/>
<path class="bond-24 atom-24 atom-25" d="M 421.1,371.6 L 432.7,361.6" style="fill:none;fill-rule:evenodd;stroke:#000000;stroke-width:2.0px;stroke-linecap:butt;stroke-linejoin:miter;stroke-opacity:1"/>
<path class="bond-25 atom-25 atom-26" d="M 432.7,361.6 L 429.2,343.6" style="fill:none;fill-rule:evenodd;stroke:#000000;stroke-width:2.0px;stroke-linecap:butt;stroke-linejoin:miter;stroke-opacity:1"/>
<path class="bond-25 atom-25 atom-26" d="M 435.7,358.2 L 433.3,345.7" style="fill:none;fill-rule:evenodd;stroke:#000000;stroke-width:2.0px;stroke-linecap:butt;stroke-linejoin:miter;stroke-opacity:1"/>
<path class="bond-26 atom-26 atom-27" d="M 429.2,343.6 L 443.1,331.7" style="fill:none;fill-rule:evenodd;stroke:#000000;stroke-width:2.0px;stroke-linecap:butt;stroke-linejoin:miter;stroke-opacity:1"/>
<path class="bond-27 atom-27 atom-28" d="M 443.1,331.7 L 460.4,337.7" style="fill:none;fill-rule:evenodd;stroke:#000000;stroke-width:2.0px;stroke-linecap:butt;stroke-linejoin:miter;stroke-opacity:1"/>
<path class="bond-27 atom-27 atom-28" d="M 444.5,336.0 L 456.6,340.2" style="fill:none;fill-rule:evenodd;stroke:#000000;stroke-width:2.0px;stroke-linecap:butt;stroke-linejoin:miter;stroke-opacity:1"/>
<path class="bond-28 atom-28 atom-29" d="M 460.4,337.7 L 463.8,355.7" style="fill:none;fill-rule:evenodd;stroke:#000000;stroke-width:2.0px;stroke-linecap:butt;stroke-linejoin:miter;stroke-opacity:1"/>
<path class="bond-29 atom-29 atom-30" d="M 463.8,355.7 L 449.9,367.6" style="fill:none;fill-rule:evenodd;stroke:#000000;stroke-width:2.0px;stroke-linecap:butt;stroke-linejoin:miter;stroke-opacity:1"/>
<path class="bond-29 atom-29 atom-30" d="M 459.3,354.7 L 449.6,363.1" style="fill:none;fill-rule:evenodd;stroke:#000000;stroke-width:2.0px;stroke-linecap:butt;stroke-linejoin:miter;stroke-opacity:1"/>
<path class="bond-30 atom-30 atom-31" d="M 449.9,367.6 L 452.8,382.4" style="fill:none;fill-rule:evenodd;stroke:#000000;stroke-width:2.0px;stroke-linecap:butt;stroke-linejoin:miter;stroke-opacity:1"/>
<path class="bond-31 atom-31 atom-32" d="M 456.4,386.6 L 470.7,391.6" style="fill:none;fill-rule:evenodd;stroke:#000000;stroke-width:2.0px;stroke-linecap:butt;stroke-linejoin:miter;stroke-opacity:1"/>
<path class="bond-32 atom-32 atom-33" d="M 470.7,391.6 L 482.6,405.5" style="fill:none;fill-rule:evenodd;stroke:#000000;stroke-width:2.0px;stroke-linecap:butt;stroke-linejoin:miter;stroke-opacity:1"/>
<path class="bond-33 atom-33 atom-34" d="M 482.6,405.5 L 488.6,388.2" style="fill:none;fill-rule:evenodd;stroke:#000000;stroke-width:2.0px;stroke-linecap:butt;stroke-linejoin:miter;stroke-opacity:1"/>
<path class="bond-34 atom-24 atom-35" d="M 419.4,376.9 L 422.2,391.6" style="fill:none;fill-rule:evenodd;stroke:#000000;stroke-width:2.0px;stroke-linecap:butt;stroke-linejoin:miter;stroke-opacity:1"/>
<path class="bond-34 atom-24 atom-35" d="M 416.3,379.8 L 418.2,390.0" style="fill:none;fill-rule:evenodd;stroke:#000000;stroke-width:2.0px;stroke-linecap:butt;stroke-linejoin:miter;stroke-opacity:1"/>
<path class="bond-35 atom-35 atom-36" d="M 422.2,391.6 L 407.5,386.4" style="fill:none;fill-rule:evenodd;stroke:#000000;stroke-width:2.0px;stroke-linecap:butt;stroke-linejoin:miter;stroke-opacity:1"/>
<path class="bond-36 atom-16 atom-3" d="M 361.1,360.0 L 368.4,343.2" style="fill:none;fill-rule:evenodd;stroke:#000000;stroke-width:2.0px;stroke-linecap:butt;stroke-linejoin:miter;stroke-opacity:1"/>
<path class="bond-37 atom-15 atom-9" d="M 310.2,397.7 L 317.5,380.9" style="fill:none;fill-rule:evenodd;stroke:#000000;stroke-width:2.0px;stroke-linecap:butt;stroke-linejoin:miter;stroke-opacity:1"/>
<path class="bond-38 atom-23 atom-18" d="M 401.5,367.6 L 387.7,379.5" style="fill:none;fill-rule:evenodd;stroke:#000000;stroke-width:2.0px;stroke-linecap:butt;stroke-linejoin:miter;stroke-opacity:1"/>
<path class="bond-39 atom-36 atom-19" d="M 402.4,387.8 L 391.1,397.5" style="fill:none;fill-rule:evenodd;stroke:#000000;stroke-width:2.0px;stroke-linecap:butt;stroke-linejoin:miter;stroke-opacity:1"/>
<path class="bond-40 atom-35 atom-22" d="M 422.2,391.6 L 425.7,409.5" style="fill:none;fill-rule:evenodd;stroke:#000000;stroke-width:2.0px;stroke-linecap:butt;stroke-linejoin:miter;stroke-opacity:1"/>
<path class="bond-41 atom-30 atom-25" d="M 449.9,367.6 L 432.7,361.6" style="fill:none;fill-rule:evenodd;stroke:#000000;stroke-width:2.0px;stroke-linecap:butt;stroke-linejoin:miter;stroke-opacity:1"/>
<path class="bond-42 atom-34 atom-32" d="M 488.6,388.2 L 470.7,391.6" style="fill:none;fill-rule:evenodd;stroke:#000000;stroke-width:2.0px;stroke-linecap:butt;stroke-linejoin:miter;stroke-opacity:1"/>
<path class="atom-0" d="M 414.6 340.7 Q 414.6 339.5, 415.2 338.8 Q 415.8 338.1, 417.0 338.1 Q 418.1 338.1, 418.7 338.8 Q 419.3 339.5, 419.3 340.7 Q 419.3 342.0, 418.7 342.7 Q 418.1 343.4, 417.0 343.4 Q 415.8 343.4, 415.2 342.7 Q 414.6 342.0, 414.6 340.7 M 417.0 342.8 Q 417.8 342.8, 418.2 342.3 Q 418.6 341.8, 418.6 340.7 Q 418.6 339.7, 418.2 339.2 Q 417.8 338.7, 417.0 338.7 Q 416.2 338.7, 415.7 339.2 Q 415.3 339.7, 415.3 340.7 Q 415.3 341.8, 415.7 342.3 Q 416.2 342.8, 417.0 342.8 " fill="#000000"/>
<path class="atom-2" d="M 384.9 335.8 L 386.6 338.6 Q 386.8 338.9, 387.1 339.4 Q 387.3 339.8, 387.3 339.9 L 387.3 335.8 L 388.0 335.8 L 388.0 341.0 L 387.3 341.0 L 385.5 338.0 Q 385.3 337.7, 385.1 337.3 Q 384.8 336.9, 384.8 336.7 L 384.8 341.0 L 384.1 341.0 L 384.1 335.8 L 384.9 335.8 " fill="#000000"/>
<path class="atom-2" d="M 384.0 330.1 L 384.7 330.1 L 384.7 332.4 L 387.4 332.4 L 387.4 330.1 L 388.1 330.1 L 388.1 335.3 L 387.4 335.3 L 387.4 332.9 L 384.7 332.9 L 384.7 335.3 L 384.0 335.3 L 384.0 330.1 " fill="#000000"/>
<path class="atom-8" d="M 334.5 376.3 L 336.2 379.0 Q 336.4 379.3, 336.6 379.8 Q 336.9 380.3, 336.9 380.3 L 336.9 376.3 L 337.6 376.3 L 337.6 381.5 L 336.9 381.5 L 335.1 378.5 Q 334.9 378.1, 334.6 377.7 Q 334.4 377.3, 334.3 377.2 L 334.3 381.5 L 333.7 381.5 L 333.7 376.3 L 334.5 376.3 " fill="#000000"/>
<path class="atom-8" d="M 338.2 376.3 L 338.9 376.3 L 338.9 378.5 L 341.6 378.5 L 341.6 376.3 L 342.3 376.3 L 342.3 381.5 L 341.6 381.5 L 341.6 379.1 L 338.9 379.1 L 338.9 381.5 L 338.2 381.5 L 338.2 376.3 " fill="#000000"/>
<path class="atom-13" d="M 261.4 384.6 L 264.4 384.6 L 264.4 385.2 L 262.1 385.2 L 262.1 386.8 L 264.2 386.8 L 264.2 387.4 L 262.1 387.4 L 262.1 389.8 L 261.4 389.8 L 261.4 384.6 " fill="#000000"/>
<path class="atom-17" d="M 363.0 373.6 L 363.7 373.6 L 363.7 375.8 L 366.4 375.8 L 366.4 373.6 L 367.1 373.6 L 367.1 378.8 L 366.4 378.8 L 366.4 376.4 L 363.7 376.4 L 363.7 378.8 L 363.0 378.8 L 363.0 373.6 " fill="#000000"/>
<path class="atom-17" d="M 368.5 373.6 L 370.2 376.3 Q 370.4 376.6, 370.7 377.1 Q 370.9 377.6, 371.0 377.6 L 371.0 373.6 L 371.6 373.6 L 371.6 378.8 L 370.9 378.8 L 369.1 375.8 Q 368.9 375.4, 368.7 375.0 Q 368.5 374.6, 368.4 374.5 L 368.4 378.8 L 367.7 378.8 L 367.7 373.6 L 368.5 373.6 " fill="#000000"/>
<path class="atom-24" d="M 417.3 375.4 Q 417.4 375.4, 417.6 375.5 Q 417.9 375.6, 418.1 375.7 Q 418.4 375.7, 418.7 375.7 Q 419.2 375.7, 419.5 375.5 Q 419.7 375.2, 419.7 374.8 Q 419.7 374.5, 419.6 374.4 Q 419.5 374.2, 419.2 374.1 Q 419.0 374.0, 418.7 373.9 Q 418.2 373.7, 417.9 373.6 Q 417.6 373.5, 417.4 373.2 Q 417.3 372.9, 417.3 372.5 Q 417.3 371.8, 417.7 371.4 Q 418.1 371.0, 419.0 371.0 Q 419.6 371.0, 420.3 371.3 L 420.1 371.8 Q 419.5 371.6, 419.0 371.6 Q 418.5 371.6, 418.3 371.8 Q 418.0 372.0, 418.0 372.4 Q 418.0 372.6, 418.1 372.8 Q 418.3 373.0, 418.5 373.1 Q 418.7 373.2, 419.0 373.3 Q 419.5 373.4, 419.8 373.6 Q 420.1 373.7, 420.3 374.0 Q 420.5 374.3, 420.5 374.8 Q 420.5 375.5, 420.0 375.9 Q 419.5 376.3, 418.7 376.3 Q 418.2 376.3, 417.9 376.2 Q 417.6 376.1, 417.1 375.9 L 417.3 375.4 " fill="#000000"/>
<path class="atom-31" d="M 451.0 385.6 Q 451.0 384.4, 451.6 383.7 Q 452.2 383.0, 453.4 383.0 Q 454.5 383.0, 455.1 383.7 Q 455.8 384.4, 455.8 385.6 Q 455.8 386.9, 455.1 387.6 Q 454.5 388.3, 453.4 388.3 Q 452.2 388.3, 451.6 387.6 Q 451.0 386.9, 451.0 385.6 M 453.4 387.7 Q 454.2 387.7, 454.6 387.2 Q 455.0 386.7, 455.0 385.6 Q 455.0 384.6, 454.6 384.1 Q 454.2 383.6, 453.4 383.6 Q 452.6 383.6, 452.2 384.1 Q 451.7 384.6, 451.7 385.6 Q 451.7 386.7, 452.2 387.2 Q 452.6 387.7, 453.4 387.7 " fill="#000000"/>
<path class="atom-36" d="M 403.8 383.0 L 405.5 385.7 Q 405.7 386.0, 405.9 386.5 Q 406.2 386.9, 406.2 387.0 L 406.2 383.0 L 406.9 383.0 L 406.9 388.1 L 406.2 388.1 L 404.4 385.1 Q 404.2 384.8, 403.9 384.4 Q 403.7 384.0, 403.7 383.9 L 403.7 388.1 L 403.0 388.1 L 403.0 383.0 L 403.8 383.0 " fill="#000000"/>
<path class="atom-36" d="M 402.9 377.3 L 403.6 377.3 L 403.6 379.5 L 406.3 379.5 L 406.3 377.3 L 407.0 377.3 L 407.0 382.4 L 406.3 382.4 L 406.3 380.0 L 403.6 380.0 L 403.6 382.4 L 402.9 382.4 L 402.9 377.3 " fill="#000000"/>
<path class="atom-36" d="M 407.6 382.3 Q 407.7 381.9, 408.0 381.7 Q 408.3 381.6, 408.8 381.6 Q 409.3 381.6, 409.6 381.8 Q 409.9 382.1, 409.9 382.6 Q 409.9 383.1, 409.5 383.6 Q 409.1 384.1, 408.3 384.6 L 409.9 384.6 L 409.9 385.0 L 407.6 385.0 L 407.6 384.7 Q 408.2 384.2, 408.6 383.9 Q 409.0 383.6, 409.2 383.3 Q 409.4 383.0, 409.4 382.6 Q 409.4 382.3, 409.2 382.1 Q 409.0 382.0, 408.8 382.0 Q 408.5 382.0, 408.3 382.1 Q 408.1 382.2, 408.0 382.4 L 407.6 382.3 " fill="#000000"/>
<path class="atom-36" d="M 407.6 378.2 L 408.5 378.2 L 408.5 377.2 L 408.9 377.2 L 408.9 378.2 L 409.9 378.2 L 409.9 378.5 L 408.9 378.5 L 408.9 379.5 L 408.5 379.5 L 408.5 378.5 L 407.6 378.5 L 407.6 378.2 " fill="#000000"/>
<path class="atom-24" d="M 421.9,373.6 L 421.9,373.6 L 421.9,373.6 L 421.9,373.7 L 421.9,373.7 L 421.9,373.7 L 421.9,373.8 L 421.9,373.8 L 421.8,373.8 L 421.8,373.8 L 421.8,373.9 L 421.8,373.9 L 421.8,373.9 L 421.7,373.9 L 421.7,373.9 L 421.7,373.9 L 421.6,373.9 L 421.6,373.9 L 421.6,373.9 L 421.5,373.9 L 421.5,373.9 L 421.5,373.9 L 421.4,373.9 L 421.4,373.9 L 421.4,373.9 L 421.4,373.9 L 421.3,373.9 L 421.3,373.8 L 421.3,373.8 L 421.3,373.8 L 421.3,373.8 L 421.2,373.7 L 421.2,373.7 L 421.2,373.7 L 421.2,373.7 L 421.2,373.6 L 421.2,373.6 L 421.2,373.6 L 421.2,373.5 L 421.2,373.5 L 421.2,373.5 L 421.2,373.4 L 421.2,373.4 L 421.3,373.4 L 421.3,373.4 L 421.3,373.3 L 421.3,373.3 L 421.3,373.3 L 421.4,373.3 L 421.4,373.3 L 421.4,373.2 L 421.4,373.2 L 421.5,373.2 L 421.5,373.2 L 421.5,373.2 L 421.6,373.2 L 421.6,373.2 L 421.6,373.2 L 421.7,373.2 L 421.7,373.2 L 421.7,373.3 L 421.8,373.3 L 421.8,373.3 L 421.8,373.3 L 421.8,373.3 L 421.8,373.3 L 421.9,373.4 L 421.9,373.4 L 421.9,373.4 L 421.9,373.5 L 421.9,373.5 L 421.9,373.5 L 421.9,373.5 L 421.9,373.6 L 421.6,373.6 Z" style="fill:#000000;fill-rule:evenodd;fill-opacity:1;stroke:#000000;stroke-width:0.0px;stroke-linecap:butt;stroke-linejoin:miter;stroke-opacity:1;"/>
<path class="bond-0 atom-0 atom-1" d="M 715.3,370.6 L 695.1,381.5" style="fill:none;fill-rule:evenodd;stroke:#000000;stroke-width:2.0px;stroke-linecap:butt;stroke-linejoin:miter;stroke-opacity:1"/>
<path class="bond-1 atom-1 atom-2" d="M 684.0,381.1 L 660.6,366.7" style="fill:none;fill-rule:evenodd;stroke:#000000;stroke-width:2.0px;stroke-linecap:butt;stroke-linejoin:miter;stroke-opacity:1"/>
<path class="bond-2 atom-2 atom-3" d="M 660.6,366.7 L 630.7,382.9" style="fill:none;fill-rule:evenodd;stroke:#000000;stroke-width:2.0px;stroke-linecap:butt;stroke-linejoin:miter;stroke-opacity:1"/>
<path class="bond-2 atom-2 atom-3" d="M 659.4,375.1 L 638.4,386.4" style="fill:none;fill-rule:evenodd;stroke:#000000;stroke-width:2.0px;stroke-linecap:butt;stroke-linejoin:miter;stroke-opacity:1"/>
<path class="bond-3 atom-3 atom-4" d="M 630.7,382.9 L 601.8,365.1" style="fill:none;fill-rule:evenodd;stroke:#000000;stroke-width:2.0px;stroke-linecap:butt;stroke-linejoin:miter;stroke-opacity:1"/>
<path class="bond-4 atom-4 atom-5" d="M 601.8,365.1 L 571.8,381.3" style="fill:none;fill-rule:evenodd;stroke:#000000;stroke-width:2.0px;stroke-linecap:butt;stroke-linejoin:miter;stroke-opacity:1"/>
<path class="bond-4 atom-4 atom-5" d="M 600.5,373.5 L 579.6,384.8" style="fill:none;fill-rule:evenodd;stroke:#000000;stroke-width:2.0px;stroke-linecap:butt;stroke-linejoin:miter;stroke-opacity:1"/>
<path class="bond-5 atom-5 atom-6" d="M 571.8,381.3 L 542.9,363.4" style="fill:none;fill-rule:evenodd;stroke:#000000;stroke-width:2.0px;stroke-linecap:butt;stroke-linejoin:miter;stroke-opacity:1"/>
<path class="bond-6 atom-6 atom-7" d="M 544.5,366.4 L 514.6,382.6" style="fill:none;fill-rule:evenodd;stroke:#000000;stroke-width:2.0px;stroke-linecap:butt;stroke-linejoin:miter;stroke-opacity:1"/>
<path class="bond-6 atom-6 atom-7" d="M 541.3,360.4 L 511.4,376.6" style="fill:none;fill-rule:evenodd;stroke:#000000;stroke-width:2.0px;stroke-linecap:butt;stroke-linejoin:miter;stroke-opacity:1"/>
<path class="atom-0" d="M 716.8 371.7 Q 716.9 371.7, 717.3 371.9 Q 717.8 372.1, 718.3 372.2 Q 718.8 372.3, 719.2 372.3 Q 720.2 372.3, 720.7 371.9 Q 721.2 371.5, 721.2 370.7 Q 721.2 370.1, 720.9 369.8 Q 720.7 369.5, 720.3 369.3 Q 719.9 369.1, 719.2 368.9 Q 718.3 368.7, 717.8 368.4 Q 717.3 368.2, 716.9 367.7 Q 716.6 367.2, 716.6 366.3 Q 716.6 365.1, 717.4 364.3 Q 718.2 363.6, 719.9 363.6 Q 721.0 363.6, 722.3 364.1 L 721.9 365.2 Q 720.8 364.7, 719.9 364.7 Q 719.0 364.7, 718.5 365.1 Q 717.9 365.5, 718.0 366.1 Q 718.0 366.6, 718.2 367.0 Q 718.5 367.3, 718.9 367.4 Q 719.3 367.6, 719.9 367.8 Q 720.8 368.1, 721.3 368.4 Q 721.8 368.6, 722.2 369.2 Q 722.6 369.7, 722.6 370.7 Q 722.6 372.0, 721.7 372.7 Q 720.8 373.4, 719.3 373.4 Q 718.4 373.4, 717.8 373.2 Q 717.2 373.1, 716.4 372.8 L 716.8 371.7 " fill="#000000"/>
<path class="atom-0" d="M 723.2 363.6 L 724.5 363.6 L 724.5 367.6 L 729.4 367.6 L 729.4 363.6 L 730.7 363.6 L 730.7 373.2 L 729.4 373.2 L 729.4 368.7 L 724.5 368.7 L 724.5 373.2 L 723.2 373.2 L 723.2 363.6 " fill="#000000"/>
<path class="atom-0" d="M 731.9 365.3 L 733.6 365.3 L 733.6 363.5 L 734.3 363.5 L 734.3 365.3 L 736.1 365.3 L 736.1 365.9 L 734.3 365.9 L 734.3 367.7 L 733.6 367.7 L 733.6 365.9 L 731.9 365.9 L 731.9 365.3 " fill="#000000"/>
<path class="atom-1" d="M 685.2 384.6 Q 685.2 382.3, 686.3 381.0 Q 687.4 379.7, 689.6 379.7 Q 691.7 379.7, 692.8 381.0 Q 694.0 382.3, 694.0 384.6 Q 694.0 386.9, 692.8 388.2 Q 691.7 389.6, 689.6 389.6 Q 687.5 389.6, 686.3 388.2 Q 685.2 386.9, 685.2 384.6 M 689.6 388.5 Q 691.0 388.5, 691.8 387.5 Q 692.6 386.5, 692.6 384.6 Q 692.6 382.7, 691.8 381.7 Q 691.0 380.8, 689.6 380.8 Q 688.1 380.8, 687.3 381.7 Q 686.5 382.7, 686.5 384.6 Q 686.5 386.5, 687.3 387.5 Q 688.1 388.5, 689.6 388.5 " fill="#000000"/>
<path class="atom-0" d="M 738.8,368.4 L 738.8,368.4 L 738.8,368.5 L 738.8,368.5 L 738.8,368.6 L 738.7,368.6 L 738.7,368.7 L 738.7,368.8 L 738.7,368.8 L 738.6,368.8 L 738.6,368.9 L 738.5,368.9 L 738.5,368.9 L 738.4,369.0 L 738.4,369.0 L 738.3,369.0 L 738.3,369.0 L 738.2,369.0 L 738.1,369.0 L 738.1,369.0 L 738.0,369.0 L 738.0,369.0 L 737.9,369.0 L 737.9,369.0 L 737.8,369.0 L 737.8,368.9 L 737.7,368.9 L 737.7,368.9 L 737.6,368.8 L 737.6,368.8 L 737.6,368.7 L 737.5,368.7 L 737.5,368.6 L 737.5,368.6 L 737.5,368.5 L 737.5,368.5 L 737.4,368.4 L 737.4,368.3 L 737.5,368.3 L 737.5,368.2 L 737.5,368.2 L 737.5,368.1 L 737.5,368.1 L 737.6,368.0 L 737.6,368.0 L 737.6,367.9 L 737.7,367.9 L 737.7,367.8 L 737.8,367.8 L 737.8,367.8 L 737.9,367.7 L 737.9,367.7 L 738.0,367.7 L 738.0,367.7 L 738.1,367.7 L 738.1,367.7 L 738.2,367.7 L 738.3,367.7 L 738.3,367.7 L 738.4,367.7 L 738.4,367.8 L 738.5,367.8 L 738.5,367.8 L 738.6,367.8 L 738.6,367.9 L 738.7,367.9 L 738.7,368.0 L 738.7,368.0 L 738.7,368.1 L 738.8,368.1 L 738.8,368.2 L 738.8,368.2 L 738.8,368.3 L 738.8,368.4 L 738.1,368.4 Z" style="fill:#000000;fill-rule:evenodd;fill-opacity:1;stroke:#000000;stroke-width:0.0px;stroke-linecap:butt;stroke-linejoin:miter;stroke-opacity:1;"/>
<path class="bond-0 atom-0 atom-1" d="M 77.1,624.9 L 183.0,624.9" style="fill:none;fill-rule:evenodd;stroke:#000000;stroke-width:2.0px;stroke-linecap:butt;stroke-linejoin:miter;stroke-opacity:1"/>
<path class="atom-0" d="M 31.6 625.0 Q 31.6 618.2, 35.0 614.4 Q 38.4 610.6, 44.6 610.6 Q 50.9 610.6, 54.3 614.4 Q 57.6 618.2, 57.6 625.0 Q 57.6 631.8, 54.2 635.8 Q 50.8 639.6, 44.6 639.6 Q 38.4 639.6, 35.0 635.8 Q 31.6 631.9, 31.6 625.0 M 44.6 636.4 Q 49.0 636.4, 51.3 633.6 Q 53.6 630.6, 53.6 625.0 Q 53.6 619.4, 51.3 616.6 Q 49.0 613.8, 44.6 613.8 Q 40.3 613.8, 38.0 616.6 Q 35.6 619.4, 35.6 625.0 Q 35.6 630.7, 38.0 633.6 Q 40.3 636.4, 44.6 636.4 " fill="#000000"/>
<path class="atom-0" d="M 59.6 615.6 L 64.6 615.6 L 64.6 610.4 L 66.8 610.4 L 66.8 615.6 L 72.0 615.6 L 72.0 617.5 L 66.8 617.5 L 66.8 622.8 L 64.6 622.8 L 64.6 617.5 L 59.6 617.5 L 59.6 615.6 " fill="#000000"/>
<path class="atom-1" d="M 188.2 625.0 Q 188.2 618.2, 191.5 614.4 Q 194.9 610.6, 201.2 610.6 Q 207.5 610.6, 210.8 614.4 Q 214.2 618.2, 214.2 625.0 Q 214.2 631.8, 210.8 635.8 Q 207.4 639.6, 201.2 639.6 Q 194.9 639.6, 191.5 635.8 Q 188.2 631.9, 188.2 625.0 M 201.2 636.4 Q 205.5 636.4, 207.8 633.6 Q 210.2 630.6, 210.2 625.0 Q 210.2 619.4, 207.8 616.6 Q 205.5 613.8, 201.2 613.8 Q 196.9 613.8, 194.5 616.6 Q 192.2 619.4, 192.2 625.0 Q 192.2 630.7, 194.5 633.6 Q 196.9 636.4, 201.2 636.4 " fill="#000000"/>
<path class="atom-1" d="M 216.2 615.2 L 225.9 615.2 L 225.9 617.3 L 216.2 617.3 L 216.2 615.2 " fill="#000000"/>
<path class="atom-0" d="M 27.6,628.9 L 27.6,629.1 L 27.6,629.2 L 27.6,629.4 L 27.5,629.6 L 27.5,629.7 L 27.4,629.9 L 27.3,630.0 L 27.2,630.2 L 27.1,630.3 L 26.9,630.4 L 26.8,630.5 L 26.7,630.6 L 26.5,630.7 L 26.4,630.8 L 26.2,630.8 L 26.0,630.8 L 25.9,630.9 L 25.7,630.9 L 25.5,630.9 L 25.3,630.9 L 25.2,630.8 L 25.0,630.8 L 24.8,630.7 L 24.7,630.6 L 24.5,630.6 L 24.4,630.5 L 24.3,630.3 L 24.1,630.2 L 24.0,630.1 L 23.9,629.9 L 23.9,629.8 L 23.8,629.6 L 23.7,629.5 L 23.7,629.3 L 23.7,629.1 L 23.6,629.0 L 23.6,628.8 L 23.7,628.6 L 23.7,628.5 L 23.7,628.3 L 23.8,628.1 L 23.9,628.0 L 23.9,627.8 L 24.0,627.7 L 24.1,627.5 L 24.3,627.4 L 24.4,627.3 L 24.5,627.2 L 24.7,627.1 L 24.8,627.0 L 25.0,627.0 L 25.2,626.9 L 25.3,626.9 L 25.5,626.9 L 25.7,626.9 L 25.9,626.9 L 26.0,626.9 L 26.2,627.0 L 26.4,627.0 L 26.5,627.1 L 26.7,627.2 L 26.8,627.3 L 26.9,627.4 L 27.1,627.5 L 27.2,627.6 L 27.3,627.8 L 27.4,627.9 L 27.5,628.1 L 27.5,628.2 L 27.6,628.4 L 27.6,628.5 L 27.6,628.7 L 27.6,628.9 L 25.6,628.9 Z" style="fill:#000000;fill-rule:evenodd;fill-opacity:1;stroke:#000000;stroke-width:0.0px;stroke-linecap:butt;stroke-linejoin:miter;stroke-opacity:1;"/>
<path class="atom-0" d="M 27.6,620.9 L 27.6,621.1 L 27.6,621.2 L 27.6,621.4 L 27.5,621.6 L 27.5,621.7 L 27.4,621.9 L 27.3,622.0 L 27.2,622.2 L 27.1,622.3 L 26.9,622.4 L 26.8,622.5 L 26.7,622.6 L 26.5,622.7 L 26.4,622.8 L 26.2,622.8 L 26.0,622.8 L 25.9,622.9 L 25.7,622.9 L 25.5,622.9 L 25.3,622.9 L 25.2,622.8 L 25.0,622.8 L 24.8,622.7 L 24.7,622.6 L 24.5,622.6 L 24.4,622.5 L 24.3,622.3 L 24.1,622.2 L 24.0,622.1 L 23.9,621.9 L 23.9,621.8 L 23.8,621.6 L 23.7,621.5 L 23.7,621.3 L 23.7,621.1 L 23.6,621.0 L 23.6,620.8 L 23.7,620.6 L 23.7,620.5 L 23.7,620.3 L 23.8,620.1 L 23.9,620.0 L 23.9,619.8 L 24.0,619.7 L 24.1,619.5 L 24.3,619.4 L 24.4,619.3 L 24.5,619.2 L 24.7,619.1 L 24.8,619.0 L 25.0,619.0 L 25.2,618.9 L 25.3,618.9 L 25.5,618.9 L 25.7,618.9 L 25.9,618.9 L 26.0,618.9 L 26.2,619.0 L 26.4,619.0 L 26.5,619.1 L 26.7,619.2 L 26.8,619.3 L 26.9,619.4 L 27.1,619.5 L 27.2,619.6 L 27.3,619.8 L 27.4,619.9 L 27.5,620.1 L 27.5,620.2 L 27.6,620.4 L 27.6,620.5 L 27.6,620.7 L 27.6,620.9 L 25.6,620.9 Z" style="fill:#000000;fill-rule:evenodd;fill-opacity:1;stroke:#000000;stroke-width:0.0px;stroke-linecap:butt;stroke-linejoin:miter;stroke-opacity:1;"/>
<path class="bond-0 atom-0 atom-1" d="M 278.3,676.1 L 301.2,691.4" style="fill:none;fill-rule:evenodd;stroke:#000000;stroke-width:2.0px;stroke-linecap:butt;stroke-linejoin:miter;stroke-opacity:1"/>
<path class="bond-0 atom-0 atom-1" d="M 285.4,673.0 L 301.4,683.7" style="fill:none;fill-rule:evenodd;stroke:#000000;stroke-width:2.0px;stroke-linecap:butt;stroke-linejoin:miter;stroke-opacity:1"/>
<path class="bond-0 atom-0 atom-1" d="M 278.2,683.8 L 294.2,694.5" style="fill:none;fill-rule:evenodd;stroke:#000000;stroke-width:2.0px;stroke-linecap:butt;stroke-linejoin:miter;stroke-opacity:1"/>
<path class="bond-1 atom-1 atom-2" d="M 301.2,691.4 L 333.6,692.0" style="fill:none;fill-rule:evenodd;stroke:#000000;stroke-width:2.0px;stroke-linecap:butt;stroke-linejoin:miter;stroke-opacity:1"/>
<path class="bond-2 atom-2 atom-3" d="M 333.6,692.0 L 361.2,675.0" style="fill:none;fill-rule:evenodd;stroke:#000000;stroke-width:2.0px;stroke-linecap:butt;stroke-linejoin:miter;stroke-opacity:1"/>
<path class="bond-3 atom-3 atom-4" d="M 363.9,673.2 L 378.1,694.3" style="fill:none;fill-rule:evenodd;stroke:#000000;stroke-width:2.0px;stroke-linecap:butt;stroke-linejoin:miter;stroke-opacity:1"/>
<path class="bond-3 atom-3 atom-4" d="M 358.5,676.8 L 372.8,697.9" style="fill:none;fill-rule:evenodd;stroke:#000000;stroke-width:2.0px;stroke-linecap:butt;stroke-linejoin:miter;stroke-opacity:1"/>
<path class="bond-4 atom-3 atom-5" d="M 361.2,675.0 L 372.5,651.5" style="fill:none;fill-rule:evenodd;stroke:#000000;stroke-width:2.0px;stroke-linecap:butt;stroke-linejoin:miter;stroke-opacity:1"/>
<path class="bond-5 atom-5 atom-6" d="M 379.9,648.6 L 402.9,662.7" style="fill:none;fill-rule:evenodd;stroke:#000000;stroke-width:2.0px;stroke-linecap:butt;stroke-linejoin:miter;stroke-opacity:1"/>
<path class="bond-6 atom-6 atom-7" d="M 402.9,662.7 L 397.2,694.6" style="fill:none;fill-rule:evenodd;stroke:#000000;stroke-width:2.0px;stroke-linecap:butt;stroke-linejoin:miter;stroke-opacity:1"/>
<path class="bond-7 atom-7 atom-8" d="M 397.2,694.6 L 422.0,715.5" style="fill:none;fill-rule:evenodd;stroke:#000000;stroke-width:2.0px;stroke-linecap:butt;stroke-linejoin:miter;stroke-opacity:1"/>
<path class="bond-7 atom-7 atom-8" d="M 405.1,692.8 L 422.5,707.4" style="fill:none;fill-rule:evenodd;stroke:#000000;stroke-width:2.0px;stroke-linecap:butt;stroke-linejoin:miter;stroke-opacity:1"/>
<path class="bond-8 atom-8 atom-9" d="M 422.0,715.5 L 452.5,704.4" style="fill:none;fill-rule:evenodd;stroke:#000000;stroke-width:2.0px;stroke-linecap:butt;stroke-linejoin:miter;stroke-opacity:1"/>
<path class="bond-9 atom-9 atom-10" d="M 452.5,704.4 L 458.2,672.5" style="fill:none;fill-rule:evenodd;stroke:#000000;stroke-width:2.0px;stroke-linecap:butt;stroke-linejoin:miter;stroke-opacity:1"/>
<path class="bond-9 atom-9 atom-10" d="M 447.0,698.5 L 450.9,676.1" style="fill:none;fill-rule:evenodd;stroke:#000000;stroke-width:2.0px;stroke-linecap:butt;stroke-linejoin:miter;stroke-opacity:1"/>
<path class="bond-10 atom-10 atom-11" d="M 458.2,672.5 L 488.6,661.4" style="fill:none;fill-rule:evenodd;stroke:#000000;stroke-width:2.0px;stroke-linecap:butt;stroke-linejoin:miter;stroke-opacity:1"/>
<path class="bond-11 atom-10 atom-12" d="M 458.2,672.5 L 433.3,651.6" style="fill:none;fill-rule:evenodd;stroke:#000000;stroke-width:2.0px;stroke-linecap:butt;stroke-linejoin:miter;stroke-opacity:1"/>
<path class="bond-12 atom-12 atom-13" d="M 433.3,651.6 L 443.7,620.9" style="fill:none;fill-rule:evenodd;stroke:#000000;stroke-width:2.0px;stroke-linecap:butt;stroke-linejoin:miter;stroke-opacity:1"/>
<path class="bond-13 atom-13 atom-14" d="M 443.3,617.7 L 470.1,614.3" style="fill:none;fill-rule:evenodd;stroke:#000000;stroke-width:2.0px;stroke-linecap:butt;stroke-linejoin:miter;stroke-opacity:1"/>
<path class="bond-13 atom-13 atom-14" d="M 444.1,624.1 L 470.9,620.8" style="fill:none;fill-rule:evenodd;stroke:#000000;stroke-width:2.0px;stroke-linecap:butt;stroke-linejoin:miter;stroke-opacity:1"/>
<path class="bond-14 atom-13 atom-15" d="M 443.7,620.9 L 429.8,599.4" style="fill:none;fill-rule:evenodd;stroke:#000000;stroke-width:2.0px;stroke-linecap:butt;stroke-linejoin:miter;stroke-opacity:1"/>
<path class="bond-15 atom-15 atom-16" d="M 430.3,587.9 L 445.1,567.3" style="fill:none;fill-rule:evenodd;stroke:#000000;stroke-width:2.0px;stroke-linecap:butt;stroke-linejoin:miter;stroke-opacity:1"/>
<path class="bond-16 atom-16 atom-17" d="M 445.1,567.3 L 431.8,537.8" style="fill:none;fill-rule:evenodd;stroke:#000000;stroke-width:2.0px;stroke-linecap:butt;stroke-linejoin:miter;stroke-opacity:1"/>
<path class="bond-17 atom-17 atom-18" d="M 431.8,537.8 L 399.5,534.5" style="fill:none;fill-rule:evenodd;stroke:#000000;stroke-width:2.0px;stroke-linecap:butt;stroke-linejoin:miter;stroke-opacity:1"/>
<path class="bond-18 atom-18 atom-19" d="M 399.5,534.5 L 380.6,560.8" style="fill:none;fill-rule:evenodd;stroke:#000000;stroke-width:2.0px;stroke-linecap:butt;stroke-linejoin:miter;stroke-opacity:1"/>
<path class="bond-19 atom-19 atom-20" d="M 380.6,560.8 L 393.9,590.4" style="fill:none;fill-rule:evenodd;stroke:#000000;stroke-width:2.0px;stroke-linecap:butt;stroke-linejoin:miter;stroke-opacity:1"/>
<path class="bond-20 atom-20 atom-21" d="M 393.9,590.4 L 375.3,609.4" style="fill:none;fill-rule:evenodd;stroke:#000000;stroke-width:2.0px;stroke-linecap:butt;stroke-linejoin:miter;stroke-opacity:1"/>
<path class="bond-21 atom-21 atom-22" d="M 366.4,607.9 L 350.5,588.7" style="fill:none;fill-rule:evenodd;stroke:#000000;stroke-width:2.0px;stroke-linecap:butt;stroke-linejoin:miter;stroke-opacity:1"/>
<path class="bond-21 atom-21 atom-22" d="M 359.1,609.1 L 347.9,595.7" style="fill:none;fill-rule:evenodd;stroke:#000000;stroke-width:2.0px;stroke-linecap:butt;stroke-linejoin:miter;stroke-opacity:1"/>
<path class="bond-22 atom-22 atom-23" d="M 350.5,588.7 L 319.5,579.0" style="fill:none;fill-rule:evenodd;stroke:#000000;stroke-width:2.0px;stroke-linecap:butt;stroke-linejoin:miter;stroke-opacity:1"/>
<path class="bond-23 atom-23 atom-24" d="M 319.5,579.0 L 288.3,587.5" style="fill:none;fill-rule:evenodd;stroke:#000000;stroke-width:2.0px;stroke-linecap:butt;stroke-linejoin:miter;stroke-opacity:1"/>
<path class="bond-23 atom-23 atom-24" d="M 316.6,586.5 L 294.7,592.5" style="fill:none;fill-rule:evenodd;stroke:#000000;stroke-width:2.0px;stroke-linecap:butt;stroke-linejoin:miter;stroke-opacity:1"/>
<path class="bond-24 atom-24 atom-25" d="M 288.3,587.5 L 271.8,605.8" style="fill:none;fill-rule:evenodd;stroke:#000000;stroke-width:2.0px;stroke-linecap:butt;stroke-linejoin:miter;stroke-opacity:1"/>
<path class="bond-25 atom-25 atom-26" d="M 265.6,617.6 L 261.4,643.6" style="fill:none;fill-rule:evenodd;stroke:#000000;stroke-width:2.0px;stroke-linecap:butt;stroke-linejoin:miter;stroke-opacity:1"/>
<path class="bond-26 atom-26 atom-27" d="M 261.4,643.6 L 293.8,643.4" style="fill:none;fill-rule:evenodd;stroke:#000000;stroke-width:2.0px;stroke-linecap:butt;stroke-linejoin:miter;stroke-opacity:1"/>
<path class="bond-26 atom-26 atom-27" d="M 266.2,637.1 L 288.9,637.0" style="fill:none;fill-rule:evenodd;stroke:#000000;stroke-width:2.0px;stroke-linecap:butt;stroke-linejoin:miter;stroke-opacity:1"/>
<path class="bond-27 atom-27 atom-28" d="M 293.8,643.4 L 320.9,625.8" style="fill:none;fill-rule:evenodd;stroke:#000000;stroke-width:2.0px;stroke-linecap:butt;stroke-linejoin:miter;stroke-opacity:1"/>
<path class="bond-28 atom-28 atom-29" d="M 320.9,625.8 L 304.0,615.8" style="fill:none;fill-rule:evenodd;stroke:#000000;stroke-width:2.0px;stroke-linecap:butt;stroke-linejoin:miter;stroke-opacity:1"/>
<path class="bond-28 atom-28 atom-29" d="M 315.1,629.9 L 303.3,622.9" style="fill:none;fill-rule:evenodd;stroke:#000000;stroke-width:2.0px;stroke-linecap:butt;stroke-linejoin:miter;stroke-opacity:1"/>
<path class="bond-29 atom-26 atom-0" d="M 261.4,643.6 L 271.8,667.6" style="fill:none;fill-rule:evenodd;stroke:#000000;stroke-width:2.0px;stroke-linecap:butt;stroke-linejoin:miter;stroke-opacity:1"/>
<path class="bond-30 atom-21 atom-5" d="M 371.9,619.3 L 374.5,640.0" style="fill:none;fill-rule:evenodd;stroke:#000000;stroke-width:2.0px;stroke-linecap:butt;stroke-linejoin:miter;stroke-opacity:1"/>
<path class="bond-31 atom-12 atom-6" d="M 433.3,651.6 L 402.9,662.7" style="fill:none;fill-rule:evenodd;stroke:#000000;stroke-width:2.0px;stroke-linecap:butt;stroke-linejoin:miter;stroke-opacity:1"/>
<path class="bond-31 atom-12 atom-6" d="M 431.0,659.4 L 409.7,667.1" style="fill:none;fill-rule:evenodd;stroke:#000000;stroke-width:2.0px;stroke-linecap:butt;stroke-linejoin:miter;stroke-opacity:1"/>
<path class="bond-32 atom-29 atom-7" d="M 304.0,615.8 L 397.2,694.6" style="fill:none;fill-rule:evenodd;stroke:#000000;stroke-width:2.0px;stroke-linecap:butt;stroke-linejoin:miter;stroke-opacity:1"/>
<path class="bond-33 atom-20 atom-15" d="M 393.9,590.4 L 421.5,593.2" style="fill:none;fill-rule:evenodd;stroke:#000000;stroke-width:2.0px;stroke-linecap:butt;stroke-linejoin:miter;stroke-opacity:1"/>
<path class="bond-34 atom-29 atom-24" d="M 304.0,615.8 L 288.3,587.5" style="fill:none;fill-rule:evenodd;stroke:#000000;stroke-width:2.0px;stroke-linecap:butt;stroke-linejoin:miter;stroke-opacity:1"/>
<path class="atom-0" d="M 274.1 668.8 Q 275.6 668.8, 276.4 669.5 Q 277.2 670.2, 277.2 671.5 Q 277.2 672.7, 276.4 673.5 Q 275.6 674.2, 274.1 674.2 L 272.6 674.2 L 272.6 677.9 L 271.3 677.9 L 271.3 668.8 L 274.1 668.8 M 274.1 673.1 Q 274.9 673.1, 275.4 672.7 Q 275.9 672.3, 275.9 671.5 Q 275.9 670.6, 275.4 670.2 Q 275.0 669.8, 274.1 669.8 L 272.6 669.8 L 272.6 673.1 L 274.1 673.1 " fill="#000000"/>
<path class="atom-4" d="M 375.1 701.9 Q 375.1 699.7, 376.2 698.5 Q 377.3 697.2, 379.3 697.2 Q 381.4 697.2, 382.5 698.5 Q 383.6 699.7, 383.6 701.9 Q 383.6 704.1, 382.5 705.4 Q 381.4 706.6, 379.3 706.6 Q 377.3 706.6, 376.2 705.4 Q 375.1 704.1, 375.1 701.9 M 379.3 705.6 Q 380.7 705.6, 381.5 704.7 Q 382.3 703.7, 382.3 701.9 Q 382.3 700.1, 381.5 699.2 Q 380.7 698.3, 379.3 698.3 Q 377.9 698.3, 377.2 699.2 Q 376.4 700.1, 376.4 701.9 Q 376.4 703.7, 377.2 704.7 Q 377.9 705.6, 379.3 705.6 " fill="#000000"/>
<path class="atom-5" d="M 373.2 641.2 L 376.2 646.0 Q 376.5 646.5, 377.0 647.4 Q 377.5 648.3, 377.5 648.3 L 377.5 641.2 L 378.7 641.2 L 378.7 650.4 L 377.5 650.4 L 374.2 645.0 Q 373.9 644.4, 373.4 643.7 Q 373.1 643.0, 372.9 642.8 L 372.9 650.4 L 371.8 650.4 L 371.8 641.2 L 373.2 641.2 " fill="#000000"/>
<path class="atom-14" d="M 471.6 616.9 Q 471.6 614.7, 472.7 613.5 Q 473.8 612.2, 475.9 612.2 Q 477.9 612.2, 479.0 613.5 Q 480.1 614.7, 480.1 616.9 Q 480.1 619.1, 479.0 620.4 Q 477.9 621.7, 475.9 621.7 Q 473.8 621.7, 472.7 620.4 Q 471.6 619.2, 471.6 616.9 M 475.9 620.6 Q 477.3 620.6, 478.0 619.7 Q 478.8 618.8, 478.8 616.9 Q 478.8 615.1, 478.0 614.2 Q 477.3 613.3, 475.9 613.3 Q 474.5 613.3, 473.7 614.2 Q 472.9 615.1, 472.9 616.9 Q 472.9 618.8, 473.7 619.7 Q 474.5 620.6, 475.9 620.6 " fill="#000000"/>
<path class="atom-15" d="M 424.1 589.1 L 427.1 593.9 Q 427.4 594.4, 427.9 595.3 Q 428.4 596.1, 428.4 596.2 L 428.4 589.1 L 429.6 589.1 L 429.6 598.2 L 428.4 598.2 L 425.1 592.9 Q 424.7 592.3, 424.3 591.6 Q 424.0 590.9, 423.8 590.7 L 423.8 598.2 L 422.6 598.2 L 422.6 589.1 L 424.1 589.1 " fill="#000000"/>
<path class="atom-21" d="M 360.0 609.0 L 361.3 609.0 L 361.3 612.9 L 365.9 612.9 L 365.9 609.0 L 367.2 609.0 L 367.2 618.2 L 365.9 618.2 L 365.9 613.9 L 361.3 613.9 L 361.3 618.2 L 360.0 618.2 L 360.0 609.0 " fill="#000000"/>
<path class="atom-21" d="M 371.0 609.0 Q 372.6 609.0, 373.4 609.7 Q 374.2 610.4, 374.2 611.7 Q 374.2 613.0, 373.3 613.7 Q 372.5 614.4, 371.0 614.4 L 369.5 614.4 L 369.5 618.2 L 368.3 618.2 L 368.3 609.0 L 371.0 609.0 M 371.0 613.4 Q 371.9 613.4, 372.4 612.9 Q 372.9 612.5, 372.9 611.7 Q 372.9 610.9, 372.4 610.5 Q 371.9 610.0, 371.0 610.0 L 369.5 610.0 L 369.5 613.4 L 371.0 613.4 " fill="#000000"/>
<path class="atom-25" d="M 262.4 611.7 Q 262.4 609.4, 263.5 608.2 Q 264.5 607.0, 266.6 607.0 Q 268.6 607.0, 269.7 608.2 Q 270.8 609.4, 270.8 611.7 Q 270.8 613.9, 269.7 615.2 Q 268.6 616.4, 266.6 616.4 Q 264.6 616.4, 263.5 615.2 Q 262.4 613.9, 262.4 611.7 M 266.6 615.4 Q 268.0 615.4, 268.7 614.4 Q 269.5 613.5, 269.5 611.7 Q 269.5 609.8, 268.7 608.9 Q 268.0 608.0, 266.6 608.0 Q 265.2 608.0, 264.4 608.9 Q 263.7 609.8, 263.7 611.7 Q 263.7 613.5, 264.4 614.4 Q 265.2 615.4, 266.6 615.4 " fill="#000000"/>
<path class="atom-0" d="M 270.0,673.4 L 270.0,673.4 L 270.0,673.5 L 270.0,673.5 L 270.0,673.6 L 270.0,673.6 L 270.0,673.7 L 269.9,673.7 L 269.9,673.8 L 269.9,673.8 L 269.8,673.8 L 269.8,673.9 L 269.7,673.9 L 269.7,673.9 L 269.6,674.0 L 269.6,674.0 L 269.5,674.0 L 269.5,674.0 L 269.4,674.0 L 269.4,674.0 L 269.3,674.0 L 269.2,674.0 L 269.2,674.0 L 269.1,673.9 L 269.1,673.9 L 269.0,673.9 L 269.0,673.9 L 269.0,673.8 L 268.9,673.8 L 268.9,673.7 L 268.8,673.7 L 268.8,673.6 L 268.8,673.6 L 268.8,673.5 L 268.8,673.5 L 268.8,673.4 L 268.7,673.4 L 268.7,673.3 L 268.8,673.3 L 268.8,673.2 L 268.8,673.2 L 268.8,673.1 L 268.8,673.1 L 268.8,673.0 L 268.9,673.0 L 268.9,672.9 L 269.0,672.9 L 269.0,672.8 L 269.0,672.8 L 269.1,672.8 L 269.1,672.8 L 269.2,672.7 L 269.2,672.7 L 269.3,672.7 L 269.4,672.7 L 269.4,672.7 L 269.5,672.7 L 269.5,672.7 L 269.6,672.7 L 269.6,672.7 L 269.7,672.8 L 269.7,672.8 L 269.8,672.8 L 269.8,672.9 L 269.9,672.9 L 269.9,672.9 L 269.9,673.0 L 270.0,673.0 L 270.0,673.1 L 270.0,673.1 L 270.0,673.2 L 270.0,673.2 L 270.0,673.3 L 270.0,673.4 L 269.4,673.4 Z" style="fill:#000000;fill-rule:evenodd;fill-opacity:1;stroke:#000000;stroke-width:0.0px;stroke-linecap:butt;stroke-linejoin:miter;stroke-opacity:1;"/>
<path class="bond-0 atom-0 atom-1" d="M 528.5,706.0 L 552.4,653.5" style="fill:none;fill-rule:evenodd;stroke:#000000;stroke-width:2.0px;stroke-linecap:butt;stroke-linejoin:miter;stroke-opacity:1"/>
<path class="bond-1 atom-1 atom-2" d="M 547.7,656.8 L 521.6,620.2" style="fill:none;fill-rule:evenodd;stroke:#000000;stroke-width:2.0px;stroke-linecap:butt;stroke-linejoin:miter;stroke-opacity:1"/>
<path class="bond-1 atom-1 atom-2" d="M 557.1,650.1 L 531.0,613.5" style="fill:none;fill-rule:evenodd;stroke:#000000;stroke-width:2.0px;stroke-linecap:butt;stroke-linejoin:miter;stroke-opacity:1"/>
<path class="bond-2 atom-1 atom-3" d="M 552.4,653.5 L 601.8,648.7" style="fill:none;fill-rule:evenodd;stroke:#000000;stroke-width:2.0px;stroke-linecap:butt;stroke-linejoin:miter;stroke-opacity:1"/>
<path class="bond-3 atom-3 atom-4" d="M 616.0,658.0 L 639.8,697.3" style="fill:none;fill-rule:evenodd;stroke:#000000;stroke-width:2.0px;stroke-linecap:butt;stroke-linejoin:miter;stroke-opacity:1"/>
<path class="bond-4 atom-4 atom-5" d="M 639.8,697.3 L 697.1,704.7" style="fill:none;fill-rule:evenodd;stroke:#000000;stroke-width:2.0px;stroke-linecap:butt;stroke-linejoin:miter;stroke-opacity:1"/>
<path class="bond-5 atom-5 atom-6" d="M 697.1,704.7 L 738.6,664.6" style="fill:none;fill-rule:evenodd;stroke:#000000;stroke-width:2.0px;stroke-linecap:butt;stroke-linejoin:miter;stroke-opacity:1"/>
<path class="bond-6 atom-6 atom-7" d="M 738.6,664.6 L 733.1,607.1" style="fill:none;fill-rule:evenodd;stroke:#000000;stroke-width:2.0px;stroke-linecap:butt;stroke-linejoin:miter;stroke-opacity:1"/>
<path class="bond-7 atom-7 atom-8" d="M 733.1,607.1 L 684.7,575.5" style="fill:none;fill-rule:evenodd;stroke:#000000;stroke-width:2.0px;stroke-linecap:butt;stroke-linejoin:miter;stroke-opacity:1"/>
<path class="bond-8 atom-8 atom-9" d="M 684.7,575.5 L 629.9,593.7" style="fill:none;fill-rule:evenodd;stroke:#000000;stroke-width:2.0px;stroke-linecap:butt;stroke-linejoin:miter;stroke-opacity:1"/>
<path class="bond-9 atom-9 atom-10" d="M 629.9,593.7 L 599.1,562.0" style="fill:none;fill-rule:evenodd;stroke:#000000;stroke-width:2.0px;stroke-linecap:butt;stroke-linejoin:miter;stroke-opacity:1"/>
<path class="bond-10 atom-9 atom-3" d="M 629.9,593.7 L 613.6,637.9" style="fill:none;fill-rule:evenodd;stroke:#000000;stroke-width:2.0px;stroke-linecap:butt;stroke-linejoin:miter;stroke-opacity:1"/>
<path class="atom-2" d="M 511.4 606.5 Q 511.4 602.6, 513.3 600.4 Q 515.2 598.2, 518.9 598.2 Q 522.5 598.2, 524.4 600.4 Q 526.4 602.6, 526.4 606.5 Q 526.4 610.5, 524.4 612.7 Q 522.5 615.0, 518.9 615.0 Q 515.3 615.0, 513.3 612.7 Q 511.4 610.5, 511.4 606.5 M 518.9 613.1 Q 521.4 613.1, 522.7 611.5 Q 524.1 609.8, 524.1 606.5 Q 524.1 603.3, 522.7 601.7 Q 521.4 600.0, 518.9 600.0 Q 516.4 600.0, 515.0 601.6 Q 513.7 603.3, 513.7 606.5 Q 513.7 609.8, 515.0 611.5 Q 516.4 613.1, 518.9 613.1 " fill="#000000"/>
<path class="atom-3" d="M 606.3 639.8 L 611.7 648.4 Q 612.2 649.3, 613.0 650.8 Q 613.9 652.4, 613.9 652.5 L 613.9 639.8 L 616.1 639.8 L 616.1 656.1 L 613.9 656.1 L 608.1 646.6 Q 607.5 645.5, 606.7 644.3 Q 606.0 643.0, 605.8 642.6 L 605.8 656.1 L 603.7 656.1 L 603.7 639.8 L 606.3 639.8 " fill="#000000"/>
<path class="atom-10" d="M 582.2 552.3 Q 582.2 548.4, 584.1 546.2 Q 586.1 544.0, 589.7 544.0 Q 593.3 544.0, 595.3 546.2 Q 597.2 548.4, 597.2 552.3 Q 597.2 556.3, 595.2 558.5 Q 593.3 560.8, 589.7 560.8 Q 586.1 560.8, 584.1 558.5 Q 582.2 556.3, 582.2 552.3 M 589.7 558.9 Q 592.2 558.9, 593.5 557.2 Q 594.9 555.6, 594.9 552.3 Q 594.9 549.1, 593.5 547.5 Q 592.2 545.8, 589.7 545.8 Q 587.2 545.8, 585.8 547.4 Q 584.5 549.0, 584.5 552.3 Q 584.5 555.6, 585.8 557.2 Q 587.2 558.9, 589.7 558.9 " fill="#000000"/>
<path class="atom-10" d="M 598.4 546.6 L 604.0 546.6 L 604.0 547.9 L 598.4 547.9 L 598.4 546.6 " fill="#000000"/>
</svg>