<svg xmlns="http://www.w3.org/2000/svg" xmlns:rdkit="http://www.rdkit.org/xml" xmlns:xlink="http://www.w3.org/1999/xlink" version="1.1" baseProfile="full" xml:space="preserve" width="750px" height="750px" viewBox="0 0 750 750">
<!-- END OF HEADER -->
<rect style="opacity:1.0;fill:#FFFFFF;stroke:none" width="750.0" height="750.0" x="0.0" y="0.0"> </rect>
<path class="bond-0 atom-0 atom-1" d="M 21.2,125.0 L 189.9,125.0" style="fill:none;fill-rule:evenodd;stroke:#000000;stroke-width:2.0px;stroke-linecap:butt;stroke-linejoin:miter;stroke-opacity:1"/>
<path class="atom-1" d="M 209.7 124.3 Q 212.4 125.0, 213.8 126.7 Q 215.2 128.4, 215.2 130.8 Q 215.2 134.7, 212.7 137.0 Q 210.2 139.2, 205.5 139.2 L 195.9 139.2 L 195.9 110.8 L 204.3 110.8 Q 209.1 110.8, 211.6 112.8 Q 214.0 114.8, 214.0 118.4 Q 214.0 122.6, 209.7 124.3 M 199.7 114.0 L 199.7 122.9 L 204.3 122.9 Q 207.1 122.9, 208.5 121.8 Q 210.0 120.6, 210.0 118.4 Q 210.0 114.0, 204.3 114.0 L 199.7 114.0 M 205.5 136.0 Q 208.2 136.0, 209.7 134.6 Q 211.2 133.3, 211.2 130.8 Q 211.2 128.5, 209.5 127.3 Q 207.9 126.1, 204.9 126.1 L 199.7 126.1 L 199.7 136.0 L 205.5 136.0 " fill="#000000"/>
<path class="atom-1" d="M 220.1 118.6 L 220.5 121.4 Q 222.7 118.2, 226.2 118.2 Q 227.3 118.2, 228.8 118.6 L 228.2 122.0 Q 226.5 121.6, 225.5 121.6 Q 223.9 121.6, 222.7 122.3 Q 221.7 122.9, 220.8 124.5 L 220.8 139.2 L 217.0 139.2 L 217.0 118.6 L 220.1 118.6 " fill="#000000"/>
<path class="bond-0 atom-0 atom-1" d="M 276.6,152.4 L 357.0,106.0" style="fill:none;fill-rule:evenodd;stroke:#000000;stroke-width:2.0px;stroke-linecap:butt;stroke-linejoin:miter;stroke-opacity:1"/>
<path class="bond-1 atom-1 atom-2" d="M 390.3,106.0 L 456.0,144.0" style="fill:none;fill-rule:evenodd;stroke:#000000;stroke-width:2.0px;stroke-linecap:butt;stroke-linejoin:miter;stroke-opacity:1"/>
<path class="atom-1" d="M 360.6 96.5 Q 360.6 89.7, 364.0 85.9 Q 367.4 82.1, 373.6 82.1 Q 379.9 82.1, 383.3 85.9 Q 386.6 89.7, 386.6 96.5 Q 386.6 103.3, 383.2 107.3 Q 379.8 111.1, 373.6 111.1 Q 367.4 111.1, 364.0 107.3 Q 360.6 103.4, 360.6 96.5 M 373.6 107.9 Q 378.0 107.9, 380.3 105.1 Q 382.6 102.1, 382.6 96.5 Q 382.6 90.9, 380.3 88.1 Q 378.0 85.3, 373.6 85.3 Q 369.3 85.3, 367.0 88.1 Q 364.6 90.9, 364.6 96.5 Q 364.6 102.2, 367.0 105.1 Q 369.3 107.9, 373.6 107.9 " fill="#000000"/>
<path class="atom-2" d="M 459.7 153.4 Q 459.7 146.3, 463.0 142.7 Q 466.3 138.9, 472.6 138.9 Q 478.5 138.9, 481.6 143.1 L 478.9 145.2 Q 476.7 142.2, 472.6 142.2 Q 468.3 142.2, 466.1 145.1 Q 463.8 147.9, 463.8 153.4 Q 463.8 159.0, 466.1 161.9 Q 468.5 164.7, 473.1 164.7 Q 476.2 164.7, 479.8 162.9 L 480.9 165.9 Q 479.5 166.8, 477.2 167.4 Q 475.0 167.9, 472.5 167.9 Q 466.3 167.9, 463.0 164.2 Q 459.7 160.4, 459.7 153.4 " fill="#000000"/>
<path class="atom-2" d="M 483.2 137.2 L 486.9 137.2 L 486.9 167.6 L 483.2 167.6 L 483.2 137.2 " fill="#000000"/>
<path class="atom-0" d="M 266.6,156.4 L 266.6,156.6 L 266.6,156.7 L 266.6,156.9 L 266.5,157.1 L 266.5,157.2 L 266.4,157.4 L 266.3,157.5 L 266.2,157.7 L 266.1,157.8 L 266.0,157.9 L 265.8,158.0 L 265.7,158.1 L 265.5,158.2 L 265.4,158.3 L 265.2,158.3 L 265.0,158.4 L 264.9,158.4 L 264.7,158.4 L 264.5,158.4 L 264.3,158.4 L 264.2,158.3 L 264.0,158.3 L 263.9,158.2 L 263.7,158.2 L 263.5,158.1 L 263.4,158.0 L 263.3,157.9 L 263.2,157.7 L 263.0,157.6 L 263.0,157.5 L 262.9,157.3 L 262.8,157.1 L 262.7,157.0 L 262.7,156.8 L 262.7,156.6 L 262.6,156.5 L 262.6,156.3 L 262.7,156.1 L 262.7,156.0 L 262.7,155.8 L 262.8,155.6 L 262.9,155.5 L 263.0,155.3 L 263.0,155.2 L 263.2,155.1 L 263.3,154.9 L 263.4,154.8 L 263.5,154.7 L 263.7,154.6 L 263.9,154.6 L 264.0,154.5 L 264.2,154.4 L 264.3,154.4 L 264.5,154.4 L 264.7,154.4 L 264.9,154.4 L 265.0,154.4 L 265.2,154.5 L 265.4,154.5 L 265.5,154.6 L 265.7,154.7 L 265.8,154.8 L 266.0,154.9 L 266.1,155.0 L 266.2,155.1 L 266.3,155.3 L 266.4,155.4 L 266.5,155.6 L 266.5,155.7 L 266.6,155.9 L 266.6,156.0 L 266.6,156.2 L 266.6,156.4 L 264.6,156.4 Z" style="fill:#000000;fill-rule:evenodd;fill-opacity:1;stroke:#000000;stroke-width:0.0px;stroke-linecap:butt;stroke-linejoin:miter;stroke-opacity:1;"/>
<path class="atom-0" d="M 266.6,148.4 L 266.6,148.6 L 266.6,148.7 L 266.6,148.9 L 266.5,149.1 L 266.5,149.2 L 266.4,149.4 L 266.3,149.5 L 266.2,149.7 L 266.1,149.8 L 266.0,149.9 L 265.8,150.0 L 265.7,150.1 L 265.5,150.2 L 265.4,150.3 L 265.2,150.3 L 265.0,150.4 L 264.9,150.4 L 264.7,150.4 L 264.5,150.4 L 264.3,150.4 L 264.2,150.3 L 264.0,150.3 L 263.9,150.2 L 263.7,150.2 L 263.5,150.1 L 263.4,150.0 L 263.3,149.9 L 263.2,149.7 L 263.0,149.6 L 263.0,149.5 L 262.9,149.3 L 262.8,149.1 L 262.7,149.0 L 262.7,148.8 L 262.7,148.6 L 262.6,148.5 L 262.6,148.3 L 262.7,148.1 L 262.7,148.0 L 262.7,147.8 L 262.8,147.6 L 262.9,147.5 L 263.0,147.3 L 263.0,147.2 L 263.2,147.1 L 263.3,146.9 L 263.4,146.8 L 263.5,146.7 L 263.7,146.6 L 263.9,146.6 L 264.0,146.5 L 264.2,146.4 L 264.3,146.4 L 264.5,146.4 L 264.7,146.4 L 264.9,146.4 L 265.0,146.4 L 265.2,146.5 L 265.4,146.5 L 265.5,146.6 L 265.7,146.7 L 265.8,146.8 L 266.0,146.9 L 266.1,147.0 L 266.2,147.1 L 266.3,147.3 L 266.4,147.4 L 266.5,147.6 L 266.5,147.7 L 266.6,147.9 L 266.6,148.0 L 266.6,148.2 L 266.6,148.4 L 264.6,148.4 Z" style="fill:#000000;fill-rule:evenodd;fill-opacity:1;stroke:#000000;stroke-width:0.0px;stroke-linecap:butt;stroke-linejoin:miter;stroke-opacity:1;"/>
<path class="bond-0 atom-0 atom-1" d="M 521.0,140.3 L 614.7,86.2" style="fill:none;fill-rule:evenodd;stroke:#000000;stroke-width:2.0px;stroke-linecap:butt;stroke-linejoin:miter;stroke-opacity:1"/>
<path class="bond-0 atom-0 atom-1" d="M 531.8,159.0 L 625.5,104.9" style="fill:none;fill-rule:evenodd;stroke:#000000;stroke-width:2.0px;stroke-linecap:butt;stroke-linejoin:miter;stroke-opacity:1"/>
<path class="bond-1 atom-1 atom-2" d="M 620.1,95.5 L 700.7,142.1" style="fill:none;fill-rule:evenodd;stroke:#000000;stroke-width:2.0px;stroke-linecap:butt;stroke-linejoin:miter;stroke-opacity:1"/>
<path class="atom-2" d="M 718.0 148.9 Q 720.7 149.7, 722.1 151.4 Q 723.5 153.0, 723.5 155.5 Q 723.5 159.4, 721.0 161.6 Q 718.5 163.8, 713.8 163.8 L 704.2 163.8 L 704.2 135.5 L 712.6 135.5 Q 717.4 135.5, 719.9 137.5 Q 722.3 139.4, 722.3 143.0 Q 722.3 147.3, 718.0 148.9 M 708.0 138.7 L 708.0 147.6 L 712.6 147.6 Q 715.4 147.6, 716.8 146.5 Q 718.3 145.3, 718.3 143.0 Q 718.3 138.7, 712.6 138.7 L 708.0 138.7 M 713.8 160.6 Q 716.5 160.6, 718.0 159.3 Q 719.5 158.0, 719.5 155.5 Q 719.5 153.1, 717.8 152.0 Q 716.2 150.8, 713.2 150.8 L 708.0 150.8 L 708.0 160.6 L 713.8 160.6 " fill="#000000"/>
<path class="atom-2" d="M 728.4 143.3 L 728.8 146.1 Q 731.0 142.9, 734.5 142.9 Q 735.6 142.9, 737.1 143.3 L 736.5 146.7 Q 734.8 146.3, 733.8 146.3 Q 732.2 146.3, 731.0 146.9 Q 730.0 147.6, 729.1 149.1 L 729.1 163.8 L 725.3 163.8 L 725.3 143.3 L 728.4 143.3 " fill="#000000"/>
<path class="atom-0" d="M 516.4,149.7 L 516.4,149.8 L 516.3,150.0 L 516.3,150.2 L 516.3,150.3 L 516.2,150.5 L 516.1,150.7 L 516.0,150.8 L 515.9,150.9 L 515.8,151.1 L 515.7,151.2 L 515.5,151.3 L 515.4,151.4 L 515.3,151.5 L 515.1,151.5 L 514.9,151.6 L 514.8,151.6 L 514.6,151.7 L 514.4,151.7 L 514.2,151.7 L 514.1,151.6 L 513.9,151.6 L 513.7,151.6 L 513.6,151.5 L 513.4,151.4 L 513.3,151.3 L 513.1,151.2 L 513.0,151.1 L 512.9,151.0 L 512.8,150.9 L 512.7,150.7 L 512.6,150.6 L 512.5,150.4 L 512.5,150.3 L 512.4,150.1 L 512.4,149.9 L 512.4,149.8 L 512.4,149.6 L 512.4,149.4 L 512.4,149.2 L 512.5,149.1 L 512.5,148.9 L 512.6,148.8 L 512.7,148.6 L 512.8,148.5 L 512.9,148.3 L 513.0,148.2 L 513.1,148.1 L 513.3,148.0 L 513.4,147.9 L 513.6,147.8 L 513.7,147.8 L 513.9,147.7 L 514.1,147.7 L 514.2,147.7 L 514.4,147.7 L 514.6,147.7 L 514.8,147.7 L 514.9,147.7 L 515.1,147.8 L 515.3,147.9 L 515.4,148.0 L 515.5,148.0 L 515.7,148.2 L 515.8,148.3 L 515.9,148.4 L 516.0,148.5 L 516.1,148.7 L 516.2,148.8 L 516.3,149.0 L 516.3,149.2 L 516.3,149.3 L 516.4,149.5 L 516.4,149.7 L 514.4,149.7 Z" style="fill:#000000;fill-rule:evenodd;fill-opacity:1;stroke:#000000;stroke-width:0.0px;stroke-linecap:butt;stroke-linejoin:miter;stroke-opacity:1;"/>
<path class="bond-0 atom-0 atom-1" d="M 35.1,330.1 L 110.7,373.7" style="fill:none;fill-rule:evenodd;stroke:#000000;stroke-width:2.0px;stroke-linecap:butt;stroke-linejoin:miter;stroke-opacity:1"/>
<path class="bond-1 atom-1 atom-2" d="M 155.7,364.6 L 216.2,329.7" style="fill:none;fill-rule:evenodd;stroke:#000000;stroke-width:2.0px;stroke-linecap:butt;stroke-linejoin:miter;stroke-opacity:1"/>
<path class="atom-0" d="M 14.1 332.3 Q 14.4 332.4, 15.8 333.0 Q 17.1 333.5, 18.5 333.9 Q 20.0 334.2, 21.4 334.2 Q 24.1 334.2, 25.7 332.9 Q 27.2 331.6, 27.2 329.3 Q 27.2 327.8, 26.4 326.8 Q 25.7 325.8, 24.5 325.3 Q 23.3 324.8, 21.3 324.2 Q 18.8 323.4, 17.2 322.7 Q 15.8 322.0, 14.7 320.5 Q 13.6 319.0, 13.6 316.4 Q 13.6 312.8, 16.0 310.6 Q 18.5 308.4, 23.3 308.4 Q 26.6 308.4, 30.3 310.0 L 29.4 313.1 Q 26.0 311.7, 23.4 311.7 Q 20.6 311.7, 19.1 312.8 Q 17.6 314.0, 17.6 315.9 Q 17.6 317.4, 18.4 318.4 Q 19.2 319.3, 20.3 319.8 Q 21.5 320.3, 23.4 320.9 Q 26.0 321.7, 27.5 322.5 Q 29.0 323.3, 30.1 325.0 Q 31.2 326.6, 31.2 329.3 Q 31.2 333.2, 28.6 335.4 Q 26.0 337.4, 21.6 337.4 Q 19.1 337.4, 17.2 336.9 Q 15.3 336.4, 13.0 335.4 L 14.1 332.3 " fill="#000000"/>
<path class="atom-0" d="M 33.1 312.7 L 42.8 312.7 L 42.8 314.8 L 33.1 314.8 L 33.1 312.7 " fill="#000000"/>
<path class="atom-1" d="M 119.1 368.0 L 128.3 383.0 Q 129.3 384.5, 130.7 387.1 Q 132.2 389.8, 132.3 390.0 L 132.3 368.0 L 136.1 368.0 L 136.1 396.3 L 132.2 396.3 L 122.2 379.9 Q 121.1 378.0, 119.8 375.8 Q 118.6 373.6, 118.3 372.9 L 118.3 396.3 L 114.6 396.3 L 114.6 368.0 L 119.1 368.0 " fill="#000000"/>
<path class="atom-1" d="M 139.4 373.1 L 144.4 373.1 L 144.4 367.8 L 146.6 367.8 L 146.6 373.1 L 151.7 373.1 L 151.7 375.0 L 146.6 375.0 L 146.6 380.3 L 144.4 380.3 L 144.4 375.0 L 139.4 375.0 L 139.4 373.1 " fill="#000000"/>
<path class="atom-1" d="M 114.2 399.1 L 118.1 399.1 L 118.1 411.2 L 132.6 411.2 L 132.6 399.1 L 136.4 399.1 L 136.4 427.4 L 132.6 427.4 L 132.6 414.4 L 118.1 414.4 L 118.1 427.4 L 114.2 427.4 L 114.2 399.1 " fill="#000000"/>
<path class="atom-1" d="M 139.9 426.5 Q 140.5 424.7, 142.2 423.7 Q 143.8 422.7, 146.1 422.7 Q 148.9 422.7, 150.5 424.2 Q 152.1 425.8, 152.1 428.5 Q 152.1 431.3, 150.0 433.8 Q 148.0 436.4, 143.8 439.5 L 152.4 439.5 L 152.4 441.6 L 139.8 441.6 L 139.8 439.8 Q 143.3 437.4, 145.4 435.5 Q 147.4 433.7, 148.4 432.0 Q 149.4 430.3, 149.4 428.6 Q 149.4 426.8, 148.5 425.8 Q 147.7 424.8, 146.1 424.8 Q 144.6 424.8, 143.6 425.4 Q 142.6 426.0, 141.9 427.4 L 139.9 426.5 " fill="#000000"/>
<path class="atom-2" d="M 220.1 308.4 L 237.0 308.4 L 237.0 311.6 L 223.9 311.6 L 223.9 320.2 L 235.5 320.2 L 235.5 323.5 L 223.9 323.5 L 223.9 336.7 L 220.1 336.7 L 220.1 308.4 " fill="#000000"/>
<path class="bond-0 atom-0 atom-1" d="M 276.1,374.4 L 292.6,368.0" style="fill:none;fill-rule:evenodd;stroke:#000000;stroke-width:2.0px;stroke-linecap:butt;stroke-linejoin:miter;stroke-opacity:1"/>
<path class="bond-1 atom-1 atom-2" d="M 298.6,369.3 L 314.3,382.1" style="fill:none;fill-rule:evenodd;stroke:#000000;stroke-width:2.0px;stroke-linecap:butt;stroke-linejoin:miter;stroke-opacity:1"/>
<path class="bond-2 atom-2 atom-3" d="M 314.3,382.1 L 336.9,373.5" style="fill:none;fill-rule:evenodd;stroke:#000000;stroke-width:2.0px;stroke-linecap:butt;stroke-linejoin:miter;stroke-opacity:1"/>
<path class="bond-3 atom-3 atom-4" d="M 336.9,373.5 L 355.6,388.7" style="fill:none;fill-rule:evenodd;stroke:#000000;stroke-width:2.0px;stroke-linecap:butt;stroke-linejoin:miter;stroke-opacity:1"/>
<path class="bond-4 atom-4 atom-5" d="M 355.6,388.7 L 374.7,381.3" style="fill:none;fill-rule:evenodd;stroke:#000000;stroke-width:2.0px;stroke-linecap:butt;stroke-linejoin:miter;stroke-opacity:1"/>
<path class="bond-5 atom-5 atom-6" d="M 385.2,377.3 L 397.2,372.7" style="fill:none;fill-rule:evenodd;stroke:#000000;stroke-width:2.0px;stroke-linecap:butt;stroke-linejoin:miter;stroke-opacity:1"/>
<path class="bond-5 atom-5 atom-6" d="M 385.3,372.1 L 393.7,368.9" style="fill:none;fill-rule:evenodd;stroke:#000000;stroke-width:2.0px;stroke-linecap:butt;stroke-linejoin:miter;stroke-opacity:1"/>
<path class="bond-5 atom-5 atom-6" d="M 388.7,381.1 L 397.1,377.9" style="fill:none;fill-rule:evenodd;stroke:#000000;stroke-width:2.0px;stroke-linecap:butt;stroke-linejoin:miter;stroke-opacity:1"/>
<path class="bond-6 atom-6 atom-7" d="M 407.7,368.7 L 420.1,364.0" style="fill:none;fill-rule:evenodd;stroke:#000000;stroke-width:2.0px;stroke-linecap:butt;stroke-linejoin:miter;stroke-opacity:1"/>
<path class="bond-7 atom-7 atom-8" d="M 426.1,365.2 L 438.8,375.6" style="fill:none;fill-rule:evenodd;stroke:#000000;stroke-width:2.0px;stroke-linecap:butt;stroke-linejoin:miter;stroke-opacity:1"/>
<path class="bond-8 atom-8 atom-9" d="M 444.8,376.9 L 460.9,370.7" style="fill:none;fill-rule:evenodd;stroke:#000000;stroke-width:2.0px;stroke-linecap:butt;stroke-linejoin:miter;stroke-opacity:1"/>
<path class="bond-9 atom-9 atom-10" d="M 467.7,372.1 L 479.9,382.1" style="fill:none;fill-rule:evenodd;stroke:#000000;stroke-width:2.0px;stroke-linecap:butt;stroke-linejoin:miter;stroke-opacity:1"/>
<path class="atom-0" d="M 261.4 372.1 L 262.3 372.1 L 262.3 375.0 L 265.8 375.0 L 265.8 372.1 L 266.7 372.1 L 266.7 378.9 L 265.8 378.9 L 265.8 375.8 L 262.3 375.8 L 262.3 378.9 L 261.4 378.9 L 261.4 372.1 " fill="#000000"/>
<path class="atom-0" d="M 267.5 378.7 Q 267.7 378.3, 268.1 378.0 Q 268.5 377.8, 269.0 377.8 Q 269.7 377.8, 270.1 378.1 Q 270.5 378.5, 270.5 379.2 Q 270.5 379.8, 270.0 380.5 Q 269.5 381.1, 268.5 381.8 L 270.6 381.8 L 270.6 382.3 L 267.5 382.3 L 267.5 381.9 Q 268.4 381.3, 268.9 380.9 Q 269.4 380.4, 269.6 380.0 Q 269.8 379.6, 269.8 379.2 Q 269.8 378.8, 269.6 378.5 Q 269.4 378.3, 269.0 378.3 Q 268.7 378.3, 268.4 378.4 Q 268.2 378.6, 268.0 378.9 L 267.5 378.7 " fill="#000000"/>
<path class="atom-0" d="M 273.0 372.1 Q 274.1 372.1, 274.7 372.6 Q 275.3 373.1, 275.3 374.1 Q 275.3 375.0, 274.7 375.6 Q 274.1 376.1, 273.0 376.1 L 271.9 376.1 L 271.9 378.9 L 270.9 378.9 L 270.9 372.1 L 273.0 372.1 M 273.0 375.3 Q 273.6 375.3, 274.0 375.0 Q 274.3 374.7, 274.3 374.1 Q 274.3 373.5, 274.0 373.2 Q 273.6 372.9, 273.0 372.9 L 271.9 372.9 L 271.9 375.3 L 273.0 375.3 " fill="#000000"/>
<path class="atom-1" d="M 293.7 369.2 Q 293.8 369.3, 294.1 369.4 Q 294.4 369.5, 294.8 369.6 Q 295.1 369.7, 295.5 369.7 Q 296.1 369.7, 296.5 369.4 Q 296.9 369.1, 296.9 368.5 Q 296.9 368.2, 296.7 367.9 Q 296.5 367.7, 296.2 367.6 Q 295.9 367.4, 295.4 367.3 Q 294.8 367.1, 294.5 366.9 Q 294.1 366.8, 293.8 366.4 Q 293.6 366.0, 293.6 365.4 Q 293.6 364.6, 294.2 364.0 Q 294.8 363.5, 295.9 363.5 Q 296.7 363.5, 297.6 363.9 L 297.4 364.6 Q 296.6 364.3, 295.9 364.3 Q 295.3 364.3, 294.9 364.6 Q 294.5 364.8, 294.5 365.3 Q 294.5 365.7, 294.7 365.9 Q 294.9 366.1, 295.2 366.2 Q 295.5 366.4, 295.9 366.5 Q 296.6 366.7, 296.9 366.9 Q 297.3 367.1, 297.5 367.5 Q 297.8 367.9, 297.8 368.5 Q 297.8 369.5, 297.2 370.0 Q 296.6 370.5, 295.5 370.5 Q 294.9 370.5, 294.4 370.4 Q 294.0 370.2, 293.4 370.0 L 293.7 369.2 " fill="#000000"/>
<path class="atom-5" d="M 376.6 376.6 L 378.8 380.3 Q 379.0 380.6, 379.4 381.3 Q 379.7 381.9, 379.8 381.9 L 379.8 376.6 L 380.7 376.6 L 380.7 383.5 L 379.7 383.5 L 377.3 379.5 Q 377.0 379.0, 376.7 378.5 Q 376.5 378.0, 376.4 377.8 L 376.4 383.5 L 375.5 383.5 L 375.5 376.6 L 376.6 376.6 " fill="#000000"/>
<path class="atom-5" d="M 381.5 377.9 L 382.7 377.9 L 382.7 376.6 L 383.2 376.6 L 383.2 377.9 L 384.4 377.9 L 384.4 378.3 L 383.2 378.3 L 383.2 379.6 L 382.7 379.6 L 382.7 378.3 L 381.5 378.3 L 381.5 377.9 " fill="#000000"/>
<path class="atom-6" d="M 399.1 368.0 L 401.3 371.6 Q 401.5 372.0, 401.9 372.6 Q 402.2 373.3, 402.3 373.3 L 402.3 368.0 L 403.2 368.0 L 403.2 374.9 L 402.2 374.9 L 399.8 370.9 Q 399.6 370.4, 399.3 369.9 Q 399.0 369.4, 398.9 369.2 L 398.9 374.9 L 398.0 374.9 L 398.0 368.0 L 399.1 368.0 " fill="#000000"/>
<path class="atom-6" d="M 404.0 369.3 L 405.2 369.3 L 405.2 368.0 L 405.7 368.0 L 405.7 369.3 L 406.9 369.3 L 406.9 369.7 L 405.7 369.7 L 405.7 371.0 L 405.2 371.0 L 405.2 369.7 L 404.0 369.7 L 404.0 369.3 " fill="#000000"/>
<path class="atom-7" d="M 421.2 365.2 Q 421.2 365.2, 421.6 365.3 Q 421.9 365.5, 422.2 365.6 Q 422.6 365.6, 422.9 365.6 Q 423.6 365.6, 424.0 365.3 Q 424.3 365.0, 424.3 364.5 Q 424.3 364.1, 424.1 363.8 Q 424.0 363.6, 423.7 363.5 Q 423.4 363.4, 422.9 363.2 Q 422.3 363.0, 421.9 362.9 Q 421.6 362.7, 421.3 362.3 Q 421.1 362.0, 421.1 361.3 Q 421.1 360.5, 421.6 360.0 Q 422.2 359.4, 423.4 359.4 Q 424.2 359.4, 425.1 359.8 L 424.8 360.5 Q 424.0 360.2, 423.4 360.2 Q 422.7 360.2, 422.4 360.5 Q 422.0 360.8, 422.0 361.2 Q 422.0 361.6, 422.2 361.8 Q 422.4 362.0, 422.7 362.2 Q 422.9 362.3, 423.4 362.4 Q 424.0 362.6, 424.4 362.8 Q 424.8 363.0, 425.0 363.4 Q 425.3 363.8, 425.3 364.5 Q 425.3 365.4, 424.6 365.9 Q 424.0 366.4, 423.0 366.4 Q 422.4 366.4, 421.9 366.3 Q 421.4 366.2, 420.9 365.9 L 421.2 365.2 " fill="#000000"/>
<path class="atom-7" d="M 425.7 360.5 L 428.1 360.5 L 428.1 361.0 L 425.7 361.0 L 425.7 360.5 " fill="#000000"/>
<path class="atom-8" d="M 441.6 374.6 Q 442.8 374.6, 443.4 375.1 Q 444.0 375.7, 444.0 376.6 Q 444.0 377.6, 443.4 378.1 Q 442.8 378.6, 441.6 378.6 L 440.6 378.6 L 440.6 381.4 L 439.6 381.4 L 439.6 374.6 L 441.6 374.6 M 441.6 377.9 Q 442.3 377.9, 442.7 377.5 Q 443.0 377.2, 443.0 376.6 Q 443.0 376.0, 442.7 375.7 Q 442.3 375.4, 441.6 375.4 L 440.6 375.4 L 440.6 377.9 L 441.6 377.9 " fill="#000000"/>
<path class="atom-9" d="M 462.8 366.0 L 465.0 369.6 Q 465.3 370.0, 465.6 370.6 Q 466.0 371.3, 466.0 371.3 L 466.0 366.0 L 466.9 366.0 L 466.9 372.8 L 466.0 372.8 L 463.6 368.9 Q 463.3 368.4, 463.0 367.9 Q 462.7 367.3, 462.6 367.2 L 462.6 372.8 L 461.7 372.8 L 461.7 366.0 L 462.8 366.0 " fill="#000000"/>
<path class="atom-9" d="M 461.6 358.5 L 462.6 358.5 L 462.6 361.4 L 466.1 361.4 L 466.1 358.5 L 467.0 358.5 L 467.0 365.3 L 466.1 365.3 L 466.1 362.2 L 462.6 362.2 L 462.6 365.3 L 461.6 365.3 L 461.6 358.5 " fill="#000000"/>
<path class="atom-9" d="M 467.8 365.1 Q 468.0 364.6, 468.4 364.4 Q 468.8 364.2, 469.3 364.2 Q 470.0 364.2, 470.4 364.5 Q 470.8 364.9, 470.8 365.6 Q 470.8 366.2, 470.3 366.8 Q 469.8 367.5, 468.8 368.2 L 470.8 368.2 L 470.8 368.7 L 467.8 368.7 L 467.8 368.3 Q 468.6 367.7, 469.1 367.2 Q 469.6 366.8, 469.9 366.4 Q 470.1 366.0, 470.1 365.6 Q 470.1 365.2, 469.9 364.9 Q 469.7 364.7, 469.3 364.7 Q 469.0 364.7, 468.7 364.8 Q 468.5 365.0, 468.3 365.3 L 467.8 365.1 " fill="#000000"/>
<path class="atom-9" d="M 467.8 359.7 L 469.0 359.7 L 469.0 358.4 L 469.6 358.4 L 469.6 359.7 L 470.8 359.7 L 470.8 360.2 L 469.6 360.2 L 469.6 361.4 L 469.0 361.4 L 469.0 360.2 L 467.8 360.2 L 467.8 359.7 " fill="#000000"/>
<path class="atom-10" d="M 484.0 384.4 Q 484.7 384.6, 485.0 385.0 Q 485.3 385.4, 485.3 386.0 Q 485.3 386.9, 484.7 387.5 Q 484.1 388.0, 483.0 388.0 L 480.7 388.0 L 480.7 381.2 L 482.7 381.2 Q 483.9 381.2, 484.5 381.6 Q 485.1 382.1, 485.1 383.0 Q 485.1 384.0, 484.0 384.4 M 481.6 381.9 L 481.6 384.1 L 482.7 384.1 Q 483.4 384.1, 483.7 383.8 Q 484.1 383.5, 484.1 383.0 Q 484.1 381.9, 482.7 381.9 L 481.6 381.9 M 483.0 387.2 Q 483.7 387.2, 484.0 386.9 Q 484.4 386.6, 484.4 386.0 Q 484.4 385.4, 484.0 385.1 Q 483.6 384.9, 482.9 384.9 L 481.6 384.9 L 481.6 387.2 L 483.0 387.2 " fill="#000000"/>
<path class="atom-10" d="M 486.5 383.0 L 486.6 383.7 Q 487.2 383.0, 488.0 383.0 Q 488.3 383.0, 488.6 383.1 L 488.5 383.9 Q 488.1 383.8, 487.8 383.8 Q 487.4 383.8, 487.2 383.9 Q 486.9 384.1, 486.7 384.5 L 486.7 388.0 L 485.8 388.0 L 485.8 383.0 L 486.5 383.0 " fill="#000000"/>
<path class="atom-3" d="M 338.3,371.3 L 338.3,371.3 L 338.3,371.4 L 338.3,371.4 L 338.3,371.5 L 338.3,371.5 L 338.2,371.5 L 338.2,371.6 L 338.2,371.6 L 338.2,371.6 L 338.1,371.7 L 338.1,371.7 L 338.1,371.7 L 338.0,371.7 L 338.0,371.8 L 337.9,371.8 L 337.9,371.8 L 337.9,371.8 L 337.8,371.8 L 337.8,371.8 L 337.7,371.8 L 337.7,371.8 L 337.7,371.8 L 337.6,371.7 L 337.6,371.7 L 337.6,371.7 L 337.5,371.7 L 337.5,371.7 L 337.5,371.6 L 337.4,371.6 L 337.4,371.6 L 337.4,371.5 L 337.4,371.5 L 337.4,371.4 L 337.3,371.4 L 337.3,371.4 L 337.3,371.3 L 337.3,371.3 L 337.3,371.2 L 337.3,371.2 L 337.4,371.2 L 337.4,371.1 L 337.4,371.1 L 337.4,371.0 L 337.4,371.0 L 337.5,371.0 L 337.5,371.0 L 337.5,370.9 L 337.6,370.9 L 337.6,370.9 L 337.6,370.9 L 337.7,370.8 L 337.7,370.8 L 337.7,370.8 L 337.8,370.8 L 337.8,370.8 L 337.9,370.8 L 337.9,370.8 L 337.9,370.8 L 338.0,370.9 L 338.0,370.9 L 338.1,370.9 L 338.1,370.9 L 338.1,370.9 L 338.2,371.0 L 338.2,371.0 L 338.2,371.0 L 338.2,371.1 L 338.3,371.1 L 338.3,371.1 L 338.3,371.2 L 338.3,371.2 L 338.3,371.3 L 338.3,371.3 L 337.8,371.3 Z" style="fill:#000000;fill-rule:evenodd;fill-opacity:1;stroke:#000000;stroke-width:0.0px;stroke-linecap:butt;stroke-linejoin:miter;stroke-opacity:1;"/>
<path class="atom-3" d="M 336.4,371.3 L 336.4,371.3 L 336.4,371.4 L 336.4,371.4 L 336.3,371.5 L 336.3,371.5 L 336.3,371.5 L 336.3,371.6 L 336.3,371.6 L 336.2,371.6 L 336.2,371.7 L 336.2,371.7 L 336.1,371.7 L 336.1,371.7 L 336.1,371.8 L 336.0,371.8 L 336.0,371.8 L 335.9,371.8 L 335.9,371.8 L 335.9,371.8 L 335.8,371.8 L 335.8,371.8 L 335.7,371.8 L 335.7,371.7 L 335.7,371.7 L 335.6,371.7 L 335.6,371.7 L 335.6,371.7 L 335.5,371.6 L 335.5,371.6 L 335.5,371.6 L 335.5,371.5 L 335.4,371.5 L 335.4,371.4 L 335.4,371.4 L 335.4,371.4 L 335.4,371.3 L 335.4,371.3 L 335.4,371.2 L 335.4,371.2 L 335.4,371.2 L 335.4,371.1 L 335.5,371.1 L 335.5,371.0 L 335.5,371.0 L 335.5,371.0 L 335.6,371.0 L 335.6,370.9 L 335.6,370.9 L 335.7,370.9 L 335.7,370.9 L 335.7,370.8 L 335.8,370.8 L 335.8,370.8 L 335.9,370.8 L 335.9,370.8 L 335.9,370.8 L 336.0,370.8 L 336.0,370.8 L 336.1,370.9 L 336.1,370.9 L 336.1,370.9 L 336.2,370.9 L 336.2,370.9 L 336.2,371.0 L 336.3,371.0 L 336.3,371.0 L 336.3,371.1 L 336.3,371.1 L 336.3,371.1 L 336.4,371.2 L 336.4,371.2 L 336.4,371.3 L 336.4,371.3 L 335.9,371.3 Z" style="fill:#000000;fill-rule:evenodd;fill-opacity:1;stroke:#000000;stroke-width:0.0px;stroke-linecap:butt;stroke-linejoin:miter;stroke-opacity:1;"/>
<path class="atom-4" d="M 356.0,390.8 L 356.0,390.9 L 356.0,390.9 L 356.0,391.0 L 356.0,391.0 L 356.0,391.0 L 356.0,391.1 L 356.0,391.1 L 355.9,391.1 L 355.9,391.2 L 355.9,391.2 L 355.8,391.2 L 355.8,391.2 L 355.8,391.3 L 355.7,391.3 L 355.7,391.3 L 355.7,391.3 L 355.6,391.3 L 355.6,391.3 L 355.5,391.3 L 355.5,391.3 L 355.5,391.3 L 355.4,391.3 L 355.4,391.3 L 355.3,391.3 L 355.3,391.2 L 355.3,391.2 L 355.2,391.2 L 355.2,391.2 L 355.2,391.1 L 355.2,391.1 L 355.1,391.1 L 355.1,391.0 L 355.1,391.0 L 355.1,390.9 L 355.1,390.9 L 355.1,390.9 L 355.1,390.8 L 355.1,390.8 L 355.1,390.7 L 355.1,390.7 L 355.1,390.6 L 355.1,390.6 L 355.2,390.6 L 355.2,390.5 L 355.2,390.5 L 355.2,390.5 L 355.3,390.5 L 355.3,390.4 L 355.3,390.4 L 355.4,390.4 L 355.4,390.4 L 355.5,390.4 L 355.5,390.4 L 355.5,390.4 L 355.6,390.3 L 355.6,390.4 L 355.7,390.4 L 355.7,390.4 L 355.7,390.4 L 355.8,390.4 L 355.8,390.4 L 355.8,390.4 L 355.9,390.5 L 355.9,390.5 L 355.9,390.5 L 356.0,390.6 L 356.0,390.6 L 356.0,390.6 L 356.0,390.7 L 356.0,390.7 L 356.0,390.7 L 356.0,390.8 L 356.0,390.8 L 355.6,390.8 Z" style="fill:#000000;fill-rule:evenodd;fill-opacity:1;stroke:#000000;stroke-width:0.0px;stroke-linecap:butt;stroke-linejoin:miter;stroke-opacity:1;"/>
<path class="atom-7" d="M 430.0,362.8 L 430.0,362.9 L 430.0,362.9 L 430.0,362.9 L 430.0,363.0 L 430.0,363.0 L 429.9,363.1 L 429.9,363.1 L 429.9,363.1 L 429.9,363.2 L 429.8,363.2 L 429.8,363.2 L 429.8,363.2 L 429.7,363.3 L 429.7,363.3 L 429.7,363.3 L 429.6,363.3 L 429.6,363.3 L 429.5,363.3 L 429.5,363.3 L 429.4,363.3 L 429.4,363.3 L 429.4,363.3 L 429.3,363.3 L 429.3,363.3 L 429.3,363.2 L 429.2,363.2 L 429.2,363.2 L 429.2,363.1 L 429.1,363.1 L 429.1,363.1 L 429.1,363.0 L 429.1,363.0 L 429.1,363.0 L 429.0,362.9 L 429.0,362.9 L 429.0,362.8 L 429.0,362.8 L 429.0,362.8 L 429.0,362.7 L 429.1,362.7 L 429.1,362.6 L 429.1,362.6 L 429.1,362.6 L 429.1,362.5 L 429.2,362.5 L 429.2,362.5 L 429.2,362.4 L 429.3,362.4 L 429.3,362.4 L 429.3,362.4 L 429.4,362.4 L 429.4,362.4 L 429.4,362.3 L 429.5,362.3 L 429.5,362.3 L 429.6,362.3 L 429.6,362.4 L 429.7,362.4 L 429.7,362.4 L 429.7,362.4 L 429.8,362.4 L 429.8,362.4 L 429.8,362.5 L 429.9,362.5 L 429.9,362.5 L 429.9,362.6 L 429.9,362.6 L 430.0,362.6 L 430.0,362.7 L 430.0,362.7 L 430.0,362.7 L 430.0,362.8 L 430.0,362.8 L 429.5,362.8 Z" style="fill:#000000;fill-rule:evenodd;fill-opacity:1;stroke:#000000;stroke-width:0.0px;stroke-linecap:butt;stroke-linejoin:miter;stroke-opacity:1;"/>
<path class="atom-8" d="M 445.9,378.0 L 445.9,378.1 L 445.9,378.1 L 445.9,378.1 L 445.9,378.2 L 445.9,378.2 L 445.9,378.3 L 445.8,378.3 L 445.8,378.3 L 445.8,378.4 L 445.7,378.4 L 445.7,378.4 L 445.7,378.4 L 445.6,378.4 L 445.6,378.5 L 445.6,378.5 L 445.5,378.5 L 445.5,378.5 L 445.4,378.5 L 445.4,378.5 L 445.4,378.5 L 445.3,378.5 L 445.3,378.5 L 445.2,378.5 L 445.2,378.4 L 445.2,378.4 L 445.1,378.4 L 445.1,378.4 L 445.1,378.3 L 445.0,378.3 L 445.0,378.3 L 445.0,378.2 L 445.0,378.2 L 445.0,378.2 L 445.0,378.1 L 445.0,378.1 L 445.0,378.0 L 445.0,378.0 L 445.0,378.0 L 445.0,377.9 L 445.0,377.9 L 445.0,377.8 L 445.0,377.8 L 445.0,377.8 L 445.0,377.7 L 445.1,377.7 L 445.1,377.7 L 445.1,377.6 L 445.2,377.6 L 445.2,377.6 L 445.2,377.6 L 445.3,377.6 L 445.3,377.5 L 445.4,377.5 L 445.4,377.5 L 445.4,377.5 L 445.5,377.5 L 445.5,377.5 L 445.6,377.6 L 445.6,377.6 L 445.6,377.6 L 445.7,377.6 L 445.7,377.6 L 445.7,377.6 L 445.8,377.7 L 445.8,377.7 L 445.8,377.7 L 445.9,377.8 L 445.9,377.8 L 445.9,377.9 L 445.9,377.9 L 445.9,377.9 L 445.9,378.0 L 445.9,378.0 L 445.4,378.0 Z" style="fill:#000000;fill-rule:evenodd;fill-opacity:1;stroke:#000000;stroke-width:0.0px;stroke-linecap:butt;stroke-linejoin:miter;stroke-opacity:1;"/>
<path class="bond-0 atom-0 atom-1" d="M 593.6,374.9 L 689.0,374.9" style="fill:none;fill-rule:evenodd;stroke:#000000;stroke-width:2.0px;stroke-linecap:butt;stroke-linejoin:miter;stroke-opacity:1"/>
<path class="atom-0" d="M 531.1 360.7 L 534.9 360.7 L 534.9 372.7 L 549.4 372.7 L 549.4 360.7 L 553.3 360.7 L 553.3 389.0 L 549.4 389.0 L 549.4 375.9 L 534.9 375.9 L 534.9 389.0 L 531.1 389.0 L 531.1 360.7 " fill="#000000"/>
<path class="atom-0" d="M 557.7 384.6 Q 558.1 384.7, 559.4 385.3 Q 560.7 385.9, 562.1 386.2 Q 563.6 386.5, 565.1 386.5 Q 567.7 386.5, 569.3 385.3 Q 570.9 383.9, 570.9 381.7 Q 570.9 380.1, 570.1 379.1 Q 569.3 378.2, 568.1 377.7 Q 566.9 377.1, 564.9 376.5 Q 562.4 375.8, 560.9 375.1 Q 559.4 374.3, 558.3 372.8 Q 557.3 371.3, 557.3 368.7 Q 557.3 365.2, 559.7 363.0 Q 562.1 360.8, 566.9 360.8 Q 570.2 360.8, 573.9 362.3 L 573.0 365.4 Q 569.6 364.0, 567.0 364.0 Q 564.3 364.0, 562.7 365.2 Q 561.2 366.3, 561.3 368.3 Q 561.3 369.8, 562.0 370.7 Q 562.8 371.6, 563.9 372.1 Q 565.1 372.7, 567.0 373.3 Q 569.6 374.1, 571.1 374.9 Q 572.6 375.7, 573.7 377.3 Q 574.8 378.9, 574.8 381.7 Q 574.8 385.6, 572.2 387.7 Q 569.6 389.8, 565.2 389.8 Q 562.7 389.8, 560.8 389.2 Q 558.9 388.7, 556.7 387.8 L 557.7 384.6 " fill="#000000"/>
<path class="atom-0" d="M 576.7 365.5 L 581.7 365.5 L 581.7 360.2 L 583.9 360.2 L 583.9 365.5 L 589.0 365.5 L 589.0 367.4 L 583.9 367.4 L 583.9 372.7 L 581.7 372.7 L 581.7 367.4 L 576.7 367.4 L 576.7 365.5 " fill="#000000"/>
<path class="atom-1" d="M 707.3 374.1 Q 710.0 374.9, 711.4 376.6 Q 712.8 378.2, 712.8 380.7 Q 712.8 384.6, 710.2 386.8 Q 707.8 389.0, 703.0 389.0 L 693.5 389.0 L 693.5 360.7 L 701.9 360.7 Q 706.7 360.7, 709.2 362.7 Q 711.6 364.6, 711.6 368.2 Q 711.6 372.5, 707.3 374.1 M 697.3 363.9 L 697.3 372.8 L 701.9 372.8 Q 704.7 372.8, 706.1 371.7 Q 707.6 370.5, 707.6 368.2 Q 707.6 363.9, 701.9 363.9 L 697.3 363.9 M 703.0 385.8 Q 705.8 385.8, 707.3 384.5 Q 708.8 383.2, 708.8 380.7 Q 708.8 378.3, 707.1 377.2 Q 705.5 376.0, 702.4 376.0 L 697.3 376.0 L 697.3 385.8 L 703.0 385.8 " fill="#000000"/>
<path class="atom-1" d="M 717.6 368.5 L 718.1 371.3 Q 720.2 368.1, 723.8 368.1 Q 724.9 368.1, 726.4 368.5 L 725.8 371.9 Q 724.1 371.5, 723.1 371.5 Q 721.4 371.5, 720.3 372.1 Q 719.2 372.8, 718.4 374.3 L 718.4 389.0 L 714.6 389.0 L 714.6 368.5 L 717.6 368.5 " fill="#000000"/>
<path class="atom-0" d="M 527.1,374.9 L 527.1,375.0 L 527.1,375.2 L 527.0,375.4 L 527.0,375.5 L 526.9,375.7 L 526.8,375.9 L 526.7,376.0 L 526.6,376.1 L 526.5,376.3 L 526.4,376.4 L 526.3,376.5 L 526.1,376.6 L 526.0,376.7 L 525.8,376.7 L 525.6,376.8 L 525.5,376.8 L 525.3,376.9 L 525.1,376.9 L 525.0,376.9 L 524.8,376.8 L 524.6,376.8 L 524.5,376.8 L 524.3,376.7 L 524.1,376.6 L 524.0,376.5 L 523.9,376.4 L 523.7,376.3 L 523.6,376.2 L 523.5,376.1 L 523.4,375.9 L 523.3,375.8 L 523.2,375.6 L 523.2,375.5 L 523.1,375.3 L 523.1,375.1 L 523.1,375.0 L 523.1,374.8 L 523.1,374.6 L 523.1,374.4 L 523.2,374.3 L 523.2,374.1 L 523.3,374.0 L 523.4,373.8 L 523.5,373.7 L 523.6,373.5 L 523.7,373.4 L 523.9,373.3 L 524.0,373.2 L 524.1,373.1 L 524.3,373.0 L 524.5,373.0 L 524.6,372.9 L 524.8,372.9 L 525.0,372.9 L 525.1,372.9 L 525.3,372.9 L 525.5,372.9 L 525.6,372.9 L 525.8,373.0 L 526.0,373.1 L 526.1,373.1 L 526.3,373.2 L 526.4,373.3 L 526.5,373.5 L 526.6,373.6 L 526.7,373.7 L 526.8,373.9 L 526.9,374.0 L 527.0,374.2 L 527.0,374.4 L 527.1,374.5 L 527.1,374.7 L 527.1,374.9 L 525.1,374.9 Z" style="fill:#000000;fill-rule:evenodd;fill-opacity:1;stroke:#000000;stroke-width:0.0px;stroke-linecap:butt;stroke-linejoin:miter;stroke-opacity:1;"/>
<path class="bond-0 atom-0 atom-1" d="M 235.9,590.0 L 230.8,609.5" style="fill:none;fill-rule:evenodd;stroke:#000000;stroke-width:2.0px;stroke-linecap:butt;stroke-linejoin:miter;stroke-opacity:1"/>
<path class="bond-1 atom-1 atom-2" d="M 230.8,609.5 L 216.7,613.3" style="fill:none;fill-rule:evenodd;stroke:#000000;stroke-width:2.0px;stroke-linecap:butt;stroke-linejoin:miter;stroke-opacity:1"/>
<path class="bond-2 atom-2 atom-3" d="M 210.4,618.5 L 206.2,634.3" style="fill:none;fill-rule:evenodd;stroke:#000000;stroke-width:2.0px;stroke-linecap:butt;stroke-linejoin:miter;stroke-opacity:1"/>
<path class="bond-3 atom-3 atom-4" d="M 206.2,634.3 L 189.3,638.9" style="fill:none;fill-rule:evenodd;stroke:#000000;stroke-width:2.0px;stroke-linecap:butt;stroke-linejoin:miter;stroke-opacity:1"/>
<path class="bond-4 atom-4 atom-5" d="M 185.7,643.7 L 184.7,655.3 L 180.8,654.3 Z" style="fill:#000000;fill-rule:evenodd;fill-opacity:1;stroke:#000000;stroke-width:1.0px;stroke-linecap:butt;stroke-linejoin:miter;stroke-opacity:1;"/>
<path class="bond-5 atom-4 atom-6" d="M 183.9,636.7 L 175.3,628.2" style="fill:none;fill-rule:evenodd;stroke:#000000;stroke-width:2.0px;stroke-linecap:butt;stroke-linejoin:miter;stroke-opacity:1"/>
<path class="bond-6 atom-6 atom-7" d="M 169.7,626.1 L 159.0,629.0" style="fill:none;fill-rule:evenodd;stroke:#000000;stroke-width:2.0px;stroke-linecap:butt;stroke-linejoin:miter;stroke-opacity:1"/>
<path class="bond-7 atom-7 atom-8" d="M 150.2,631.4 L 136.1,635.3" style="fill:none;fill-rule:evenodd;stroke:#000000;stroke-width:2.0px;stroke-linecap:butt;stroke-linejoin:miter;stroke-opacity:1"/>
<path class="bond-7 atom-7 atom-8" d="M 149.2,635.9 L 139.3,638.6" style="fill:none;fill-rule:evenodd;stroke:#000000;stroke-width:2.0px;stroke-linecap:butt;stroke-linejoin:miter;stroke-opacity:1"/>
<path class="bond-7 atom-7 atom-8" d="M 147.1,628.1 L 137.2,630.8" style="fill:none;fill-rule:evenodd;stroke:#000000;stroke-width:2.0px;stroke-linecap:butt;stroke-linejoin:miter;stroke-opacity:1"/>
<path class="bond-8 atom-8 atom-9" d="M 131.2,636.6 L 116.7,640.5" style="fill:none;fill-rule:evenodd;stroke:#000000;stroke-width:2.0px;stroke-linecap:butt;stroke-linejoin:miter;stroke-opacity:1"/>
<path class="bond-9 atom-9 atom-10" d="M 111.7,638.8 L 102.4,629.5" style="fill:none;fill-rule:evenodd;stroke:#000000;stroke-width:2.0px;stroke-linecap:butt;stroke-linejoin:miter;stroke-opacity:1"/>
<path class="bond-10 atom-10 atom-11" d="M 97.4,627.7 L 86.5,630.7" style="fill:none;fill-rule:evenodd;stroke:#000000;stroke-width:2.0px;stroke-linecap:butt;stroke-linejoin:miter;stroke-opacity:1"/>
<path class="bond-11 atom-11 atom-12" d="M 77.7,629.5 L 68.7,620.6" style="fill:none;fill-rule:evenodd;stroke:#000000;stroke-width:2.0px;stroke-linecap:butt;stroke-linejoin:miter;stroke-opacity:1"/>
<path class="bond-12 atom-12 atom-13" d="M 63.7,618.8 L 52.1,622.0" style="fill:none;fill-rule:evenodd;stroke:#000000;stroke-width:2.0px;stroke-linecap:butt;stroke-linejoin:miter;stroke-opacity:1"/>
<path class="bond-12 atom-12 atom-13" d="M 63.0,623.2 L 54.9,625.4" style="fill:none;fill-rule:evenodd;stroke:#000000;stroke-width:2.0px;stroke-linecap:butt;stroke-linejoin:miter;stroke-opacity:1"/>
<path class="bond-13 atom-13 atom-14" d="M 44.3,621.0 L 35.3,612.1" style="fill:none;fill-rule:evenodd;stroke:#000000;stroke-width:2.0px;stroke-linecap:butt;stroke-linejoin:miter;stroke-opacity:1"/>
<path class="bond-14 atom-14 atom-15" d="M 29.7,610.0 L 15.4,613.9" style="fill:none;fill-rule:evenodd;stroke:#000000;stroke-width:2.0px;stroke-linecap:butt;stroke-linejoin:miter;stroke-opacity:1"/>
<path class="atom-2" d="M 209.7 616.8 Q 209.8 616.8, 210.1 616.9 Q 210.3 617.0, 210.6 617.1 Q 210.9 617.1, 211.2 617.1 Q 211.8 617.1, 212.1 616.9 Q 212.4 616.6, 212.4 616.2 Q 212.4 615.8, 212.2 615.6 Q 212.1 615.5, 211.8 615.4 Q 211.6 615.2, 211.2 615.1 Q 210.7 615.0, 210.4 614.8 Q 210.1 614.7, 209.9 614.4 Q 209.6 614.1, 209.6 613.6 Q 209.6 612.8, 210.1 612.4 Q 210.6 612.0, 211.6 612.0 Q 212.2 612.0, 213.0 612.3 L 212.8 612.9 Q 212.1 612.6, 211.6 612.6 Q 211.1 612.6, 210.8 612.8 Q 210.4 613.1, 210.5 613.5 Q 210.5 613.8, 210.6 613.9 Q 210.8 614.1, 211.0 614.2 Q 211.2 614.3, 211.6 614.5 Q 212.1 614.6, 212.4 614.8 Q 212.7 614.9, 213.0 615.3 Q 213.2 615.6, 213.2 616.2 Q 213.2 616.9, 212.7 617.4 Q 212.1 617.8, 211.3 617.8 Q 210.7 617.8, 210.4 617.7 Q 210.0 617.6, 209.5 617.4 L 209.7 616.8 " fill="#000000"/>
<path class="atom-2" d="M 213.6 612.9 L 214.6 612.9 L 214.6 611.8 L 215.0 611.8 L 215.0 612.9 L 216.0 612.9 L 216.0 613.3 L 215.0 613.3 L 215.0 614.3 L 214.6 614.3 L 214.6 613.3 L 213.6 613.3 L 213.6 612.9 " fill="#000000"/>
<path class="atom-4" d="M 186.7 636.7 Q 187.6 636.7, 188.1 637.1 Q 188.6 637.6, 188.6 638.4 Q 188.6 639.2, 188.1 639.6 Q 187.6 640.1, 186.7 640.1 L 185.7 640.1 L 185.7 642.4 L 185.0 642.4 L 185.0 636.7 L 186.7 636.7 M 186.7 639.4 Q 187.2 639.4, 187.5 639.1 Q 187.8 638.9, 187.8 638.4 Q 187.8 637.9, 187.5 637.6 Q 187.2 637.3, 186.7 637.3 L 185.7 637.3 L 185.7 639.4 L 186.7 639.4 " fill="#000000"/>
<path class="atom-4" d="M 184.6 630.4 L 185.3 630.4 L 185.3 632.8 L 188.2 632.8 L 188.2 630.4 L 189.0 630.4 L 189.0 636.1 L 188.2 636.1 L 188.2 633.5 L 185.3 633.5 L 185.3 636.1 L 184.6 636.1 L 184.6 630.4 " fill="#000000"/>
<path class="atom-5" d="M 179.5 659.0 Q 179.5 657.6, 180.1 656.9 Q 180.8 656.1, 182.0 656.1 Q 183.2 656.1, 183.9 657.0 L 183.3 657.4 Q 182.9 656.8, 182.0 656.8 Q 181.2 656.8, 180.7 657.4 Q 180.3 657.9, 180.3 659.0 Q 180.3 660.2, 180.7 660.7 Q 181.2 661.3, 182.1 661.3 Q 182.8 661.3, 183.5 660.9 L 183.7 661.6 Q 183.4 661.7, 183.0 661.9 Q 182.5 662.0, 182.0 662.0 Q 180.8 662.0, 180.1 661.2 Q 179.5 660.5, 179.5 659.0 " fill="#000000"/>
<path class="atom-5" d="M 184.2 657.1 L 186.1 657.1 L 186.1 657.5 L 184.2 657.5 L 184.2 657.1 " fill="#000000"/>
<path class="atom-6" d="M 171.2 622.5 L 173.1 625.5 Q 173.3 625.8, 173.6 626.4 Q 173.9 626.9, 173.9 626.9 L 173.9 622.5 L 174.7 622.5 L 174.7 628.2 L 173.9 628.2 L 171.9 624.9 Q 171.6 624.5, 171.4 624.1 Q 171.2 623.6, 171.1 623.5 L 171.1 628.2 L 170.3 628.2 L 170.3 622.5 L 171.2 622.5 " fill="#000000"/>
<path class="atom-6" d="M 175.3 623.5 L 176.3 623.5 L 176.3 622.5 L 176.8 622.5 L 176.8 623.5 L 177.8 623.5 L 177.8 623.9 L 176.8 623.9 L 176.8 625.0 L 176.3 625.0 L 176.3 623.9 L 175.3 623.9 L 175.3 623.5 " fill="#000000"/>
<path class="atom-7" d="M 151.8 627.8 L 153.7 630.8 Q 153.9 631.1, 154.2 631.7 Q 154.5 632.2, 154.5 632.2 L 154.5 627.8 L 155.2 627.8 L 155.2 633.5 L 154.5 633.5 L 152.4 630.2 Q 152.2 629.8, 152.0 629.4 Q 151.7 628.9, 151.7 628.8 L 151.7 633.5 L 150.9 633.5 L 150.9 627.8 L 151.8 627.8 " fill="#000000"/>
<path class="atom-7" d="M 155.9 628.8 L 156.9 628.8 L 156.9 627.8 L 157.4 627.8 L 157.4 628.8 L 158.4 628.8 L 158.4 629.2 L 157.4 629.2 L 157.4 630.3 L 156.9 630.3 L 156.9 629.2 L 155.9 629.2 L 155.9 628.8 " fill="#000000"/>
<path class="atom-8" d="M 133.5 633.1 Q 134.5 633.1, 135.0 633.5 Q 135.5 634.0, 135.5 634.8 Q 135.5 635.6, 135.0 636.0 Q 134.5 636.4, 133.5 636.4 L 132.6 636.4 L 132.6 638.8 L 131.8 638.8 L 131.8 633.1 L 133.5 633.1 M 133.5 635.8 Q 134.1 635.8, 134.4 635.5 Q 134.7 635.3, 134.7 634.8 Q 134.7 634.3, 134.4 634.0 Q 134.1 633.7, 133.5 633.7 L 132.6 633.7 L 132.6 635.8 L 133.5 635.8 " fill="#000000"/>
<path class="atom-9" d="M 112.6 643.2 Q 112.7 643.2, 112.9 643.3 Q 113.2 643.4, 113.5 643.5 Q 113.8 643.6, 114.1 643.6 Q 114.6 643.6, 114.9 643.3 Q 115.2 643.0, 115.2 642.6 Q 115.2 642.3, 115.1 642.1 Q 114.9 641.9, 114.7 641.8 Q 114.5 641.7, 114.0 641.6 Q 113.5 641.4, 113.2 641.3 Q 112.9 641.1, 112.7 640.8 Q 112.5 640.5, 112.5 640.0 Q 112.5 639.3, 113.0 638.8 Q 113.5 638.4, 114.5 638.4 Q 115.1 638.4, 115.9 638.7 L 115.7 639.3 Q 115.0 639.0, 114.5 639.0 Q 113.9 639.0, 113.6 639.3 Q 113.3 639.5, 113.3 639.9 Q 113.3 640.2, 113.5 640.4 Q 113.6 640.6, 113.9 640.7 Q 114.1 640.8, 114.5 640.9 Q 115.0 641.1, 115.3 641.2 Q 115.6 641.4, 115.8 641.7 Q 116.0 642.0, 116.0 642.6 Q 116.0 643.4, 115.5 643.8 Q 115.0 644.2, 114.1 644.2 Q 113.6 644.2, 113.2 644.1 Q 112.8 644.0, 112.4 643.8 L 112.6 643.2 " fill="#000000"/>
<path class="atom-10" d="M 99.8 624.2 Q 100.8 624.2, 101.3 624.6 Q 101.7 625.1, 101.7 625.9 Q 101.7 626.7, 101.2 627.1 Q 100.7 627.6, 99.8 627.6 L 98.9 627.6 L 98.9 629.9 L 98.1 629.9 L 98.1 624.2 L 99.8 624.2 M 99.8 626.9 Q 100.3 626.9, 100.6 626.6 Q 100.9 626.4, 100.9 625.9 Q 100.9 625.4, 100.6 625.1 Q 100.4 624.8, 99.8 624.8 L 98.9 624.8 L 98.9 626.9 L 99.8 626.9 " fill="#000000"/>
<path class="atom-10" d="M 97.7 617.9 L 98.5 617.9 L 98.5 620.3 L 101.4 620.3 L 101.4 617.9 L 102.2 617.9 L 102.2 623.6 L 101.4 623.6 L 101.4 621.0 L 98.5 621.0 L 98.5 623.6 L 97.7 623.6 L 97.7 617.9 " fill="#000000"/>
<path class="atom-10" d="M 102.8 618.9 L 103.8 618.9 L 103.8 617.9 L 104.3 617.9 L 104.3 618.9 L 105.3 618.9 L 105.3 619.3 L 104.3 619.3 L 104.3 620.4 L 103.8 620.4 L 103.8 619.3 L 102.8 619.3 L 102.8 618.9 " fill="#000000"/>
<path class="atom-11" d="M 79.2 629.5 L 81.1 632.5 Q 81.3 632.8, 81.6 633.3 Q 81.9 633.9, 81.9 633.9 L 81.9 629.5 L 82.7 629.5 L 82.7 635.2 L 81.9 635.2 L 79.9 631.9 Q 79.6 631.5, 79.4 631.0 Q 79.1 630.6, 79.1 630.5 L 79.1 635.2 L 78.3 635.2 L 78.3 629.5 L 79.2 629.5 " fill="#000000"/>
<path class="atom-11" d="M 83.3 630.5 L 84.3 630.5 L 84.3 629.4 L 84.8 629.4 L 84.8 630.5 L 85.8 630.5 L 85.8 630.9 L 84.8 630.9 L 84.8 632.0 L 84.3 632.0 L 84.3 630.9 L 83.3 630.9 L 83.3 630.5 " fill="#000000"/>
<path class="atom-11" d="M 78.3 635.8 L 79.0 635.8 L 79.0 638.2 L 82.0 638.2 L 82.0 635.8 L 82.7 635.8 L 82.7 641.5 L 82.0 641.5 L 82.0 638.8 L 79.0 638.8 L 79.0 641.5 L 78.3 641.5 L 78.3 635.8 " fill="#000000"/>
<path class="atom-11" d="M 83.4 641.3 Q 83.6 640.9, 83.9 640.7 Q 84.2 640.5, 84.7 640.5 Q 85.2 640.5, 85.6 640.8 Q 85.9 641.1, 85.9 641.7 Q 85.9 642.2, 85.5 642.7 Q 85.1 643.3, 84.2 643.9 L 85.9 643.9 L 85.9 644.3 L 83.4 644.3 L 83.4 643.9 Q 84.1 643.4, 84.5 643.1 Q 84.9 642.7, 85.2 642.4 Q 85.4 642.0, 85.4 641.7 Q 85.4 641.3, 85.2 641.1 Q 85.0 640.9, 84.7 640.9 Q 84.4 640.9, 84.2 641.0 Q 84.0 641.2, 83.8 641.4 L 83.4 641.3 " fill="#000000"/>
<path class="atom-12" d="M 66.1 615.3 Q 67.0 615.3, 67.5 615.7 Q 68.0 616.2, 68.0 617.0 Q 68.0 617.8, 67.5 618.2 Q 67.0 618.7, 66.1 618.7 L 65.2 618.7 L 65.2 621.0 L 64.4 621.0 L 64.4 615.3 L 66.1 615.3 M 66.1 618.0 Q 66.6 618.0, 66.9 617.7 Q 67.2 617.5, 67.2 617.0 Q 67.2 616.5, 66.9 616.2 Q 66.6 615.9, 66.1 615.9 L 65.2 615.9 L 65.2 618.0 L 66.1 618.0 " fill="#000000"/>
<path class="atom-12" d="M 68.4 616.3 L 69.4 616.3 L 69.4 615.3 L 69.9 615.3 L 69.9 616.3 L 70.9 616.3 L 70.9 616.7 L 69.9 616.7 L 69.9 617.8 L 69.4 617.8 L 69.4 616.7 L 68.4 616.7 L 68.4 616.3 " fill="#000000"/>
<path class="atom-13" d="M 45.2 625.4 Q 45.2 625.4, 45.5 625.5 Q 45.8 625.6, 46.1 625.7 Q 46.4 625.8, 46.6 625.8 Q 47.2 625.8, 47.5 625.5 Q 47.8 625.3, 47.8 624.8 Q 47.8 624.5, 47.6 624.3 Q 47.5 624.1, 47.3 624.0 Q 47.0 623.9, 46.6 623.8 Q 46.1 623.6, 45.8 623.5 Q 45.5 623.3, 45.3 623.0 Q 45.1 622.7, 45.1 622.2 Q 45.1 621.5, 45.6 621.0 Q 46.0 620.6, 47.0 620.6 Q 47.7 620.6, 48.4 620.9 L 48.2 621.5 Q 47.6 621.2, 47.0 621.2 Q 46.5 621.2, 46.2 621.5 Q 45.9 621.7, 45.9 622.1 Q 45.9 622.4, 46.0 622.6 Q 46.2 622.8, 46.4 622.9 Q 46.6 623.0, 47.0 623.1 Q 47.6 623.3, 47.9 623.4 Q 48.2 623.6, 48.4 623.9 Q 48.6 624.2, 48.6 624.8 Q 48.6 625.6, 48.1 626.0 Q 47.6 626.4, 46.7 626.4 Q 46.2 626.4, 45.8 626.3 Q 45.4 626.2, 45.0 626.0 L 45.2 625.4 " fill="#000000"/>
<path class="atom-13" d="M 49.0 621.5 L 50.0 621.5 L 50.0 620.5 L 50.4 620.5 L 50.4 621.5 L 51.5 621.5 L 51.5 621.9 L 50.4 621.9 L 50.4 623.0 L 50.0 623.0 L 50.0 621.9 L 49.0 621.9 L 49.0 621.5 " fill="#000000"/>
<path class="atom-14" d="M 31.2 606.4 L 33.1 609.4 Q 33.3 609.7, 33.6 610.3 Q 33.9 610.8, 33.9 610.8 L 33.9 606.4 L 34.6 606.4 L 34.6 612.1 L 33.9 612.1 L 31.9 608.8 Q 31.6 608.4, 31.4 608.0 Q 31.1 607.5, 31.1 607.4 L 31.1 612.1 L 30.3 612.1 L 30.3 606.4 L 31.2 606.4 " fill="#000000"/>
<path class="atom-14" d="M 35.3 607.3 L 37.3 607.3 L 37.3 607.8 L 35.3 607.8 L 35.3 607.3 " fill="#000000"/>
<path class="atom-15" d="M 11.4 611.7 L 14.8 611.7 L 14.8 612.3 L 12.1 612.3 L 12.1 614.1 L 14.5 614.1 L 14.5 614.7 L 12.1 614.7 L 12.1 617.4 L 11.4 617.4 L 11.4 611.7 " fill="#000000"/>
<path class="atom-0" d="M 238.7,588.0 L 238.7,588.1 L 238.7,588.1 L 238.7,588.1 L 238.7,588.2 L 238.7,588.2 L 238.7,588.2 L 238.7,588.3 L 238.6,588.3 L 238.6,588.3 L 238.6,588.3 L 238.6,588.4 L 238.5,588.4 L 238.5,588.4 L 238.5,588.4 L 238.4,588.4 L 238.4,588.4 L 238.4,588.4 L 238.3,588.4 L 238.3,588.4 L 238.3,588.4 L 238.2,588.4 L 238.2,588.4 L 238.2,588.4 L 238.1,588.4 L 238.1,588.4 L 238.1,588.3 L 238.1,588.3 L 238.0,588.3 L 238.0,588.3 L 238.0,588.2 L 238.0,588.2 L 238.0,588.2 L 237.9,588.1 L 237.9,588.1 L 237.9,588.1 L 237.9,588.0 L 237.9,588.0 L 237.9,588.0 L 237.9,587.9 L 237.9,587.9 L 238.0,587.9 L 238.0,587.8 L 238.0,587.8 L 238.0,587.8 L 238.0,587.8 L 238.1,587.7 L 238.1,587.7 L 238.1,587.7 L 238.1,587.7 L 238.2,587.7 L 238.2,587.6 L 238.2,587.6 L 238.3,587.6 L 238.3,587.6 L 238.3,587.6 L 238.4,587.6 L 238.4,587.6 L 238.4,587.6 L 238.5,587.7 L 238.5,587.7 L 238.5,587.7 L 238.6,587.7 L 238.6,587.7 L 238.6,587.7 L 238.6,587.8 L 238.7,587.8 L 238.7,587.8 L 238.7,587.9 L 238.7,587.9 L 238.7,587.9 L 238.7,588.0 L 238.7,588.0 L 238.7,588.0 L 238.3,588.0 Z" style="fill:#000000;fill-rule:evenodd;fill-opacity:1;stroke:#000000;stroke-width:0.0px;stroke-linecap:butt;stroke-linejoin:miter;stroke-opacity:1;"/>
<path class="atom-0" d="M 238.7,592.1 L 238.7,592.1 L 238.7,592.1 L 238.7,592.2 L 238.7,592.2 L 238.7,592.2 L 238.7,592.3 L 238.7,592.3 L 238.6,592.3 L 238.6,592.3 L 238.6,592.4 L 238.6,592.4 L 238.5,592.4 L 238.5,592.4 L 238.5,592.4 L 238.4,592.4 L 238.4,592.4 L 238.4,592.5 L 238.3,592.5 L 238.3,592.5 L 238.3,592.5 L 238.2,592.4 L 238.2,592.4 L 238.2,592.4 L 238.1,592.4 L 238.1,592.4 L 238.1,592.4 L 238.1,592.3 L 238.0,592.3 L 238.0,592.3 L 238.0,592.3 L 238.0,592.2 L 238.0,592.2 L 237.9,592.2 L 237.9,592.1 L 237.9,592.1 L 237.9,592.1 L 237.9,592.0 L 237.9,592.0 L 237.9,592.0 L 237.9,591.9 L 238.0,591.9 L 238.0,591.9 L 238.0,591.8 L 238.0,591.8 L 238.0,591.8 L 238.1,591.8 L 238.1,591.7 L 238.1,591.7 L 238.1,591.7 L 238.2,591.7 L 238.2,591.7 L 238.2,591.7 L 238.3,591.7 L 238.3,591.7 L 238.3,591.7 L 238.4,591.7 L 238.4,591.7 L 238.4,591.7 L 238.5,591.7 L 238.5,591.7 L 238.5,591.7 L 238.6,591.7 L 238.6,591.7 L 238.6,591.8 L 238.6,591.8 L 238.7,591.8 L 238.7,591.9 L 238.7,591.9 L 238.7,591.9 L 238.7,592.0 L 238.7,592.0 L 238.7,592.0 L 238.7,592.1 L 238.3,592.1 Z" style="fill:#000000;fill-rule:evenodd;fill-opacity:1;stroke:#000000;stroke-width:0.0px;stroke-linecap:butt;stroke-linejoin:miter;stroke-opacity:1;"/>
<path class="atom-0" d="M 238.7,590.0 L 238.7,590.1 L 238.7,590.1 L 238.7,590.1 L 238.7,590.2 L 238.7,590.2 L 238.7,590.2 L 238.7,590.3 L 238.6,590.3 L 238.6,590.3 L 238.6,590.3 L 238.6,590.4 L 238.5,590.4 L 238.5,590.4 L 238.5,590.4 L 238.4,590.4 L 238.4,590.4 L 238.4,590.4 L 238.3,590.4 L 238.3,590.4 L 238.3,590.4 L 238.2,590.4 L 238.2,590.4 L 238.2,590.4 L 238.1,590.4 L 238.1,590.4 L 238.1,590.4 L 238.1,590.3 L 238.0,590.3 L 238.0,590.3 L 238.0,590.3 L 238.0,590.2 L 238.0,590.2 L 237.9,590.2 L 237.9,590.1 L 237.9,590.1 L 237.9,590.1 L 237.9,590.0 L 237.9,590.0 L 237.9,590.0 L 237.9,589.9 L 238.0,589.9 L 238.0,589.9 L 238.0,589.8 L 238.0,589.8 L 238.0,589.8 L 238.1,589.7 L 238.1,589.7 L 238.1,589.7 L 238.1,589.7 L 238.2,589.7 L 238.2,589.7 L 238.2,589.6 L 238.3,589.6 L 238.3,589.6 L 238.3,589.6 L 238.4,589.6 L 238.4,589.6 L 238.4,589.7 L 238.5,589.7 L 238.5,589.7 L 238.5,589.7 L 238.6,589.7 L 238.6,589.7 L 238.6,589.8 L 238.6,589.8 L 238.7,589.8 L 238.7,589.8 L 238.7,589.9 L 238.7,589.9 L 238.7,589.9 L 238.7,590.0 L 238.7,590.0 L 238.7,590.0 L 238.3,590.0 Z" style="fill:#000000;fill-rule:evenodd;fill-opacity:1;stroke:#000000;stroke-width:0.0px;stroke-linecap:butt;stroke-linejoin:miter;stroke-opacity:1;"/>
<path class="atom-1" d="M 233.6,609.5 L 233.6,609.5 L 233.6,609.6 L 233.6,609.6 L 233.6,609.6 L 233.6,609.7 L 233.5,609.7 L 233.5,609.7 L 233.5,609.8 L 233.5,609.8 L 233.5,609.8 L 233.4,609.8 L 233.4,609.9 L 233.4,609.9 L 233.3,609.9 L 233.3,609.9 L 233.3,609.9 L 233.2,609.9 L 233.2,609.9 L 233.2,609.9 L 233.1,609.9 L 233.1,609.9 L 233.1,609.9 L 233.0,609.9 L 233.0,609.9 L 233.0,609.8 L 232.9,609.8 L 232.9,609.8 L 232.9,609.8 L 232.9,609.8 L 232.9,609.7 L 232.8,609.7 L 232.8,609.7 L 232.8,609.6 L 232.8,609.6 L 232.8,609.6 L 232.8,609.5 L 232.8,609.5 L 232.8,609.5 L 232.8,609.4 L 232.8,609.4 L 232.8,609.4 L 232.8,609.3 L 232.9,609.3 L 232.9,609.3 L 232.9,609.2 L 232.9,609.2 L 232.9,609.2 L 233.0,609.2 L 233.0,609.2 L 233.0,609.1 L 233.1,609.1 L 233.1,609.1 L 233.1,609.1 L 233.2,609.1 L 233.2,609.1 L 233.2,609.1 L 233.3,609.1 L 233.3,609.1 L 233.3,609.1 L 233.4,609.1 L 233.4,609.2 L 233.4,609.2 L 233.5,609.2 L 233.5,609.2 L 233.5,609.3 L 233.5,609.3 L 233.5,609.3 L 233.6,609.3 L 233.6,609.4 L 233.6,609.4 L 233.6,609.4 L 233.6,609.5 L 233.6,609.5 L 233.2,609.5 Z" style="fill:#000000;fill-rule:evenodd;fill-opacity:1;stroke:#000000;stroke-width:0.0px;stroke-linecap:butt;stroke-linejoin:miter;stroke-opacity:1;"/>
<path class="atom-2" d="M 208.7,614.8 L 208.7,614.8 L 208.7,614.9 L 208.7,614.9 L 208.7,614.9 L 208.7,615.0 L 208.7,615.0 L 208.7,615.0 L 208.6,615.1 L 208.6,615.1 L 208.6,615.1 L 208.6,615.1 L 208.5,615.1 L 208.5,615.2 L 208.5,615.2 L 208.4,615.2 L 208.4,615.2 L 208.4,615.2 L 208.3,615.2 L 208.3,615.2 L 208.3,615.2 L 208.2,615.2 L 208.2,615.2 L 208.2,615.2 L 208.1,615.1 L 208.1,615.1 L 208.1,615.1 L 208.0,615.1 L 208.0,615.1 L 208.0,615.0 L 208.0,615.0 L 208.0,615.0 L 207.9,614.9 L 207.9,614.9 L 207.9,614.9 L 207.9,614.8 L 207.9,614.8 L 207.9,614.8 L 207.9,614.7 L 207.9,614.7 L 207.9,614.7 L 207.9,614.6 L 208.0,614.6 L 208.0,614.6 L 208.0,614.6 L 208.0,614.5 L 208.0,614.5 L 208.1,614.5 L 208.1,614.5 L 208.1,614.4 L 208.2,614.4 L 208.2,614.4 L 208.2,614.4 L 208.3,614.4 L 208.3,614.4 L 208.3,614.4 L 208.4,614.4 L 208.4,614.4 L 208.4,614.4 L 208.5,614.4 L 208.5,614.4 L 208.5,614.4 L 208.6,614.5 L 208.6,614.5 L 208.6,614.5 L 208.6,614.5 L 208.7,614.6 L 208.7,614.6 L 208.7,614.6 L 208.7,614.7 L 208.7,614.7 L 208.7,614.7 L 208.7,614.8 L 208.7,614.8 L 208.3,614.8 Z" style="fill:#000000;fill-rule:evenodd;fill-opacity:1;stroke:#000000;stroke-width:0.0px;stroke-linecap:butt;stroke-linejoin:miter;stroke-opacity:1;"/>
<path class="atom-3" d="M 209.0,634.3 L 209.0,634.3 L 209.0,634.3 L 209.0,634.4 L 209.0,634.4 L 209.0,634.4 L 209.0,634.5 L 209.0,634.5 L 208.9,634.5 L 208.9,634.5 L 208.9,634.6 L 208.9,634.6 L 208.8,634.6 L 208.8,634.6 L 208.8,634.6 L 208.7,634.6 L 208.7,634.7 L 208.7,634.7 L 208.6,634.7 L 208.6,634.7 L 208.6,634.7 L 208.5,634.7 L 208.5,634.6 L 208.5,634.6 L 208.4,634.6 L 208.4,634.6 L 208.4,634.6 L 208.4,634.6 L 208.3,634.5 L 208.3,634.5 L 208.3,634.5 L 208.3,634.4 L 208.3,634.4 L 208.3,634.4 L 208.2,634.3 L 208.2,634.3 L 208.2,634.3 L 208.2,634.2 L 208.2,634.2 L 208.2,634.2 L 208.3,634.1 L 208.3,634.1 L 208.3,634.1 L 208.3,634.0 L 208.3,634.0 L 208.3,634.0 L 208.4,634.0 L 208.4,633.9 L 208.4,633.9 L 208.4,633.9 L 208.5,633.9 L 208.5,633.9 L 208.5,633.9 L 208.6,633.9 L 208.6,633.9 L 208.6,633.9 L 208.7,633.9 L 208.7,633.9 L 208.7,633.9 L 208.8,633.9 L 208.8,633.9 L 208.8,633.9 L 208.9,633.9 L 208.9,634.0 L 208.9,634.0 L 208.9,634.0 L 209.0,634.0 L 209.0,634.1 L 209.0,634.1 L 209.0,634.1 L 209.0,634.2 L 209.0,634.2 L 209.0,634.2 L 209.0,634.3 L 208.6,634.3 Z" style="fill:#000000;fill-rule:evenodd;fill-opacity:1;stroke:#000000;stroke-width:0.0px;stroke-linecap:butt;stroke-linejoin:miter;stroke-opacity:1;"/>
<path class="atom-4" d="M 190.6,639.5 L 190.6,639.6 L 190.6,639.6 L 190.6,639.7 L 190.6,639.7 L 190.6,639.7 L 190.6,639.7 L 190.6,639.8 L 190.5,639.8 L 190.5,639.8 L 190.5,639.9 L 190.5,639.9 L 190.4,639.9 L 190.4,639.9 L 190.4,639.9 L 190.3,639.9 L 190.3,639.9 L 190.3,639.9 L 190.2,640.0 L 190.2,640.0 L 190.2,639.9 L 190.1,639.9 L 190.1,639.9 L 190.1,639.9 L 190.0,639.9 L 190.0,639.9 L 190.0,639.9 L 190.0,639.8 L 189.9,639.8 L 189.9,639.8 L 189.9,639.8 L 189.9,639.7 L 189.9,639.7 L 189.8,639.7 L 189.8,639.6 L 189.8,639.6 L 189.8,639.6 L 189.8,639.5 L 189.8,639.5 L 189.8,639.5 L 189.8,639.4 L 189.9,639.4 L 189.9,639.4 L 189.9,639.3 L 189.9,639.3 L 189.9,639.3 L 190.0,639.3 L 190.0,639.2 L 190.0,639.2 L 190.0,639.2 L 190.1,639.2 L 190.1,639.2 L 190.1,639.2 L 190.2,639.2 L 190.2,639.1 L 190.2,639.1 L 190.3,639.1 L 190.3,639.2 L 190.3,639.2 L 190.4,639.2 L 190.4,639.2 L 190.4,639.2 L 190.5,639.2 L 190.5,639.2 L 190.5,639.3 L 190.5,639.3 L 190.6,639.3 L 190.6,639.4 L 190.6,639.4 L 190.6,639.4 L 190.6,639.4 L 190.6,639.5 L 190.6,639.5 L 190.6,639.5 L 190.2,639.5 Z" style="fill:#000000;fill-rule:evenodd;fill-opacity:1;stroke:#000000;stroke-width:0.0px;stroke-linecap:butt;stroke-linejoin:miter;stroke-opacity:1;"/>
<path class="atom-5" d="M 187.7,659.0 L 187.7,659.1 L 187.7,659.1 L 187.7,659.1 L 187.7,659.2 L 187.7,659.2 L 187.7,659.2 L 187.7,659.2 L 187.6,659.3 L 187.6,659.3 L 187.6,659.3 L 187.6,659.3 L 187.5,659.4 L 187.5,659.4 L 187.5,659.4 L 187.4,659.4 L 187.4,659.4 L 187.4,659.4 L 187.3,659.4 L 187.3,659.4 L 187.3,659.4 L 187.2,659.4 L 187.2,659.4 L 187.2,659.4 L 187.1,659.4 L 187.1,659.4 L 187.1,659.3 L 187.1,659.3 L 187.0,659.3 L 187.0,659.3 L 187.0,659.2 L 187.0,659.2 L 187.0,659.2 L 187.0,659.1 L 186.9,659.1 L 186.9,659.1 L 186.9,659.0 L 186.9,659.0 L 186.9,659.0 L 186.9,658.9 L 187.0,658.9 L 187.0,658.9 L 187.0,658.8 L 187.0,658.8 L 187.0,658.8 L 187.0,658.7 L 187.1,658.7 L 187.1,658.7 L 187.1,658.7 L 187.1,658.7 L 187.2,658.6 L 187.2,658.6 L 187.2,658.6 L 187.3,658.6 L 187.3,658.6 L 187.3,658.6 L 187.4,658.6 L 187.4,658.6 L 187.4,658.6 L 187.5,658.6 L 187.5,658.7 L 187.5,658.7 L 187.6,658.7 L 187.6,658.7 L 187.6,658.7 L 187.6,658.8 L 187.7,658.8 L 187.7,658.8 L 187.7,658.8 L 187.7,658.9 L 187.7,658.9 L 187.7,658.9 L 187.7,659.0 L 187.7,659.0 L 187.3,659.0 Z" style="fill:#000000;fill-rule:evenodd;fill-opacity:1;stroke:#000000;stroke-width:0.0px;stroke-linecap:butt;stroke-linejoin:miter;stroke-opacity:1;"/>
<path class="atom-6" d="M 173.7,621.9 L 173.7,621.9 L 173.7,622.0 L 173.7,622.0 L 173.7,622.0 L 173.7,622.1 L 173.7,622.1 L 173.6,622.1 L 173.6,622.1 L 173.6,622.2 L 173.6,622.2 L 173.5,622.2 L 173.5,622.2 L 173.5,622.2 L 173.4,622.3 L 173.4,622.3 L 173.4,622.3 L 173.3,622.3 L 173.3,622.3 L 173.3,622.3 L 173.2,622.3 L 173.2,622.3 L 173.2,622.3 L 173.1,622.3 L 173.1,622.2 L 173.1,622.2 L 173.1,622.2 L 173.0,622.2 L 173.0,622.2 L 173.0,622.1 L 173.0,622.1 L 172.9,622.1 L 172.9,622.0 L 172.9,622.0 L 172.9,622.0 L 172.9,621.9 L 172.9,621.9 L 172.9,621.9 L 172.9,621.8 L 172.9,621.8 L 172.9,621.8 L 172.9,621.7 L 172.9,621.7 L 173.0,621.7 L 173.0,621.6 L 173.0,621.6 L 173.0,621.6 L 173.1,621.6 L 173.1,621.5 L 173.1,621.5 L 173.1,621.5 L 173.2,621.5 L 173.2,621.5 L 173.2,621.5 L 173.3,621.5 L 173.3,621.5 L 173.3,621.5 L 173.4,621.5 L 173.4,621.5 L 173.4,621.5 L 173.5,621.5 L 173.5,621.5 L 173.5,621.6 L 173.6,621.6 L 173.6,621.6 L 173.6,621.6 L 173.6,621.7 L 173.7,621.7 L 173.7,621.7 L 173.7,621.7 L 173.7,621.8 L 173.7,621.8 L 173.7,621.8 L 173.7,621.9 L 173.3,621.9 Z" style="fill:#000000;fill-rule:evenodd;fill-opacity:1;stroke:#000000;stroke-width:0.0px;stroke-linecap:butt;stroke-linejoin:miter;stroke-opacity:1;"/>
<path class="atom-6" d="M 172.1,621.9 L 172.1,621.9 L 172.1,622.0 L 172.1,622.0 L 172.1,622.0 L 172.1,622.1 L 172.0,622.1 L 172.0,622.1 L 172.0,622.1 L 172.0,622.2 L 172.0,622.2 L 171.9,622.2 L 171.9,622.2 L 171.9,622.2 L 171.8,622.3 L 171.8,622.3 L 171.8,622.3 L 171.7,622.3 L 171.7,622.3 L 171.7,622.3 L 171.6,622.3 L 171.6,622.3 L 171.6,622.3 L 171.5,622.3 L 171.5,622.2 L 171.5,622.2 L 171.4,622.2 L 171.4,622.2 L 171.4,622.2 L 171.4,622.1 L 171.4,622.1 L 171.3,622.1 L 171.3,622.0 L 171.3,622.0 L 171.3,622.0 L 171.3,621.9 L 171.3,621.9 L 171.3,621.9 L 171.3,621.8 L 171.3,621.8 L 171.3,621.8 L 171.3,621.7 L 171.3,621.7 L 171.4,621.7 L 171.4,621.6 L 171.4,621.6 L 171.4,621.6 L 171.4,621.6 L 171.5,621.5 L 171.5,621.5 L 171.5,621.5 L 171.6,621.5 L 171.6,621.5 L 171.6,621.5 L 171.7,621.5 L 171.7,621.5 L 171.7,621.5 L 171.8,621.5 L 171.8,621.5 L 171.8,621.5 L 171.9,621.5 L 171.9,621.5 L 171.9,621.6 L 172.0,621.6 L 172.0,621.6 L 172.0,621.6 L 172.0,621.7 L 172.0,621.7 L 172.1,621.7 L 172.1,621.7 L 172.1,621.8 L 172.1,621.8 L 172.1,621.8 L 172.1,621.9 L 171.7,621.9 Z" style="fill:#000000;fill-rule:evenodd;fill-opacity:1;stroke:#000000;stroke-width:0.0px;stroke-linecap:butt;stroke-linejoin:miter;stroke-opacity:1;"/>
<path class="atom-8" d="M 137.1,635.9 L 137.1,636.0 L 137.1,636.0 L 137.1,636.0 L 137.1,636.1 L 137.0,636.1 L 137.0,636.1 L 137.0,636.2 L 137.0,636.2 L 137.0,636.2 L 136.9,636.2 L 136.9,636.3 L 136.9,636.3 L 136.8,636.3 L 136.8,636.3 L 136.8,636.3 L 136.7,636.3 L 136.7,636.3 L 136.7,636.3 L 136.6,636.3 L 136.6,636.3 L 136.6,636.3 L 136.5,636.3 L 136.5,636.3 L 136.5,636.3 L 136.5,636.3 L 136.4,636.3 L 136.4,636.2 L 136.4,636.2 L 136.4,636.2 L 136.3,636.2 L 136.3,636.1 L 136.3,636.1 L 136.3,636.1 L 136.3,636.0 L 136.3,636.0 L 136.3,636.0 L 136.3,635.9 L 136.3,635.9 L 136.3,635.9 L 136.3,635.8 L 136.3,635.8 L 136.3,635.8 L 136.3,635.7 L 136.4,635.7 L 136.4,635.7 L 136.4,635.6 L 136.4,635.6 L 136.5,635.6 L 136.5,635.6 L 136.5,635.6 L 136.5,635.6 L 136.6,635.5 L 136.6,635.5 L 136.6,635.5 L 136.7,635.5 L 136.7,635.5 L 136.7,635.5 L 136.8,635.6 L 136.8,635.6 L 136.8,635.6 L 136.9,635.6 L 136.9,635.6 L 136.9,635.6 L 137.0,635.7 L 137.0,635.7 L 137.0,635.7 L 137.0,635.7 L 137.0,635.8 L 137.1,635.8 L 137.1,635.8 L 137.1,635.9 L 137.1,635.9 L 137.1,635.9 L 136.7,635.9 Z" style="fill:#000000;fill-rule:evenodd;fill-opacity:1;stroke:#000000;stroke-width:0.0px;stroke-linecap:butt;stroke-linejoin:miter;stroke-opacity:1;"/>
<path class="atom-10" d="M 100.3,617.3 L 100.3,617.3 L 100.3,617.4 L 100.3,617.4 L 100.3,617.4 L 100.3,617.5 L 100.3,617.5 L 100.3,617.5 L 100.2,617.5 L 100.2,617.6 L 100.2,617.6 L 100.2,617.6 L 100.1,617.6 L 100.1,617.6 L 100.1,617.7 L 100.0,617.7 L 100.0,617.7 L 100.0,617.7 L 99.9,617.7 L 99.9,617.7 L 99.9,617.7 L 99.8,617.7 L 99.8,617.7 L 99.8,617.7 L 99.7,617.6 L 99.7,617.6 L 99.7,617.6 L 99.6,617.6 L 99.6,617.6 L 99.6,617.5 L 99.6,617.5 L 99.6,617.5 L 99.6,617.4 L 99.5,617.4 L 99.5,617.4 L 99.5,617.3 L 99.5,617.3 L 99.5,617.3 L 99.5,617.2 L 99.5,617.2 L 99.5,617.2 L 99.6,617.1 L 99.6,617.1 L 99.6,617.1 L 99.6,617.0 L 99.6,617.0 L 99.6,617.0 L 99.7,617.0 L 99.7,616.9 L 99.7,616.9 L 99.8,616.9 L 99.8,616.9 L 99.8,616.9 L 99.9,616.9 L 99.9,616.9 L 99.9,616.9 L 100.0,616.9 L 100.0,616.9 L 100.0,616.9 L 100.1,616.9 L 100.1,616.9 L 100.1,616.9 L 100.2,617.0 L 100.2,617.0 L 100.2,617.0 L 100.2,617.0 L 100.3,617.1 L 100.3,617.1 L 100.3,617.1 L 100.3,617.2 L 100.3,617.2 L 100.3,617.2 L 100.3,617.3 L 100.3,617.3 L 99.9,617.3 Z" style="fill:#000000;fill-rule:evenodd;fill-opacity:1;stroke:#000000;stroke-width:0.0px;stroke-linecap:butt;stroke-linejoin:miter;stroke-opacity:1;"/>
<path class="atom-12" d="M 66.6,614.7 L 66.6,614.7 L 66.6,614.7 L 66.6,614.8 L 66.6,614.8 L 66.6,614.8 L 66.6,614.9 L 66.5,614.9 L 66.5,614.9 L 66.5,614.9 L 66.5,615.0 L 66.4,615.0 L 66.4,615.0 L 66.4,615.0 L 66.3,615.0 L 66.3,615.0 L 66.3,615.1 L 66.2,615.1 L 66.2,615.1 L 66.2,615.1 L 66.1,615.1 L 66.1,615.1 L 66.1,615.0 L 66.0,615.0 L 66.0,615.0 L 66.0,615.0 L 66.0,615.0 L 65.9,615.0 L 65.9,614.9 L 65.9,614.9 L 65.9,614.9 L 65.8,614.8 L 65.8,614.8 L 65.8,614.8 L 65.8,614.7 L 65.8,614.7 L 65.8,614.7 L 65.8,614.6 L 65.8,614.6 L 65.8,614.6 L 65.8,614.5 L 65.8,614.5 L 65.8,614.5 L 65.9,614.4 L 65.9,614.4 L 65.9,614.4 L 65.9,614.4 L 66.0,614.3 L 66.0,614.3 L 66.0,614.3 L 66.0,614.3 L 66.1,614.3 L 66.1,614.3 L 66.1,614.3 L 66.2,614.3 L 66.2,614.3 L 66.2,614.3 L 66.3,614.3 L 66.3,614.3 L 66.3,614.3 L 66.4,614.3 L 66.4,614.3 L 66.4,614.3 L 66.5,614.4 L 66.5,614.4 L 66.5,614.4 L 66.5,614.4 L 66.6,614.5 L 66.6,614.5 L 66.6,614.5 L 66.6,614.6 L 66.6,614.6 L 66.6,614.6 L 66.6,614.7 L 66.2,614.7 Z" style="fill:#000000;fill-rule:evenodd;fill-opacity:1;stroke:#000000;stroke-width:0.0px;stroke-linecap:butt;stroke-linejoin:miter;stroke-opacity:1;"/>
<path class="bond-0 atom-0 atom-1" d="M 699.8,634.7 L 644.2,602.6" style="fill:none;fill-rule:evenodd;stroke:#000000;stroke-width:2.0px;stroke-linecap:butt;stroke-linejoin:miter;stroke-opacity:1"/>
<path class="bond-1 atom-1 atom-2" d="M 622.0,602.6 L 566.3,634.7" style="fill:none;fill-rule:evenodd;stroke:#000000;stroke-width:2.0px;stroke-linecap:butt;stroke-linejoin:miter;stroke-opacity:1"/>
<path class="bond-1 atom-1 atom-2" d="M 622.6,623.0 L 575.3,650.3" style="fill:none;fill-rule:evenodd;stroke:#000000;stroke-width:2.0px;stroke-linecap:butt;stroke-linejoin:miter;stroke-opacity:1"/>
<path class="bond-1 atom-1 atom-2" d="M 604.6,591.8 L 557.3,619.1" style="fill:none;fill-rule:evenodd;stroke:#000000;stroke-width:2.0px;stroke-linecap:butt;stroke-linejoin:miter;stroke-opacity:1"/>
<path class="atom-0" d="M 703.8 649.8 Q 704.0 649.9, 705.2 650.4 Q 706.4 650.9, 707.7 651.3 Q 709.0 651.6, 710.3 651.6 Q 712.8 651.6, 714.2 650.4 Q 715.6 649.2, 715.6 647.2 Q 715.6 645.8, 714.8 644.9 Q 714.2 644.0, 713.1 643.6 Q 712.0 643.1, 710.2 642.6 Q 707.9 641.9, 706.6 641.2 Q 705.2 640.6, 704.3 639.2 Q 703.3 637.9, 703.3 635.6 Q 703.3 632.4, 705.5 630.4 Q 707.7 628.4, 712.0 628.4 Q 714.9 628.4, 718.3 629.8 L 717.5 632.6 Q 714.4 631.3, 712.1 631.3 Q 709.6 631.3, 708.3 632.4 Q 706.9 633.4, 706.9 635.1 Q 706.9 636.5, 707.6 637.3 Q 708.3 638.1, 709.3 638.6 Q 710.4 639.1, 712.1 639.6 Q 714.4 640.3, 715.8 641.1 Q 717.1 641.8, 718.1 643.3 Q 719.1 644.7, 719.1 647.2 Q 719.1 650.7, 716.7 652.6 Q 714.4 654.5, 710.5 654.5 Q 708.2 654.5, 706.5 654.0 Q 704.8 653.5, 702.8 652.7 L 703.8 649.8 " fill="#000000"/>
<path class="atom-0" d="M 720.8 632.6 L 725.3 632.6 L 725.3 627.9 L 727.3 627.9 L 727.3 632.6 L 731.9 632.6 L 731.9 634.3 L 727.3 634.3 L 727.3 639.1 L 725.3 639.1 L 725.3 634.3 L 720.8 634.3 L 720.8 632.6 " fill="#000000"/>
<path class="atom-1" d="M 625.9 604.9 Q 626.2 605.0, 627.4 605.5 Q 628.6 606.0, 629.8 606.3 Q 631.2 606.6, 632.5 606.6 Q 634.9 606.6, 636.3 605.5 Q 637.7 604.3, 637.7 602.2 Q 637.7 600.8, 637.0 600.0 Q 636.3 599.1, 635.2 598.6 Q 634.1 598.2, 632.3 597.6 Q 630.1 596.9, 628.7 596.3 Q 627.4 595.6, 626.4 594.3 Q 625.5 592.9, 625.5 590.6 Q 625.5 587.4, 627.6 585.4 Q 629.8 583.4, 634.1 583.4 Q 637.1 583.4, 640.4 584.8 L 639.6 587.6 Q 636.5 586.4, 634.2 586.4 Q 631.8 586.4, 630.4 587.4 Q 629.0 588.4, 629.1 590.2 Q 629.1 591.5, 629.7 592.4 Q 630.5 593.2, 631.5 593.7 Q 632.5 594.1, 634.2 594.7 Q 636.5 595.4, 637.9 596.1 Q 639.3 596.8, 640.2 598.3 Q 641.3 599.7, 641.3 602.2 Q 641.3 605.7, 638.9 607.6 Q 636.5 609.5, 632.6 609.5 Q 630.4 609.5, 628.6 609.0 Q 626.9 608.5, 624.9 607.7 L 625.9 604.9 " fill="#000000"/>
<path class="atom-1" d="M 642.9 587.3 L 651.7 587.3 L 651.7 589.2 L 642.9 589.2 L 642.9 587.3 " fill="#000000"/>
<path class="atom-2" d="M 511.4 628.4 L 514.8 628.4 L 514.8 639.2 L 527.8 639.2 L 527.8 628.4 L 531.3 628.4 L 531.3 653.8 L 527.8 653.8 L 527.8 642.1 L 514.8 642.1 L 514.8 653.8 L 511.4 653.8 L 511.4 628.4 " fill="#000000"/>
<path class="atom-2" d="M 534.4 652.9 Q 535.0 651.3, 536.5 650.5 Q 538.0 649.6, 540.0 649.6 Q 542.5 649.6, 544.0 650.9 Q 545.4 652.3, 545.4 654.8 Q 545.4 657.3, 543.5 659.6 Q 541.7 661.9, 537.9 664.7 L 545.7 664.7 L 545.7 666.6 L 534.3 666.6 L 534.3 665.0 Q 537.5 662.7, 539.3 661.1 Q 541.2 659.4, 542.1 657.9 Q 543.0 656.4, 543.0 654.9 Q 543.0 653.3, 542.2 652.4 Q 541.4 651.5, 540.0 651.5 Q 538.6 651.5, 537.7 652.0 Q 536.8 652.6, 536.2 653.8 L 534.4 652.9 " fill="#000000"/>
<path class="atom-2" d="M 554.6 628.4 Q 559.0 628.4, 561.2 630.3 Q 563.3 632.3, 563.3 635.8 Q 563.3 639.4, 561.1 641.4 Q 558.9 643.4, 554.6 643.4 L 550.5 643.4 L 550.5 653.8 L 547.1 653.8 L 547.1 628.4 L 554.6 628.4 M 554.6 640.5 Q 557.1 640.5, 558.4 639.3 Q 559.8 638.1, 559.8 635.8 Q 559.8 633.6, 558.4 632.4 Q 557.1 631.2, 554.6 631.2 L 550.5 631.2 L 550.5 640.5 L 554.6 640.5 " fill="#000000"/>
<path class="atom-0" d="M 739.1,644.7 L 739.1,644.8 L 739.1,645.0 L 739.0,645.2 L 739.0,645.3 L 738.9,645.4 L 738.9,645.6 L 738.8,645.7 L 738.7,645.8 L 738.6,645.9 L 738.5,646.1 L 738.3,646.2 L 738.2,646.2 L 738.1,646.3 L 737.9,646.4 L 737.8,646.4 L 737.6,646.5 L 737.5,646.5 L 737.3,646.5 L 737.2,646.5 L 737.0,646.5 L 736.9,646.4 L 736.7,646.4 L 736.6,646.3 L 736.4,646.3 L 736.3,646.2 L 736.2,646.1 L 736.1,646.0 L 735.9,645.9 L 735.9,645.8 L 735.8,645.6 L 735.7,645.5 L 735.6,645.4 L 735.6,645.2 L 735.5,645.1 L 735.5,644.9 L 735.5,644.8 L 735.5,644.6 L 735.5,644.5 L 735.5,644.3 L 735.6,644.2 L 735.6,644.0 L 735.7,643.9 L 735.8,643.7 L 735.9,643.6 L 735.9,643.5 L 736.1,643.4 L 736.2,643.3 L 736.3,643.2 L 736.4,643.1 L 736.6,643.0 L 736.7,643.0 L 736.9,642.9 L 737.0,642.9 L 737.2,642.9 L 737.3,642.9 L 737.5,642.9 L 737.6,642.9 L 737.8,643.0 L 737.9,643.0 L 738.1,643.1 L 738.2,643.1 L 738.3,643.2 L 738.5,643.3 L 738.6,643.4 L 738.7,643.5 L 738.8,643.7 L 738.9,643.8 L 738.9,643.9 L 739.0,644.1 L 739.0,644.2 L 739.1,644.4 L 739.1,644.5 L 739.1,644.7 L 737.3,644.7 Z" style="fill:#000000;fill-rule:evenodd;fill-opacity:1;stroke:#000000;stroke-width:0.0px;stroke-linecap:butt;stroke-linejoin:miter;stroke-opacity:1;"/>
<path class="atom-0" d="M 739.1,637.5 L 739.1,637.7 L 739.1,637.8 L 739.0,638.0 L 739.0,638.1 L 738.9,638.2 L 738.9,638.4 L 738.8,638.5 L 738.7,638.6 L 738.6,638.8 L 738.5,638.9 L 738.3,639.0 L 738.2,639.0 L 738.1,639.1 L 737.9,639.2 L 737.8,639.2 L 737.6,639.3 L 737.5,639.3 L 737.3,639.3 L 737.2,639.3 L 737.0,639.3 L 736.9,639.2 L 736.7,639.2 L 736.6,639.1 L 736.4,639.1 L 736.3,639.0 L 736.2,638.9 L 736.1,638.8 L 735.9,638.7 L 735.9,638.6 L 735.8,638.5 L 735.7,638.3 L 735.6,638.2 L 735.6,638.0 L 735.5,637.9 L 735.5,637.7 L 735.5,637.6 L 735.5,637.4 L 735.5,637.3 L 735.5,637.1 L 735.6,637.0 L 735.6,636.8 L 735.7,636.7 L 735.8,636.5 L 735.9,636.4 L 735.9,636.3 L 736.1,636.2 L 736.2,636.1 L 736.3,636.0 L 736.4,635.9 L 736.6,635.8 L 736.7,635.8 L 736.9,635.7 L 737.0,635.7 L 737.2,635.7 L 737.3,635.7 L 737.5,635.7 L 737.6,635.7 L 737.8,635.8 L 737.9,635.8 L 738.1,635.9 L 738.2,636.0 L 738.3,636.0 L 738.5,636.1 L 738.6,636.2 L 738.7,636.4 L 738.8,636.5 L 738.9,636.6 L 738.9,636.7 L 739.0,636.9 L 739.0,637.0 L 739.1,637.2 L 739.1,637.3 L 739.1,637.5 L 737.3,637.5 Z" style="fill:#000000;fill-rule:evenodd;fill-opacity:1;stroke:#000000;stroke-width:0.0px;stroke-linecap:butt;stroke-linejoin:miter;stroke-opacity:1;"/>
<path class="atom-1" d="M 658.8,596.1 L 658.8,596.3 L 658.8,596.4 L 658.8,596.6 L 658.7,596.7 L 658.7,596.9 L 658.6,597.0 L 658.5,597.2 L 658.4,597.3 L 658.3,597.4 L 658.2,597.5 L 658.1,597.6 L 658.0,597.7 L 657.8,597.8 L 657.7,597.8 L 657.5,597.9 L 657.4,597.9 L 657.2,597.9 L 657.1,597.9 L 656.9,597.9 L 656.8,597.9 L 656.6,597.9 L 656.5,597.8 L 656.3,597.8 L 656.2,597.7 L 656.1,597.6 L 655.9,597.6 L 655.8,597.4 L 655.7,597.3 L 655.6,597.2 L 655.5,597.1 L 655.4,597.0 L 655.4,596.8 L 655.3,596.7 L 655.3,596.5 L 655.3,596.4 L 655.3,596.2 L 655.3,596.1 L 655.3,595.9 L 655.3,595.8 L 655.3,595.6 L 655.4,595.5 L 655.4,595.3 L 655.5,595.2 L 655.6,595.1 L 655.7,594.9 L 655.8,594.8 L 655.9,594.7 L 656.1,594.6 L 656.2,594.6 L 656.3,594.5 L 656.5,594.4 L 656.6,594.4 L 656.8,594.4 L 656.9,594.3 L 657.1,594.3 L 657.2,594.4 L 657.4,594.4 L 657.5,594.4 L 657.7,594.5 L 657.8,594.5 L 658.0,594.6 L 658.1,594.7 L 658.2,594.8 L 658.3,594.9 L 658.4,595.0 L 658.5,595.1 L 658.6,595.3 L 658.7,595.4 L 658.7,595.5 L 658.8,595.7 L 658.8,595.8 L 658.8,596.0 L 658.8,596.1 L 657.0,596.1 Z" style="fill:#000000;fill-rule:evenodd;fill-opacity:1;stroke:#000000;stroke-width:0.0px;stroke-linecap:butt;stroke-linejoin:miter;stroke-opacity:1;"/>
</svg>