<svg xmlns="http://www.w3.org/2000/svg" xmlns:rdkit="http://www.rdkit.org/xml" xmlns:xlink="http://www.w3.org/1999/xlink" version="1.1" baseProfile="full" xml:space="preserve" width="750px" height="750px" viewBox="0 0 750 750">
<!-- END OF HEADER -->
<rect style="opacity:1.0;fill:#FFFFFF;stroke:none" width="750.0" height="750.0" x="0.0" y="0.0"> </rect>
<path class="bond-0 atom-0 atom-1" d="M 237.4,80.9 L 226.9,108.1" style="fill:none;fill-rule:evenodd;stroke:#000000;stroke-width:2.0px;stroke-linecap:butt;stroke-linejoin:miter;stroke-opacity:1"/>
<path class="bond-0 atom-0 atom-1" d="M 232.0,78.8 L 221.5,106.0" style="fill:none;fill-rule:evenodd;stroke:#000000;stroke-width:2.0px;stroke-linecap:butt;stroke-linejoin:miter;stroke-opacity:1"/>
<path class="bond-1 atom-1 atom-2" d="M 224.2,107.0 L 195.5,111.5" style="fill:none;fill-rule:evenodd;stroke:#000000;stroke-width:2.0px;stroke-linecap:butt;stroke-linejoin:miter;stroke-opacity:1"/>
<path class="bond-2 atom-2 atom-3" d="M 195.5,111.5 L 187.0,133.5" style="fill:none;fill-rule:evenodd;stroke:#000000;stroke-width:2.0px;stroke-linecap:butt;stroke-linejoin:miter;stroke-opacity:1"/>
<path class="bond-3 atom-3 atom-4" d="M 180.3,139.4 L 156.3,143.1" style="fill:none;fill-rule:evenodd;stroke:#000000;stroke-width:2.0px;stroke-linecap:butt;stroke-linejoin:miter;stroke-opacity:1"/>
<path class="bond-4 atom-4 atom-5" d="M 156.3,143.1 L 160.7,171.9" style="fill:none;fill-rule:evenodd;stroke:#000000;stroke-width:2.0px;stroke-linecap:butt;stroke-linejoin:miter;stroke-opacity:1"/>
<path class="bond-5 atom-4 atom-6" d="M 156.3,143.1 L 151.8,114.4" style="fill:none;fill-rule:evenodd;stroke:#000000;stroke-width:2.0px;stroke-linecap:butt;stroke-linejoin:miter;stroke-opacity:1"/>
<path class="bond-6 atom-4 atom-7" d="M 156.3,143.1 L 127.5,147.6" style="fill:none;fill-rule:evenodd;stroke:#000000;stroke-width:2.0px;stroke-linecap:butt;stroke-linejoin:miter;stroke-opacity:1"/>
<path class="bond-7 atom-7 atom-8" d="M 127.5,147.6 L 109.3,125.0" style="fill:none;fill-rule:evenodd;stroke:#000000;stroke-width:2.0px;stroke-linecap:butt;stroke-linejoin:miter;stroke-opacity:1"/>
<path class="bond-7 atom-7 atom-8" d="M 129.3,140.5 L 116.5,124.7" style="fill:none;fill-rule:evenodd;stroke:#000000;stroke-width:2.0px;stroke-linecap:butt;stroke-linejoin:miter;stroke-opacity:1"/>
<path class="bond-8 atom-8 atom-9" d="M 109.3,125.0 L 80.5,129.4" style="fill:none;fill-rule:evenodd;stroke:#000000;stroke-width:2.0px;stroke-linecap:butt;stroke-linejoin:miter;stroke-opacity:1"/>
<path class="bond-9 atom-9 atom-10" d="M 80.5,129.4 L 62.3,106.8" style="fill:none;fill-rule:evenodd;stroke:#000000;stroke-width:2.0px;stroke-linecap:butt;stroke-linejoin:miter;stroke-opacity:1"/>
<path class="bond-9 atom-9 atom-10" d="M 82.3,122.4 L 69.5,106.5" style="fill:none;fill-rule:evenodd;stroke:#000000;stroke-width:2.0px;stroke-linecap:butt;stroke-linejoin:miter;stroke-opacity:1"/>
<path class="bond-10 atom-10 atom-11" d="M 62.3,106.8 L 33.5,111.3" style="fill:none;fill-rule:evenodd;stroke:#000000;stroke-width:2.0px;stroke-linecap:butt;stroke-linejoin:miter;stroke-opacity:1"/>
<path class="bond-11 atom-11 atom-12" d="M 36.3,112.3 L 27.7,134.3" style="fill:none;fill-rule:evenodd;stroke:#000000;stroke-width:2.0px;stroke-linecap:butt;stroke-linejoin:miter;stroke-opacity:1"/>
<path class="bond-11 atom-11 atom-12" d="M 30.8,110.2 L 22.3,132.2" style="fill:none;fill-rule:evenodd;stroke:#000000;stroke-width:2.0px;stroke-linecap:butt;stroke-linejoin:miter;stroke-opacity:1"/>
<path class="bond-12 atom-11 atom-13" d="M 33.5,111.3 L 15.3,88.6" style="fill:none;fill-rule:evenodd;stroke:#000000;stroke-width:2.0px;stroke-linecap:butt;stroke-linejoin:miter;stroke-opacity:1"/>
<path class="atom-3" d="M 181.2 138.7 Q 181.2 136.7, 182.2 135.6 Q 183.2 134.5, 185.0 134.5 Q 186.8 134.5, 187.8 135.6 Q 188.8 136.7, 188.8 138.7 Q 188.8 140.7, 187.8 141.8 Q 186.8 142.9, 185.0 142.9 Q 183.2 142.9, 182.2 141.8 Q 181.2 140.7, 181.2 138.7 M 185.0 142.0 Q 186.3 142.0, 186.9 141.2 Q 187.6 140.3, 187.6 138.7 Q 187.6 137.0, 186.9 136.2 Q 186.3 135.4, 185.0 135.4 Q 183.7 135.4, 183.1 136.2 Q 182.4 137.0, 182.4 138.7 Q 182.4 140.3, 183.1 141.2 Q 183.7 142.0, 185.0 142.0 " fill="#000000"/>
<path class="atom-12" d="M 19.3 138.4 Q 19.3 136.4, 20.2 135.3 Q 21.2 134.2, 23.1 134.2 Q 24.9 134.2, 25.9 135.3 Q 26.8 136.4, 26.8 138.4 Q 26.8 140.4, 25.8 141.6 Q 24.9 142.7, 23.1 142.7 Q 21.2 142.7, 20.2 141.6 Q 19.3 140.4, 19.3 138.4 M 23.1 141.8 Q 24.3 141.8, 25.0 140.9 Q 25.7 140.1, 25.7 138.4 Q 25.7 136.8, 25.0 136.0 Q 24.3 135.2, 23.1 135.2 Q 21.8 135.2, 21.1 136.0 Q 20.4 136.8, 20.4 138.4 Q 20.4 140.1, 21.1 140.9 Q 21.8 141.8, 23.1 141.8 " fill="#000000"/>
<path class="atom-0" d="M 238.8,81.1 L 238.8,81.1 L 238.8,81.2 L 238.8,81.2 L 238.7,81.3 L 238.7,81.3 L 238.7,81.3 L 238.7,81.4 L 238.6,81.4 L 238.6,81.5 L 238.6,81.5 L 238.5,81.5 L 238.5,81.6 L 238.5,81.6 L 238.4,81.6 L 238.4,81.6 L 238.3,81.6 L 238.3,81.6 L 238.2,81.6 L 238.2,81.6 L 238.1,81.6 L 238.1,81.6 L 238.0,81.6 L 238.0,81.6 L 237.9,81.6 L 237.9,81.5 L 237.8,81.5 L 237.8,81.5 L 237.8,81.4 L 237.7,81.4 L 237.7,81.4 L 237.7,81.3 L 237.7,81.3 L 237.6,81.2 L 237.6,81.2 L 237.6,81.1 L 237.6,81.1 L 237.6,81.0 L 237.6,81.0 L 237.6,80.9 L 237.6,80.9 L 237.7,80.8 L 237.7,80.8 L 237.7,80.7 L 237.7,80.7 L 237.8,80.7 L 237.8,80.6 L 237.8,80.6 L 237.9,80.6 L 237.9,80.5 L 238.0,80.5 L 238.0,80.5 L 238.1,80.5 L 238.1,80.5 L 238.2,80.5 L 238.2,80.5 L 238.3,80.5 L 238.3,80.5 L 238.4,80.5 L 238.4,80.5 L 238.5,80.5 L 238.5,80.6 L 238.5,80.6 L 238.6,80.6 L 238.6,80.6 L 238.6,80.7 L 238.7,80.7 L 238.7,80.8 L 238.7,80.8 L 238.7,80.9 L 238.8,80.9 L 238.8,81.0 L 238.8,81.0 L 238.8,81.1 L 238.2,81.1 Z" style="fill:#000000;fill-rule:evenodd;fill-opacity:1;stroke:#000000;stroke-width:0.0px;stroke-linecap:butt;stroke-linejoin:miter;stroke-opacity:1;"/>
<path class="atom-0" d="M 238.8,78.7 L 238.8,78.8 L 238.8,78.8 L 238.8,78.9 L 238.7,78.9 L 238.7,79.0 L 238.7,79.0 L 238.7,79.1 L 238.6,79.1 L 238.6,79.1 L 238.6,79.2 L 238.5,79.2 L 238.5,79.2 L 238.5,79.3 L 238.4,79.3 L 238.4,79.3 L 238.3,79.3 L 238.3,79.3 L 238.2,79.3 L 238.2,79.3 L 238.1,79.3 L 238.1,79.3 L 238.0,79.3 L 238.0,79.3 L 237.9,79.2 L 237.9,79.2 L 237.8,79.2 L 237.8,79.2 L 237.8,79.1 L 237.7,79.1 L 237.7,79.0 L 237.7,79.0 L 237.7,78.9 L 237.6,78.9 L 237.6,78.9 L 237.6,78.8 L 237.6,78.8 L 237.6,78.7 L 237.6,78.7 L 237.6,78.6 L 237.6,78.6 L 237.7,78.5 L 237.7,78.5 L 237.7,78.4 L 237.7,78.4 L 237.8,78.3 L 237.8,78.3 L 237.8,78.3 L 237.9,78.2 L 237.9,78.2 L 238.0,78.2 L 238.0,78.2 L 238.1,78.2 L 238.1,78.2 L 238.2,78.1 L 238.2,78.1 L 238.3,78.2 L 238.3,78.2 L 238.4,78.2 L 238.4,78.2 L 238.5,78.2 L 238.5,78.2 L 238.5,78.3 L 238.6,78.3 L 238.6,78.3 L 238.6,78.4 L 238.7,78.4 L 238.7,78.4 L 238.7,78.5 L 238.7,78.5 L 238.8,78.6 L 238.8,78.6 L 238.8,78.7 L 238.8,78.7 L 238.2,78.7 Z" style="fill:#000000;fill-rule:evenodd;fill-opacity:1;stroke:#000000;stroke-width:0.0px;stroke-linecap:butt;stroke-linejoin:miter;stroke-opacity:1;"/>
<path class="atom-13" d="M 12.4,89.8 L 12.4,89.8 L 12.4,89.9 L 12.4,89.9 L 12.3,90.0 L 12.3,90.0 L 12.3,90.1 L 12.3,90.1 L 12.2,90.2 L 12.2,90.2 L 12.2,90.2 L 12.1,90.3 L 12.1,90.3 L 12.1,90.3 L 12.0,90.3 L 12.0,90.3 L 11.9,90.4 L 11.9,90.4 L 11.8,90.4 L 11.8,90.4 L 11.7,90.4 L 11.7,90.3 L 11.6,90.3 L 11.6,90.3 L 11.5,90.3 L 11.5,90.3 L 11.4,90.2 L 11.4,90.2 L 11.4,90.2 L 11.3,90.1 L 11.3,90.1 L 11.3,90.0 L 11.3,90.0 L 11.2,90.0 L 11.2,89.9 L 11.2,89.9 L 11.2,89.8 L 11.2,89.8 L 11.2,89.7 L 11.2,89.7 L 11.2,89.6 L 11.3,89.6 L 11.3,89.5 L 11.3,89.5 L 11.3,89.4 L 11.4,89.4 L 11.4,89.4 L 11.4,89.3 L 11.5,89.3 L 11.5,89.3 L 11.6,89.2 L 11.6,89.2 L 11.7,89.2 L 11.7,89.2 L 11.8,89.2 L 11.8,89.2 L 11.9,89.2 L 11.9,89.2 L 12.0,89.2 L 12.0,89.2 L 12.1,89.3 L 12.1,89.3 L 12.1,89.3 L 12.2,89.3 L 12.2,89.4 L 12.2,89.4 L 12.3,89.5 L 12.3,89.5 L 12.3,89.5 L 12.3,89.6 L 12.4,89.6 L 12.4,89.7 L 12.4,89.7 L 12.4,89.8 L 11.8,89.8 Z" style="fill:#000000;fill-rule:evenodd;fill-opacity:1;stroke:#000000;stroke-width:0.0px;stroke-linecap:butt;stroke-linejoin:miter;stroke-opacity:1;"/>
<path class="atom-13" d="M 12.4,87.5 L 12.4,87.5 L 12.4,87.6 L 12.4,87.6 L 12.3,87.7 L 12.3,87.7 L 12.3,87.7 L 12.3,87.8 L 12.2,87.8 L 12.2,87.9 L 12.2,87.9 L 12.1,87.9 L 12.1,88.0 L 12.1,88.0 L 12.0,88.0 L 12.0,88.0 L 11.9,88.0 L 11.9,88.0 L 11.8,88.0 L 11.8,88.0 L 11.7,88.0 L 11.7,88.0 L 11.6,88.0 L 11.6,88.0 L 11.5,88.0 L 11.5,87.9 L 11.4,87.9 L 11.4,87.9 L 11.4,87.8 L 11.3,87.8 L 11.3,87.8 L 11.3,87.7 L 11.3,87.7 L 11.2,87.6 L 11.2,87.6 L 11.2,87.5 L 11.2,87.5 L 11.2,87.4 L 11.2,87.4 L 11.2,87.3 L 11.2,87.3 L 11.3,87.2 L 11.3,87.2 L 11.3,87.1 L 11.3,87.1 L 11.4,87.1 L 11.4,87.0 L 11.4,87.0 L 11.5,87.0 L 11.5,86.9 L 11.6,86.9 L 11.6,86.9 L 11.7,86.9 L 11.7,86.9 L 11.8,86.9 L 11.8,86.9 L 11.9,86.9 L 11.9,86.9 L 12.0,86.9 L 12.0,86.9 L 12.1,86.9 L 12.1,87.0 L 12.1,87.0 L 12.2,87.0 L 12.2,87.1 L 12.2,87.1 L 12.3,87.1 L 12.3,87.2 L 12.3,87.2 L 12.3,87.3 L 12.4,87.3 L 12.4,87.4 L 12.4,87.4 L 12.4,87.5 L 11.8,87.5 Z" style="fill:#000000;fill-rule:evenodd;fill-opacity:1;stroke:#000000;stroke-width:0.0px;stroke-linecap:butt;stroke-linejoin:miter;stroke-opacity:1;"/>
<path class="bond-0 atom-0 atom-1" d="M 348.4,179.2 L 365.1,165.0" style="fill:none;fill-rule:evenodd;stroke:#000000;stroke-width:2.0px;stroke-linecap:butt;stroke-linejoin:miter;stroke-opacity:1"/>
<path class="bond-0 atom-0 atom-1" d="M 352.6,184.1 L 369.2,169.9" style="fill:none;fill-rule:evenodd;stroke:#000000;stroke-width:2.0px;stroke-linecap:butt;stroke-linejoin:miter;stroke-opacity:1"/>
<path class="bond-1 atom-1 atom-2" d="M 367.1,167.5 L 384.5,183.6" style="fill:none;fill-rule:evenodd;stroke:#000000;stroke-width:2.0px;stroke-linecap:butt;stroke-linejoin:miter;stroke-opacity:1"/>
<path class="bond-2 atom-2 atom-3" d="M 395.0,190.3 L 421.3,197.4" style="fill:none;fill-rule:evenodd;stroke:#000000;stroke-width:2.0px;stroke-linecap:butt;stroke-linejoin:miter;stroke-opacity:1"/>
<path class="bond-3 atom-3 atom-4" d="M 421.3,197.4 L 452.4,190.4" style="fill:none;fill-rule:evenodd;stroke:#000000;stroke-width:2.0px;stroke-linecap:butt;stroke-linejoin:miter;stroke-opacity:1"/>
<path class="bond-4 atom-4 atom-5" d="M 452.4,190.4 L 476.7,169.8" style="fill:none;fill-rule:evenodd;stroke:#000000;stroke-width:2.0px;stroke-linecap:butt;stroke-linejoin:miter;stroke-opacity:1"/>
<path class="bond-5 atom-5 atom-6" d="M 476.7,169.8 L 488.6,140.3" style="fill:none;fill-rule:evenodd;stroke:#000000;stroke-width:2.0px;stroke-linecap:butt;stroke-linejoin:miter;stroke-opacity:1"/>
<path class="bond-5 atom-5 atom-6" d="M 472.6,163.0 L 480.9,142.3" style="fill:none;fill-rule:evenodd;stroke:#000000;stroke-width:2.0px;stroke-linecap:butt;stroke-linejoin:miter;stroke-opacity:1"/>
<path class="bond-6 atom-6 atom-7" d="M 488.6,140.3 L 485.5,108.6" style="fill:none;fill-rule:evenodd;stroke:#000000;stroke-width:2.0px;stroke-linecap:butt;stroke-linejoin:miter;stroke-opacity:1"/>
<path class="bond-7 atom-7 atom-8" d="M 485.5,108.6 L 467.9,82.0" style="fill:none;fill-rule:evenodd;stroke:#000000;stroke-width:2.0px;stroke-linecap:butt;stroke-linejoin:miter;stroke-opacity:1"/>
<path class="bond-7 atom-7 atom-8" d="M 477.5,108.1 L 465.2,89.5" style="fill:none;fill-rule:evenodd;stroke:#000000;stroke-width:2.0px;stroke-linecap:butt;stroke-linejoin:miter;stroke-opacity:1"/>
<path class="bond-8 atom-8 atom-9" d="M 467.9,82.0 L 440.0,66.5" style="fill:none;fill-rule:evenodd;stroke:#000000;stroke-width:2.0px;stroke-linecap:butt;stroke-linejoin:miter;stroke-opacity:1"/>
<path class="bond-9 atom-9 atom-10" d="M 440.0,66.5 L 408.2,65.9" style="fill:none;fill-rule:evenodd;stroke:#000000;stroke-width:2.0px;stroke-linecap:butt;stroke-linejoin:miter;stroke-opacity:1"/>
<path class="bond-9 atom-9 atom-10" d="M 435.1,72.8 L 412.8,72.3" style="fill:none;fill-rule:evenodd;stroke:#000000;stroke-width:2.0px;stroke-linecap:butt;stroke-linejoin:miter;stroke-opacity:1"/>
<path class="bond-10 atom-10 atom-11" d="M 408.2,65.9 L 384.8,77.5" style="fill:none;fill-rule:evenodd;stroke:#000000;stroke-width:2.0px;stroke-linecap:butt;stroke-linejoin:miter;stroke-opacity:1"/>
<path class="bond-11 atom-11 atom-12" d="M 375.5,85.8 L 361.0,105.9" style="fill:none;fill-rule:evenodd;stroke:#000000;stroke-width:2.0px;stroke-linecap:butt;stroke-linejoin:miter;stroke-opacity:1"/>
<path class="bond-12 atom-12 atom-13" d="M 361.0,105.9 L 331.5,94.0" style="fill:none;fill-rule:evenodd;stroke:#000000;stroke-width:2.0px;stroke-linecap:butt;stroke-linejoin:miter;stroke-opacity:1"/>
<path class="bond-13 atom-13 atom-14" d="M 331.5,94.0 L 327.0,62.4" style="fill:none;fill-rule:evenodd;stroke:#000000;stroke-width:2.0px;stroke-linecap:butt;stroke-linejoin:miter;stroke-opacity:1"/>
<path class="bond-14 atom-14 atom-15" d="M 327.0,62.4 L 297.5,50.5" style="fill:none;fill-rule:evenodd;stroke:#000000;stroke-width:2.0px;stroke-linecap:butt;stroke-linejoin:miter;stroke-opacity:1"/>
<path class="bond-15 atom-1 atom-16" d="M 367.1,167.5 L 356.5,137.4" style="fill:none;fill-rule:evenodd;stroke:#000000;stroke-width:2.0px;stroke-linecap:butt;stroke-linejoin:miter;stroke-opacity:1"/>
<path class="bond-16 atom-16 atom-17" d="M 356.5,137.4 L 324.8,140.6" style="fill:none;fill-rule:evenodd;stroke:#000000;stroke-width:2.0px;stroke-linecap:butt;stroke-linejoin:miter;stroke-opacity:1"/>
<path class="bond-17 atom-17 atom-18" d="M 324.8,140.6 L 306.2,114.7" style="fill:none;fill-rule:evenodd;stroke:#000000;stroke-width:2.0px;stroke-linecap:butt;stroke-linejoin:miter;stroke-opacity:1"/>
<path class="bond-17 atom-17 atom-18" d="M 316.8,140.5 L 303.8,122.3" style="fill:none;fill-rule:evenodd;stroke:#000000;stroke-width:2.0px;stroke-linecap:butt;stroke-linejoin:miter;stroke-opacity:1"/>
<path class="bond-18 atom-18 atom-19" d="M 306.2,114.7 L 274.5,117.9" style="fill:none;fill-rule:evenodd;stroke:#000000;stroke-width:2.0px;stroke-linecap:butt;stroke-linejoin:miter;stroke-opacity:1"/>
<path class="bond-19 atom-19 atom-20" d="M 274.5,117.9 L 261.4,146.9" style="fill:none;fill-rule:evenodd;stroke:#000000;stroke-width:2.0px;stroke-linecap:butt;stroke-linejoin:miter;stroke-opacity:1"/>
<path class="bond-19 atom-19 atom-20" d="M 278.3,124.9 L 269.1,145.2" style="fill:none;fill-rule:evenodd;stroke:#000000;stroke-width:2.0px;stroke-linecap:butt;stroke-linejoin:miter;stroke-opacity:1"/>
<path class="bond-20 atom-20 atom-21" d="M 261.4,146.9 L 280.0,172.8" style="fill:none;fill-rule:evenodd;stroke:#000000;stroke-width:2.0px;stroke-linecap:butt;stroke-linejoin:miter;stroke-opacity:1"/>
<path class="bond-21 atom-21 atom-22" d="M 280.0,172.8 L 311.7,169.7" style="fill:none;fill-rule:evenodd;stroke:#000000;stroke-width:2.0px;stroke-linecap:butt;stroke-linejoin:miter;stroke-opacity:1"/>
<path class="bond-21 atom-21 atom-22" d="M 284.1,166.0 L 306.3,163.8" style="fill:none;fill-rule:evenodd;stroke:#000000;stroke-width:2.0px;stroke-linecap:butt;stroke-linejoin:miter;stroke-opacity:1"/>
<path class="bond-22 atom-22 atom-23" d="M 311.7,169.7 L 322.4,189.2" style="fill:none;fill-rule:evenodd;stroke:#000000;stroke-width:2.0px;stroke-linecap:butt;stroke-linejoin:miter;stroke-opacity:1"/>
<path class="bond-23 atom-16 atom-12" d="M 356.5,137.4 L 361.0,105.9" style="fill:none;fill-rule:evenodd;stroke:#000000;stroke-width:2.0px;stroke-linecap:butt;stroke-linejoin:miter;stroke-opacity:1"/>
<path class="bond-24 atom-22 atom-17" d="M 311.7,169.7 L 324.8,140.6" style="fill:none;fill-rule:evenodd;stroke:#000000;stroke-width:2.0px;stroke-linecap:butt;stroke-linejoin:miter;stroke-opacity:1"/>
<path class="atom-0" d="M 341.2 186.1 Q 341.2 183.9, 342.2 182.7 Q 343.3 181.5, 345.3 181.5 Q 347.3 181.5, 348.4 182.7 Q 349.4 183.9, 349.4 186.1 Q 349.4 188.3, 348.4 189.5 Q 347.3 190.8, 345.3 190.8 Q 343.3 190.8, 342.2 189.5 Q 341.2 188.3, 341.2 186.1 M 345.3 189.7 Q 346.7 189.7, 347.4 188.8 Q 348.2 187.9, 348.2 186.1 Q 348.2 184.3, 347.4 183.4 Q 346.7 182.5, 345.3 182.5 Q 343.9 182.5, 343.2 183.4 Q 342.4 184.3, 342.4 186.1 Q 342.4 187.9, 343.2 188.8 Q 343.9 189.7, 345.3 189.7 " fill="#000000"/>
<path class="atom-2" d="M 379.0 184.6 L 380.2 184.6 L 380.2 188.4 L 384.8 188.4 L 384.8 184.6 L 386.0 184.6 L 386.0 193.6 L 384.8 193.6 L 384.8 189.5 L 380.2 189.5 L 380.2 193.6 L 379.0 193.6 L 379.0 184.6 " fill="#000000"/>
<path class="atom-2" d="M 388.5 184.6 L 391.5 189.4 Q 391.8 189.9, 392.3 190.7 Q 392.7 191.6, 392.8 191.6 L 392.8 184.6 L 394.0 184.6 L 394.0 193.6 L 392.7 193.6 L 389.6 188.4 Q 389.2 187.8, 388.8 187.1 Q 388.4 186.4, 388.3 186.2 L 388.3 193.6 L 387.1 193.6 L 387.1 184.6 L 388.5 184.6 " fill="#000000"/>
<path class="atom-11" d="M 375.5 80.1 Q 375.5 77.9, 376.6 76.7 Q 377.7 75.5, 379.7 75.5 Q 381.7 75.5, 382.7 76.7 Q 383.8 77.9, 383.8 80.1 Q 383.8 82.3, 382.7 83.5 Q 381.6 84.8, 379.7 84.8 Q 377.7 84.8, 376.6 83.5 Q 375.5 82.3, 375.5 80.1 M 379.7 83.8 Q 381.0 83.8, 381.8 82.8 Q 382.5 81.9, 382.5 80.1 Q 382.5 78.3, 381.8 77.4 Q 381.0 76.5, 379.7 76.5 Q 378.3 76.5, 377.5 77.4 Q 376.8 78.3, 376.8 80.1 Q 376.8 81.9, 377.5 82.8 Q 378.3 83.8, 379.7 83.8 " fill="#000000"/>
<path class="atom-23" d="M 321.3 194.8 Q 321.3 192.7, 322.4 191.5 Q 323.4 190.2, 325.4 190.2 Q 327.4 190.2, 328.5 191.5 Q 329.6 192.7, 329.6 194.8 Q 329.6 197.0, 328.5 198.3 Q 327.4 199.5, 325.4 199.5 Q 323.4 199.5, 322.4 198.3 Q 321.3 197.0, 321.3 194.8 M 325.4 198.5 Q 326.8 198.5, 327.6 197.6 Q 328.3 196.6, 328.3 194.8 Q 328.3 193.1, 327.6 192.2 Q 326.8 191.3, 325.4 191.3 Q 324.1 191.3, 323.3 192.2 Q 322.6 193.1, 322.6 194.8 Q 322.6 196.7, 323.3 197.6 Q 324.1 198.5, 325.4 198.5 " fill="#000000"/>
<path class="atom-23" d="M 330.2 190.4 L 331.4 190.4 L 331.4 194.2 L 336.1 194.2 L 336.1 190.4 L 337.3 190.4 L 337.3 199.4 L 336.1 199.4 L 336.1 195.2 L 331.4 195.2 L 331.4 199.4 L 330.2 199.4 L 330.2 190.4 " fill="#000000"/>
<path class="bond-0 atom-0 atom-1" d="M 535.1,123.4 L 523.8,116.6" style="fill:none;fill-rule:evenodd;stroke:#000000;stroke-width:2.0px;stroke-linecap:butt;stroke-linejoin:miter;stroke-opacity:1"/>
<path class="bond-1 atom-1 atom-2" d="M 519.2,118.4 L 511.4,131.3" style="fill:none;fill-rule:evenodd;stroke:#000000;stroke-width:2.0px;stroke-linecap:butt;stroke-linejoin:miter;stroke-opacity:1"/>
<path class="bond-1 atom-1 atom-2" d="M 521.3,122.3 L 515.8,131.4" style="fill:none;fill-rule:evenodd;stroke:#000000;stroke-width:2.0px;stroke-linecap:butt;stroke-linejoin:miter;stroke-opacity:1"/>
<path class="bond-2 atom-2 atom-3" d="M 511.4,131.3 L 525.0,139.5" style="fill:none;fill-rule:evenodd;stroke:#000000;stroke-width:2.0px;stroke-linecap:butt;stroke-linejoin:miter;stroke-opacity:1"/>
<path class="bond-3 atom-3 atom-4" d="M 530.4,141.2 L 546.7,141.5" style="fill:none;fill-rule:evenodd;stroke:#000000;stroke-width:2.0px;stroke-linecap:butt;stroke-linejoin:miter;stroke-opacity:1"/>
<path class="bond-4 atom-4 atom-5" d="M 546.7,141.5 L 563.0,151.3" style="fill:none;fill-rule:evenodd;stroke:#000000;stroke-width:2.0px;stroke-linecap:butt;stroke-linejoin:miter;stroke-opacity:1"/>
<path class="bond-5 atom-5 atom-6" d="M 563.0,151.3 L 562.7,170.3" style="fill:none;fill-rule:evenodd;stroke:#000000;stroke-width:2.0px;stroke-linecap:butt;stroke-linejoin:miter;stroke-opacity:1"/>
<path class="bond-5 atom-5 atom-6" d="M 566.8,154.2 L 566.6,167.5" style="fill:none;fill-rule:evenodd;stroke:#000000;stroke-width:2.0px;stroke-linecap:butt;stroke-linejoin:miter;stroke-opacity:1"/>
<path class="bond-6 atom-6 atom-7" d="M 562.7,170.3 L 576.3,178.5" style="fill:none;fill-rule:evenodd;stroke:#000000;stroke-width:2.0px;stroke-linecap:butt;stroke-linejoin:miter;stroke-opacity:1"/>
<path class="bond-7 atom-7 atom-8" d="M 581.7,178.7 L 595.7,170.9" style="fill:none;fill-rule:evenodd;stroke:#000000;stroke-width:2.0px;stroke-linecap:butt;stroke-linejoin:miter;stroke-opacity:1"/>
<path class="bond-7 atom-7 atom-8" d="M 581.9,174.2 L 591.7,168.8" style="fill:none;fill-rule:evenodd;stroke:#000000;stroke-width:2.0px;stroke-linecap:butt;stroke-linejoin:miter;stroke-opacity:1"/>
<path class="bond-8 atom-8 atom-9" d="M 595.7,170.9 L 596.0,151.9" style="fill:none;fill-rule:evenodd;stroke:#000000;stroke-width:2.0px;stroke-linecap:butt;stroke-linejoin:miter;stroke-opacity:1"/>
<path class="bond-9 atom-9 atom-10" d="M 596.0,151.9 L 579.7,142.1" style="fill:none;fill-rule:evenodd;stroke:#000000;stroke-width:2.0px;stroke-linecap:butt;stroke-linejoin:miter;stroke-opacity:1"/>
<path class="bond-9 atom-9 atom-10" d="M 591.6,153.7 L 580.2,146.8" style="fill:none;fill-rule:evenodd;stroke:#000000;stroke-width:2.0px;stroke-linecap:butt;stroke-linejoin:miter;stroke-opacity:1"/>
<path class="bond-10 atom-9 atom-11" d="M 596.0,151.9 L 612.7,142.7" style="fill:none;fill-rule:evenodd;stroke:#000000;stroke-width:2.0px;stroke-linecap:butt;stroke-linejoin:miter;stroke-opacity:1"/>
<path class="bond-11 atom-11 atom-12" d="M 612.7,142.7 L 612.9,127.1" style="fill:none;fill-rule:evenodd;stroke:#000000;stroke-width:2.0px;stroke-linecap:butt;stroke-linejoin:miter;stroke-opacity:1"/>
<path class="bond-12 atom-12 atom-13" d="M 615.3,122.7 L 630.7,116.7" style="fill:none;fill-rule:evenodd;stroke:#000000;stroke-width:2.0px;stroke-linecap:butt;stroke-linejoin:miter;stroke-opacity:1"/>
<path class="bond-13 atom-13 atom-14" d="M 630.7,116.7 L 641.6,127.9" style="fill:none;fill-rule:evenodd;stroke:#000000;stroke-width:2.0px;stroke-linecap:butt;stroke-linejoin:miter;stroke-opacity:1"/>
<path class="bond-14 atom-14 atom-15" d="M 642.9,134.0 L 634.7,141.9" style="fill:none;fill-rule:evenodd;stroke:#000000;stroke-width:2.0px;stroke-linecap:butt;stroke-linejoin:miter;stroke-opacity:1"/>
<path class="bond-14 atom-14 atom-15" d="M 640.2,131.3 L 632.0,139.2" style="fill:none;fill-rule:evenodd;stroke:#000000;stroke-width:2.0px;stroke-linecap:butt;stroke-linejoin:miter;stroke-opacity:1"/>
<path class="bond-15 atom-14 atom-16" d="M 645.0,126.7 L 653.2,118.8" style="fill:none;fill-rule:evenodd;stroke:#000000;stroke-width:2.0px;stroke-linecap:butt;stroke-linejoin:miter;stroke-opacity:1"/>
<path class="bond-15 atom-14 atom-16" d="M 647.6,129.4 L 655.8,121.5" style="fill:none;fill-rule:evenodd;stroke:#000000;stroke-width:2.0px;stroke-linecap:butt;stroke-linejoin:miter;stroke-opacity:1"/>
<path class="bond-16 atom-14 atom-17" d="M 646.3,132.8 L 654.5,141.3" style="fill:none;fill-rule:evenodd;stroke:#000000;stroke-width:2.0px;stroke-linecap:butt;stroke-linejoin:miter;stroke-opacity:1"/>
<path class="bond-17 atom-17 atom-18" d="M 659.8,143.4 L 675.6,139.4" style="fill:none;fill-rule:evenodd;stroke:#000000;stroke-width:2.0px;stroke-linecap:butt;stroke-linejoin:miter;stroke-opacity:1"/>
<path class="bond-18 atom-18 atom-19" d="M 675.6,139.4 L 679.5,120.8" style="fill:none;fill-rule:evenodd;stroke:#000000;stroke-width:2.0px;stroke-linecap:butt;stroke-linejoin:miter;stroke-opacity:1"/>
<path class="bond-19 atom-19 atom-20" d="M 679.5,120.8 L 696.5,112.2" style="fill:none;fill-rule:evenodd;stroke:#000000;stroke-width:2.0px;stroke-linecap:butt;stroke-linejoin:miter;stroke-opacity:1"/>
<path class="bond-19 atom-19 atom-20" d="M 683.8,122.9 L 695.7,116.9" style="fill:none;fill-rule:evenodd;stroke:#000000;stroke-width:2.0px;stroke-linecap:butt;stroke-linejoin:miter;stroke-opacity:1"/>
<path class="bond-20 atom-20 atom-21" d="M 696.5,112.2 L 713.8,120.1" style="fill:none;fill-rule:evenodd;stroke:#000000;stroke-width:2.0px;stroke-linecap:butt;stroke-linejoin:miter;stroke-opacity:1"/>
<path class="bond-21 atom-21 atom-22" d="M 713.8,120.1 L 718.4,138.6" style="fill:none;fill-rule:evenodd;stroke:#000000;stroke-width:2.0px;stroke-linecap:butt;stroke-linejoin:miter;stroke-opacity:1"/>
<path class="bond-21 atom-21 atom-22" d="M 710.8,123.8 L 714.0,136.8" style="fill:none;fill-rule:evenodd;stroke:#000000;stroke-width:2.0px;stroke-linecap:butt;stroke-linejoin:miter;stroke-opacity:1"/>
<path class="bond-22 atom-22 atom-23" d="M 718.4,138.6 L 734.8,142.0" style="fill:none;fill-rule:evenodd;stroke:#000000;stroke-width:2.0px;stroke-linecap:butt;stroke-linejoin:miter;stroke-opacity:1"/>
<path class="bond-23 atom-22 atom-24" d="M 718.4,138.6 L 706.8,153.7" style="fill:none;fill-rule:evenodd;stroke:#000000;stroke-width:2.0px;stroke-linecap:butt;stroke-linejoin:miter;stroke-opacity:1"/>
<path class="bond-24 atom-24 atom-25" d="M 706.8,153.7 L 687.8,154.1" style="fill:none;fill-rule:evenodd;stroke:#000000;stroke-width:2.0px;stroke-linecap:butt;stroke-linejoin:miter;stroke-opacity:1"/>
<path class="bond-24 atom-24 atom-25" d="M 703.9,150.0 L 690.6,150.2" style="fill:none;fill-rule:evenodd;stroke:#000000;stroke-width:2.0px;stroke-linecap:butt;stroke-linejoin:miter;stroke-opacity:1"/>
<path class="bond-25 atom-13 atom-26" d="M 630.7,116.7 L 638.3,99.2" style="fill:none;fill-rule:evenodd;stroke:#000000;stroke-width:2.0px;stroke-linecap:butt;stroke-linejoin:miter;stroke-opacity:1"/>
<path class="bond-26 atom-26 atom-27" d="M 638.3,99.2 L 631.3,81.5" style="fill:none;fill-rule:evenodd;stroke:#000000;stroke-width:2.0px;stroke-linecap:butt;stroke-linejoin:miter;stroke-opacity:1"/>
<path class="bond-27 atom-27 atom-28" d="M 631.3,81.5 L 616.5,75.0" style="fill:none;fill-rule:evenodd;stroke:#000000;stroke-width:2.0px;stroke-linecap:butt;stroke-linejoin:miter;stroke-opacity:1"/>
<path class="bond-27 atom-27 atom-28" d="M 627.6,84.0 L 617.2,79.5" style="fill:none;fill-rule:evenodd;stroke:#000000;stroke-width:2.0px;stroke-linecap:butt;stroke-linejoin:miter;stroke-opacity:1"/>
<path class="bond-28 atom-28 atom-29" d="M 611.2,74.9 L 596.2,80.9" style="fill:none;fill-rule:evenodd;stroke:#000000;stroke-width:2.0px;stroke-linecap:butt;stroke-linejoin:miter;stroke-opacity:1"/>
<path class="bond-29 atom-29 atom-30" d="M 596.2,80.9 L 582.9,67.2" style="fill:none;fill-rule:evenodd;stroke:#000000;stroke-width:2.0px;stroke-linecap:butt;stroke-linejoin:miter;stroke-opacity:1"/>
<path class="bond-30 atom-29 atom-31" d="M 596.2,80.9 L 588.6,98.3" style="fill:none;fill-rule:evenodd;stroke:#000000;stroke-width:2.0px;stroke-linecap:butt;stroke-linejoin:miter;stroke-opacity:1"/>
<path class="bond-30 atom-29 atom-31" d="M 598.5,85.0 L 593.2,97.2" style="fill:none;fill-rule:evenodd;stroke:#000000;stroke-width:2.0px;stroke-linecap:butt;stroke-linejoin:miter;stroke-opacity:1"/>
<path class="bond-31 atom-31 atom-32" d="M 588.6,98.3 L 594.2,112.7" style="fill:none;fill-rule:evenodd;stroke:#000000;stroke-width:2.0px;stroke-linecap:butt;stroke-linejoin:miter;stroke-opacity:1"/>
<path class="bond-32 atom-3 atom-0" d="M 529.7,137.8 L 535.4,128.3" style="fill:none;fill-rule:evenodd;stroke:#000000;stroke-width:2.0px;stroke-linecap:butt;stroke-linejoin:miter;stroke-opacity:1"/>
<path class="bond-33 atom-0 atom-4" d="M 539.4,128.3 L 546.7,141.5" style="fill:none;fill-rule:evenodd;stroke:#000000;stroke-width:2.0px;stroke-linecap:butt;stroke-linejoin:miter;stroke-opacity:1"/>
<path class="bond-33 atom-0 atom-4" d="M 537.2,132.1 L 542.3,141.4" style="fill:none;fill-rule:evenodd;stroke:#000000;stroke-width:2.0px;stroke-linecap:butt;stroke-linejoin:miter;stroke-opacity:1"/>
<path class="bond-34 atom-10 atom-5" d="M 579.7,142.1 L 563.0,151.3" style="fill:none;fill-rule:evenodd;stroke:#000000;stroke-width:2.0px;stroke-linecap:butt;stroke-linejoin:miter;stroke-opacity:1"/>
<path class="bond-35 atom-32 atom-12" d="M 598.2,117.2 L 610.6,122.6" style="fill:none;fill-rule:evenodd;stroke:#000000;stroke-width:2.0px;stroke-linecap:butt;stroke-linejoin:miter;stroke-opacity:1"/>
<path class="bond-36 atom-25 atom-18" d="M 687.8,154.1 L 675.6,139.4" style="fill:none;fill-rule:evenodd;stroke:#000000;stroke-width:2.0px;stroke-linecap:butt;stroke-linejoin:miter;stroke-opacity:1"/>
<path class="atom-0" d="M 536.0 126.7 Q 536.0 126.7, 536.3 126.8 Q 536.5 126.9, 536.8 127.0 Q 537.1 127.1, 537.4 127.1 Q 537.9 127.1, 538.2 126.8 Q 538.5 126.6, 538.5 126.1 Q 538.5 125.8, 538.3 125.6 Q 538.2 125.5, 537.9 125.4 Q 537.7 125.3, 537.3 125.2 Q 536.8 125.0, 536.6 124.9 Q 536.3 124.7, 536.1 124.4 Q 535.9 124.2, 535.9 123.7 Q 535.9 123.0, 536.3 122.6 Q 536.8 122.2, 537.7 122.2 Q 538.3 122.2, 539.0 122.4 L 538.9 123.0 Q 538.2 122.8, 537.7 122.8 Q 537.2 122.8, 536.9 123.0 Q 536.6 123.2, 536.6 123.6 Q 536.6 123.9, 536.8 124.0 Q 536.9 124.2, 537.1 124.3 Q 537.4 124.4, 537.7 124.5 Q 538.2 124.7, 538.5 124.8 Q 538.8 125.0, 539.0 125.3 Q 539.2 125.6, 539.2 126.1 Q 539.2 126.9, 538.7 127.3 Q 538.2 127.7, 537.4 127.7 Q 536.9 127.7, 536.5 127.6 Q 536.2 127.5, 535.8 127.3 L 536.0 126.7 " fill="#000000"/>
<path class="atom-1" d="M 520.0 112.3 L 521.7 115.2 Q 521.9 115.5, 522.2 116.0 Q 522.5 116.5, 522.5 116.5 L 522.5 112.3 L 523.2 112.3 L 523.2 117.7 L 522.5 117.7 L 520.6 114.6 Q 520.4 114.2, 520.1 113.8 Q 519.9 113.4, 519.8 113.3 L 519.8 117.7 L 519.1 117.7 L 519.1 112.3 L 520.0 112.3 " fill="#000000"/>
<path class="atom-3" d="M 526.5 138.5 L 528.3 141.3 Q 528.4 141.6, 528.7 142.1 Q 529.0 142.6, 529.0 142.6 L 529.0 138.5 L 529.7 138.5 L 529.7 143.9 L 529.0 143.9 L 527.1 140.7 Q 526.9 140.4, 526.6 139.9 Q 526.4 139.5, 526.3 139.4 L 526.3 143.9 L 525.6 143.9 L 525.6 138.5 L 526.5 138.5 " fill="#000000"/>
<path class="atom-7" d="M 577.8 177.5 L 579.6 180.3 Q 579.8 180.6, 580.0 181.1 Q 580.3 181.6, 580.3 181.6 L 580.3 177.5 L 581.1 177.5 L 581.1 182.8 L 580.3 182.8 L 578.4 179.7 Q 578.2 179.4, 578.0 178.9 Q 577.7 178.5, 577.7 178.4 L 577.7 182.8 L 577.0 182.8 L 577.0 177.5 L 577.8 177.5 " fill="#000000"/>
<path class="atom-12" d="M 611.5 125.5 Q 611.5 125.5, 611.8 125.6 Q 612.0 125.7, 612.3 125.8 Q 612.6 125.8, 612.9 125.8 Q 613.4 125.8, 613.7 125.6 Q 614.0 125.3, 614.0 124.9 Q 614.0 124.6, 613.8 124.4 Q 613.7 124.2, 613.4 124.1 Q 613.2 124.1, 612.8 123.9 Q 612.4 123.8, 612.1 123.7 Q 611.8 123.5, 611.6 123.2 Q 611.4 122.9, 611.4 122.5 Q 611.4 121.8, 611.8 121.4 Q 612.3 120.9, 613.2 120.9 Q 613.8 120.9, 614.5 121.2 L 614.4 121.8 Q 613.7 121.6, 613.2 121.6 Q 612.7 121.6, 612.4 121.8 Q 612.1 122.0, 612.1 122.4 Q 612.1 122.6, 612.3 122.8 Q 612.4 123.0, 612.6 123.1 Q 612.9 123.2, 613.2 123.3 Q 613.7 123.5, 614.0 123.6 Q 614.3 123.8, 614.5 124.1 Q 614.7 124.4, 614.7 124.9 Q 614.7 125.7, 614.2 126.1 Q 613.7 126.5, 612.9 126.5 Q 612.4 126.5, 612.0 126.4 Q 611.7 126.3, 611.3 126.1 L 611.5 125.5 " fill="#000000"/>
<path class="atom-12" d="M 610.9 114.9 L 611.6 114.9 L 611.6 117.1 L 614.4 117.1 L 614.4 114.9 L 615.1 114.9 L 615.1 120.2 L 614.4 120.2 L 614.4 117.8 L 611.6 117.8 L 611.6 120.2 L 610.9 120.2 L 610.9 114.9 " fill="#000000"/>
<path class="atom-14" d="M 642.4 132.2 Q 642.5 132.2, 642.7 132.3 Q 643.0 132.4, 643.2 132.5 Q 643.5 132.6, 643.8 132.6 Q 644.3 132.6, 644.6 132.3 Q 644.9 132.1, 644.9 131.6 Q 644.9 131.3, 644.8 131.2 Q 644.6 131.0, 644.4 130.9 Q 644.1 130.8, 643.8 130.7 Q 643.3 130.5, 643.0 130.4 Q 642.7 130.2, 642.5 130.0 Q 642.3 129.7, 642.3 129.2 Q 642.3 128.5, 642.8 128.1 Q 643.2 127.7, 644.1 127.7 Q 644.8 127.7, 645.5 128.0 L 645.3 128.5 Q 644.7 128.3, 644.2 128.3 Q 643.6 128.3, 643.4 128.5 Q 643.1 128.7, 643.1 129.1 Q 643.1 129.4, 643.2 129.5 Q 643.4 129.7, 643.6 129.8 Q 643.8 129.9, 644.2 130.0 Q 644.7 130.2, 644.9 130.3 Q 645.2 130.5, 645.4 130.8 Q 645.7 131.1, 645.7 131.6 Q 645.7 132.4, 645.2 132.8 Q 644.7 133.2, 643.8 133.2 Q 643.3 133.2, 643.0 133.1 Q 642.6 133.0, 642.2 132.8 L 642.4 132.2 " fill="#000000"/>
<path class="atom-15" d="M 627.8 143.6 Q 627.8 142.3, 628.4 141.6 Q 629.0 140.8, 630.2 140.8 Q 631.4 140.8, 632.1 141.6 Q 632.7 142.3, 632.7 143.6 Q 632.7 144.9, 632.1 145.6 Q 631.4 146.4, 630.2 146.4 Q 629.0 146.4, 628.4 145.6 Q 627.8 144.9, 627.8 143.6 M 630.2 145.8 Q 631.1 145.8, 631.5 145.2 Q 631.9 144.7, 631.9 143.6 Q 631.9 142.5, 631.5 142.0 Q 631.1 141.5, 630.2 141.5 Q 629.4 141.5, 629.0 142.0 Q 628.5 142.5, 628.5 143.6 Q 628.5 144.7, 629.0 145.2 Q 629.4 145.8, 630.2 145.8 " fill="#000000"/>
<path class="atom-16" d="M 655.2 117.1 Q 655.2 115.8, 655.8 115.1 Q 656.4 114.4, 657.6 114.4 Q 658.8 114.4, 659.5 115.1 Q 660.1 115.8, 660.1 117.1 Q 660.1 118.5, 659.5 119.2 Q 658.8 119.9, 657.6 119.9 Q 656.4 119.9, 655.8 119.2 Q 655.2 118.5, 655.2 117.1 M 657.6 119.3 Q 658.4 119.3, 658.9 118.8 Q 659.3 118.2, 659.3 117.1 Q 659.3 116.1, 658.9 115.6 Q 658.4 115.0, 657.6 115.0 Q 656.8 115.0, 656.4 115.5 Q 655.9 116.1, 655.9 117.1 Q 655.9 118.2, 656.4 118.8 Q 656.8 119.3, 657.6 119.3 " fill="#000000"/>
<path class="atom-17" d="M 656.0 141.4 L 657.7 144.2 Q 657.9 144.5, 658.2 145.0 Q 658.5 145.5, 658.5 145.5 L 658.5 141.4 L 659.2 141.4 L 659.2 146.7 L 658.5 146.7 L 656.6 143.6 Q 656.3 143.3, 656.1 142.8 Q 655.9 142.4, 655.8 142.3 L 655.8 146.7 L 655.1 146.7 L 655.1 141.4 L 656.0 141.4 " fill="#000000"/>
<path class="atom-17" d="M 655.0 147.3 L 655.8 147.3 L 655.8 149.6 L 658.5 149.6 L 658.5 147.3 L 659.3 147.3 L 659.3 152.7 L 658.5 152.7 L 658.5 150.2 L 655.8 150.2 L 655.8 152.7 L 655.0 152.7 L 655.0 147.3 " fill="#000000"/>
<path class="atom-23" d="M 735.4 139.8 L 738.6 139.8 L 738.6 140.4 L 736.2 140.4 L 736.2 142.0 L 738.4 142.0 L 738.4 142.7 L 736.2 142.7 L 736.2 145.2 L 735.4 145.2 L 735.4 139.8 " fill="#000000"/>
<path class="atom-28" d="M 612.7 71.2 L 614.4 74.0 Q 614.6 74.3, 614.9 74.8 Q 615.2 75.3, 615.2 75.4 L 615.2 71.2 L 615.9 71.2 L 615.9 76.6 L 615.2 76.6 L 613.3 73.5 Q 613.1 73.1, 612.8 72.7 Q 612.6 72.3, 612.5 72.1 L 612.5 76.6 L 611.8 76.6 L 611.8 71.2 L 612.7 71.2 " fill="#000000"/>
<path class="atom-32" d="M 588.6 113.3 L 589.4 113.3 L 589.4 115.6 L 592.1 115.6 L 592.1 113.3 L 592.8 113.3 L 592.8 118.7 L 592.1 118.7 L 592.1 116.2 L 589.4 116.2 L 589.4 118.7 L 588.6 118.7 L 588.6 113.3 " fill="#000000"/>
<path class="atom-32" d="M 594.3 113.3 L 596.1 116.2 Q 596.3 116.5, 596.6 117.0 Q 596.8 117.5, 596.9 117.5 L 596.9 113.3 L 597.6 113.3 L 597.6 118.7 L 596.8 118.7 L 594.9 115.6 Q 594.7 115.2, 594.5 114.8 Q 594.3 114.4, 594.2 114.3 L 594.2 118.7 L 593.5 118.7 L 593.5 113.3 L 594.3 113.3 " fill="#000000"/>
<path class="bond-0 atom-0 atom-1" d="M 21.9,373.7 L 59.2,364.1" style="fill:none;fill-rule:evenodd;stroke:#000000;stroke-width:2.0px;stroke-linecap:butt;stroke-linejoin:miter;stroke-opacity:1"/>
<path class="bond-1 atom-1 atom-2" d="M 73.9,369.7 L 103.2,399.6" style="fill:none;fill-rule:evenodd;stroke:#000000;stroke-width:2.0px;stroke-linecap:butt;stroke-linejoin:miter;stroke-opacity:1"/>
<path class="bond-1 atom-1 atom-2" d="M 70.8,381.5 L 91.4,402.4" style="fill:none;fill-rule:evenodd;stroke:#000000;stroke-width:2.0px;stroke-linecap:butt;stroke-linejoin:miter;stroke-opacity:1"/>
<path class="bond-2 atom-3 atom-2" d="M 154.0,386.5 L 104.6,404.7 L 101.9,394.5 Z" style="fill:#000000;fill-rule:evenodd;fill-opacity:1;stroke:#000000;stroke-width:1.0px;stroke-linecap:butt;stroke-linejoin:miter;stroke-opacity:1;"/>
<path class="bond-3 atom-3 atom-4" d="M 154.0,386.5 L 194.4,419.8" style="fill:none;fill-rule:evenodd;stroke:#000000;stroke-width:2.0px;stroke-linecap:butt;stroke-linejoin:miter;stroke-opacity:1"/>
<path class="bond-4 atom-4 atom-5" d="M 194.4,419.8 L 238.6,391.7" style="fill:none;fill-rule:evenodd;stroke:#000000;stroke-width:2.0px;stroke-linecap:butt;stroke-linejoin:miter;stroke-opacity:1"/>
<path class="bond-5 atom-5 atom-6" d="M 238.6,391.7 L 225.5,340.9" style="fill:none;fill-rule:evenodd;stroke:#000000;stroke-width:2.0px;stroke-linecap:butt;stroke-linejoin:miter;stroke-opacity:1"/>
<path class="bond-6 atom-6 atom-7" d="M 225.5,340.9 L 181.8,338.2" style="fill:none;fill-rule:evenodd;stroke:#000000;stroke-width:2.0px;stroke-linecap:butt;stroke-linejoin:miter;stroke-opacity:1"/>
<path class="bond-7 atom-7 atom-3" d="M 169.5,347.2 L 154.0,386.5" style="fill:none;fill-rule:evenodd;stroke:#000000;stroke-width:2.0px;stroke-linecap:butt;stroke-linejoin:miter;stroke-opacity:1"/>
<path class="atom-0" d="M 11.4 367.9 L 20.2 367.9 L 20.2 369.6 L 13.4 369.6 L 13.4 374.1 L 19.4 374.1 L 19.4 375.8 L 13.4 375.8 L 13.4 382.7 L 11.4 382.7 L 11.4 367.9 " fill="#000000"/>
<path class="atom-1" d="M 63.2 354.8 L 68.1 362.6 Q 68.6 363.4, 69.4 364.8 Q 70.1 366.2, 70.2 366.3 L 70.2 354.8 L 72.1 354.8 L 72.1 369.6 L 70.1 369.6 L 64.9 361.0 Q 64.3 360.0, 63.6 358.9 Q 63.0 357.7, 62.8 357.3 L 62.8 369.6 L 60.9 369.6 L 60.9 354.8 L 63.2 354.8 " fill="#000000"/>
<path class="atom-7" d="M 166.4 337.7 Q 166.4 334.2, 168.2 332.2 Q 169.9 330.2, 173.2 330.2 Q 176.5 330.2, 178.3 332.2 Q 180.0 334.2, 180.0 337.7 Q 180.0 341.3, 178.2 343.4 Q 176.5 345.4, 173.2 345.4 Q 169.9 345.4, 168.2 343.4 Q 166.4 341.4, 166.4 337.7 M 173.2 343.8 Q 175.5 343.8, 176.7 342.2 Q 177.9 340.7, 177.9 337.7 Q 177.9 334.8, 176.7 333.4 Q 175.5 331.9, 173.2 331.9 Q 170.9 331.9, 169.7 333.3 Q 168.5 334.8, 168.5 337.7 Q 168.5 340.7, 169.7 342.2 Q 170.9 343.8, 173.2 343.8 " fill="#000000"/>
<path class="bond-0 atom-0 atom-1" d="M 267.9,360.3 L 286.5,359.3" style="fill:none;fill-rule:evenodd;stroke:#000000;stroke-width:2.0px;stroke-linecap:butt;stroke-linejoin:miter;stroke-opacity:1"/>
<path class="bond-1 atom-1 atom-2" d="M 286.5,359.3 L 296.1,374.1" style="fill:none;fill-rule:evenodd;stroke:#000000;stroke-width:2.0px;stroke-linecap:butt;stroke-linejoin:miter;stroke-opacity:1"/>
<path class="bond-2 atom-2 atom-3" d="M 301.8,377.8 L 320.9,376.8" style="fill:none;fill-rule:evenodd;stroke:#000000;stroke-width:2.0px;stroke-linecap:butt;stroke-linejoin:miter;stroke-opacity:1"/>
<path class="bond-3 atom-3 atom-4" d="M 320.9,376.8 L 330.5,391.5" style="fill:none;fill-rule:evenodd;stroke:#000000;stroke-width:2.0px;stroke-linecap:butt;stroke-linejoin:miter;stroke-opacity:1"/>
<path class="bond-4 atom-4 atom-5" d="M 329.8,401.7 L 322.9,415.3" style="fill:none;fill-rule:evenodd;stroke:#000000;stroke-width:2.0px;stroke-linecap:butt;stroke-linejoin:miter;stroke-opacity:1"/>
<path class="bond-5 atom-4 atom-6" d="M 339.6,395.1 L 355.2,394.3" style="fill:none;fill-rule:evenodd;stroke:#000000;stroke-width:2.0px;stroke-linecap:butt;stroke-linejoin:miter;stroke-opacity:1"/>
<path class="bond-6 atom-6 atom-7" d="M 355.2,394.3 L 365.3,374.4" style="fill:none;fill-rule:evenodd;stroke:#000000;stroke-width:2.0px;stroke-linecap:butt;stroke-linejoin:miter;stroke-opacity:1"/>
<path class="bond-7 atom-7 atom-8" d="M 365.3,374.4 L 353.2,355.7" style="fill:none;fill-rule:evenodd;stroke:#000000;stroke-width:2.0px;stroke-linecap:butt;stroke-linejoin:miter;stroke-opacity:1"/>
<path class="bond-7 atom-7 atom-8" d="M 367.2,369.2 L 358.7,356.1" style="fill:none;fill-rule:evenodd;stroke:#000000;stroke-width:2.0px;stroke-linecap:butt;stroke-linejoin:miter;stroke-opacity:1"/>
<path class="bond-8 atom-8 atom-9" d="M 353.2,355.7 L 363.3,335.9" style="fill:none;fill-rule:evenodd;stroke:#000000;stroke-width:2.0px;stroke-linecap:butt;stroke-linejoin:miter;stroke-opacity:1"/>
<path class="bond-9 atom-9 atom-10" d="M 363.3,335.9 L 385.5,334.7" style="fill:none;fill-rule:evenodd;stroke:#000000;stroke-width:2.0px;stroke-linecap:butt;stroke-linejoin:miter;stroke-opacity:1"/>
<path class="bond-9 atom-9 atom-10" d="M 366.9,340.2 L 382.4,339.3" style="fill:none;fill-rule:evenodd;stroke:#000000;stroke-width:2.0px;stroke-linecap:butt;stroke-linejoin:miter;stroke-opacity:1"/>
<path class="bond-10 atom-10 atom-11" d="M 385.5,334.7 L 397.7,353.4" style="fill:none;fill-rule:evenodd;stroke:#000000;stroke-width:2.0px;stroke-linecap:butt;stroke-linejoin:miter;stroke-opacity:1"/>
<path class="bond-11 atom-11 atom-12" d="M 397.7,353.4 L 387.6,373.2" style="fill:none;fill-rule:evenodd;stroke:#000000;stroke-width:2.0px;stroke-linecap:butt;stroke-linejoin:miter;stroke-opacity:1"/>
<path class="bond-11 atom-11 atom-12" d="M 392.2,354.4 L 385.1,368.2" style="fill:none;fill-rule:evenodd;stroke:#000000;stroke-width:2.0px;stroke-linecap:butt;stroke-linejoin:miter;stroke-opacity:1"/>
<path class="bond-12 atom-11 atom-13" d="M 397.7,353.4 L 419.9,352.2" style="fill:none;fill-rule:evenodd;stroke:#000000;stroke-width:2.0px;stroke-linecap:butt;stroke-linejoin:miter;stroke-opacity:1"/>
<path class="bond-13 atom-13 atom-14" d="M 419.9,352.2 L 432.0,370.9" style="fill:none;fill-rule:evenodd;stroke:#000000;stroke-width:2.0px;stroke-linecap:butt;stroke-linejoin:miter;stroke-opacity:1"/>
<path class="bond-14 atom-14 atom-15" d="M 432.0,370.9 L 454.3,369.7" style="fill:none;fill-rule:evenodd;stroke:#000000;stroke-width:2.0px;stroke-linecap:butt;stroke-linejoin:miter;stroke-opacity:1"/>
<path class="bond-15 atom-15 atom-16" d="M 454.3,369.7 L 466.4,388.4" style="fill:none;fill-rule:evenodd;stroke:#000000;stroke-width:2.0px;stroke-linecap:butt;stroke-linejoin:miter;stroke-opacity:1"/>
<path class="bond-16 atom-16 atom-17" d="M 466.4,388.4 L 488.6,387.2" style="fill:none;fill-rule:evenodd;stroke:#000000;stroke-width:2.0px;stroke-linecap:butt;stroke-linejoin:miter;stroke-opacity:1"/>
<path class="bond-17 atom-12 atom-7" d="M 387.6,373.2 L 365.3,374.4" style="fill:none;fill-rule:evenodd;stroke:#000000;stroke-width:2.0px;stroke-linecap:butt;stroke-linejoin:miter;stroke-opacity:1"/>
<path class="atom-0" d="M 261.4 360.5 Q 261.4 358.9, 262.1 358.1 Q 262.9 357.3, 264.3 357.3 Q 265.7 357.3, 266.4 358.1 Q 267.2 358.9, 267.2 360.5 Q 267.2 362.0, 266.4 362.9 Q 265.6 363.7, 264.3 363.7 Q 262.9 363.7, 262.1 362.9 Q 261.4 362.0, 261.4 360.5 M 264.3 363.0 Q 265.2 363.0, 265.7 362.4 Q 266.3 361.7, 266.3 360.5 Q 266.3 359.2, 265.7 358.6 Q 265.2 358.0, 264.3 358.0 Q 263.3 358.0, 262.8 358.6 Q 262.3 359.2, 262.3 360.5 Q 262.3 361.7, 262.8 362.4 Q 263.3 363.0, 264.3 363.0 " fill="#000000"/>
<path class="atom-0" d="M 267.6 358.3 L 269.8 358.3 L 269.8 358.8 L 267.6 358.8 L 267.6 358.3 " fill="#000000"/>
<path class="atom-2" d="M 290.5 374.8 L 291.4 374.8 L 291.4 377.5 L 294.6 377.5 L 294.6 374.8 L 295.5 374.8 L 295.5 381.1 L 294.6 381.1 L 294.6 378.2 L 291.4 378.2 L 291.4 381.1 L 290.5 381.1 L 290.5 374.8 " fill="#000000"/>
<path class="atom-2" d="M 297.2 374.8 L 299.3 378.1 Q 299.5 378.5, 299.8 379.1 Q 300.2 379.6, 300.2 379.7 L 300.2 374.8 L 301.0 374.8 L 301.0 381.1 L 300.2 381.1 L 297.9 377.4 Q 297.7 377.0, 297.4 376.5 Q 297.1 376.0, 297.1 375.9 L 297.1 381.1 L 296.2 381.1 L 296.2 374.8 L 297.2 374.8 " fill="#000000"/>
<path class="atom-4" d="M 331.6 392.3 L 333.7 395.6 Q 333.9 395.9, 334.2 396.5 Q 334.5 397.1, 334.6 397.2 L 334.6 392.3 L 335.4 392.3 L 335.4 398.6 L 334.5 398.6 L 332.3 394.9 Q 332.0 394.5, 331.8 394.0 Q 331.5 393.5, 331.4 393.4 L 331.4 398.6 L 330.6 398.6 L 330.6 392.3 L 331.6 392.3 " fill="#000000"/>
<path class="atom-4" d="M 336.1 393.4 L 337.2 393.4 L 337.2 392.2 L 337.7 392.2 L 337.7 393.4 L 338.9 393.4 L 338.9 393.8 L 337.7 393.8 L 337.7 395.0 L 337.2 395.0 L 337.2 393.8 L 336.1 393.8 L 336.1 393.4 " fill="#000000"/>
<path class="atom-4" d="M 330.5 399.2 L 331.4 399.2 L 331.4 401.9 L 334.6 401.9 L 334.6 399.2 L 335.5 399.2 L 335.5 405.5 L 334.6 405.5 L 334.6 402.6 L 331.4 402.6 L 331.4 405.5 L 330.5 405.5 L 330.5 399.2 " fill="#000000"/>
<path class="atom-3" d="M 324.0,376.8 L 324.0,376.8 L 324.0,376.8 L 324.0,376.9 L 324.0,376.9 L 323.9,376.9 L 323.9,377.0 L 323.9,377.0 L 323.9,377.0 L 323.9,377.1 L 323.8,377.1 L 323.8,377.1 L 323.8,377.1 L 323.7,377.2 L 323.7,377.2 L 323.7,377.2 L 323.6,377.2 L 323.6,377.2 L 323.5,377.2 L 323.5,377.2 L 323.5,377.2 L 323.4,377.2 L 323.4,377.2 L 323.4,377.2 L 323.3,377.2 L 323.3,377.1 L 323.3,377.1 L 323.2,377.1 L 323.2,377.1 L 323.2,377.0 L 323.2,377.0 L 323.1,377.0 L 323.1,376.9 L 323.1,376.9 L 323.1,376.9 L 323.1,376.8 L 323.1,376.8 L 323.1,376.7 L 323.1,376.7 L 323.1,376.7 L 323.1,376.6 L 323.1,376.6 L 323.1,376.6 L 323.2,376.5 L 323.2,376.5 L 323.2,376.5 L 323.2,376.4 L 323.3,376.4 L 323.3,376.4 L 323.3,376.4 L 323.4,376.4 L 323.4,376.3 L 323.4,376.3 L 323.5,376.3 L 323.5,376.3 L 323.5,376.3 L 323.6,376.3 L 323.6,376.3 L 323.7,376.3 L 323.7,376.3 L 323.7,376.4 L 323.8,376.4 L 323.8,376.4 L 323.8,376.4 L 323.9,376.5 L 323.9,376.5 L 323.9,376.5 L 323.9,376.5 L 323.9,376.6 L 324.0,376.6 L 324.0,376.6 L 324.0,376.7 L 324.0,376.7 L 324.0,376.8 L 323.5,376.8 Z" style="fill:#000000;fill-rule:evenodd;fill-opacity:1;stroke:#000000;stroke-width:0.0px;stroke-linecap:butt;stroke-linejoin:miter;stroke-opacity:1;"/>
<path class="bond-0 atom-0 atom-1" d="M 647.6,351.7 L 620.5,356.6" style="fill:none;fill-rule:evenodd;stroke:#000000;stroke-width:2.0px;stroke-linecap:butt;stroke-linejoin:miter;stroke-opacity:1"/>
<path class="bond-0 atom-0 atom-1" d="M 646.4,345.2 L 619.4,350.1" style="fill:none;fill-rule:evenodd;stroke:#000000;stroke-width:2.0px;stroke-linecap:butt;stroke-linejoin:miter;stroke-opacity:1"/>
<path class="bond-1 atom-1 atom-2" d="M 619.9,353.3 L 604.3,324.3" style="fill:none;fill-rule:evenodd;stroke:#000000;stroke-width:2.0px;stroke-linecap:butt;stroke-linejoin:miter;stroke-opacity:1"/>
<path class="bond-2 atom-2 atom-3" d="M 604.3,324.3 L 579.2,312.2" style="fill:none;fill-rule:evenodd;stroke:#000000;stroke-width:2.0px;stroke-linecap:butt;stroke-linejoin:miter;stroke-opacity:1"/>
<path class="bond-3 atom-3 atom-4" d="M 570.0,310.8 L 546.8,315.0" style="fill:none;fill-rule:evenodd;stroke:#000000;stroke-width:2.0px;stroke-linecap:butt;stroke-linejoin:miter;stroke-opacity:1"/>
<path class="bond-4 atom-4 atom-5" d="M 537.5,320.7 L 524.0,334.8" style="fill:none;fill-rule:evenodd;stroke:#000000;stroke-width:2.0px;stroke-linecap:butt;stroke-linejoin:miter;stroke-opacity:1"/>
<path class="bond-4 atom-4 atom-5" d="M 540.3,327.3 L 530.8,337.2" style="fill:none;fill-rule:evenodd;stroke:#000000;stroke-width:2.0px;stroke-linecap:butt;stroke-linejoin:miter;stroke-opacity:1"/>
<path class="bond-5 atom-5 atom-6" d="M 518.6,345.4 L 515.7,366.6" style="fill:none;fill-rule:evenodd;stroke:#000000;stroke-width:2.0px;stroke-linecap:butt;stroke-linejoin:miter;stroke-opacity:1"/>
<path class="bond-6 atom-6 atom-7" d="M 519.0,378.1 L 536.1,402.1" style="fill:none;fill-rule:evenodd;stroke:#000000;stroke-width:2.0px;stroke-linecap:butt;stroke-linejoin:miter;stroke-opacity:1"/>
<path class="bond-6 atom-6 atom-7" d="M 526.9,377.9 L 538.9,394.7" style="fill:none;fill-rule:evenodd;stroke:#000000;stroke-width:2.0px;stroke-linecap:butt;stroke-linejoin:miter;stroke-opacity:1"/>
<path class="bond-7 atom-7 atom-8" d="M 536.1,402.1 L 531.6,434.8" style="fill:none;fill-rule:evenodd;stroke:#000000;stroke-width:2.0px;stroke-linecap:butt;stroke-linejoin:miter;stroke-opacity:1"/>
<path class="bond-8 atom-8 atom-9" d="M 531.6,434.8 L 557.7,455.0" style="fill:none;fill-rule:evenodd;stroke:#000000;stroke-width:2.0px;stroke-linecap:butt;stroke-linejoin:miter;stroke-opacity:1"/>
<path class="bond-8 atom-8 atom-9" d="M 539.6,432.6 L 557.9,446.8" style="fill:none;fill-rule:evenodd;stroke:#000000;stroke-width:2.0px;stroke-linecap:butt;stroke-linejoin:miter;stroke-opacity:1"/>
<path class="bond-9 atom-9 atom-10" d="M 557.7,455.0 L 588.3,442.5" style="fill:none;fill-rule:evenodd;stroke:#000000;stroke-width:2.0px;stroke-linecap:butt;stroke-linejoin:miter;stroke-opacity:1"/>
<path class="bond-10 atom-10 atom-11" d="M 588.3,442.5 L 592.7,409.8" style="fill:none;fill-rule:evenodd;stroke:#000000;stroke-width:2.0px;stroke-linecap:butt;stroke-linejoin:miter;stroke-opacity:1"/>
<path class="bond-10 atom-10 atom-11" d="M 582.4,436.7 L 585.5,413.8" style="fill:none;fill-rule:evenodd;stroke:#000000;stroke-width:2.0px;stroke-linecap:butt;stroke-linejoin:miter;stroke-opacity:1"/>
<path class="bond-11 atom-11 atom-12" d="M 592.7,409.8 L 566.6,389.6" style="fill:none;fill-rule:evenodd;stroke:#000000;stroke-width:2.0px;stroke-linecap:butt;stroke-linejoin:miter;stroke-opacity:1"/>
<path class="bond-12 atom-12 atom-13" d="M 563.3,389.2 L 567.0,362.3" style="fill:none;fill-rule:evenodd;stroke:#000000;stroke-width:2.0px;stroke-linecap:butt;stroke-linejoin:miter;stroke-opacity:1"/>
<path class="bond-12 atom-12 atom-13" d="M 569.9,390.1 L 573.5,363.2" style="fill:none;fill-rule:evenodd;stroke:#000000;stroke-width:2.0px;stroke-linecap:butt;stroke-linejoin:miter;stroke-opacity:1"/>
<path class="bond-13 atom-2 atom-14" d="M 604.3,324.3 L 627.1,300.4" style="fill:none;fill-rule:evenodd;stroke:#000000;stroke-width:2.0px;stroke-linecap:butt;stroke-linejoin:miter;stroke-opacity:1"/>
<path class="bond-14 atom-14 atom-15" d="M 627.1,300.4 L 659.2,308.3" style="fill:none;fill-rule:evenodd;stroke:#000000;stroke-width:2.0px;stroke-linecap:butt;stroke-linejoin:miter;stroke-opacity:1"/>
<path class="bond-15 atom-1 atom-16" d="M 619.9,353.3 L 615.5,386.0" style="fill:none;fill-rule:evenodd;stroke:#000000;stroke-width:2.0px;stroke-linecap:butt;stroke-linejoin:miter;stroke-opacity:1"/>
<path class="bond-16 atom-16 atom-17" d="M 615.5,386.0 L 639.8,397.7" style="fill:none;fill-rule:evenodd;stroke:#000000;stroke-width:2.0px;stroke-linecap:butt;stroke-linejoin:miter;stroke-opacity:1"/>
<path class="bond-17 atom-18 atom-17" d="M 667.9,384.0 L 668.7,385.1" style="fill:none;fill-rule:evenodd;stroke:#000000;stroke-width:1.0px;stroke-linecap:butt;stroke-linejoin:miter;stroke-opacity:1"/>
<path class="bond-17 atom-18 atom-17" d="M 663.4,386.3 L 664.9,388.5" style="fill:none;fill-rule:evenodd;stroke:#000000;stroke-width:1.0px;stroke-linecap:butt;stroke-linejoin:miter;stroke-opacity:1"/>
<path class="bond-17 atom-18 atom-17" d="M 658.9,388.6 L 661.1,391.9" style="fill:none;fill-rule:evenodd;stroke:#000000;stroke-width:1.0px;stroke-linecap:butt;stroke-linejoin:miter;stroke-opacity:1"/>
<path class="bond-17 atom-18 atom-17" d="M 654.4,390.9 L 657.3,395.3" style="fill:none;fill-rule:evenodd;stroke:#000000;stroke-width:1.0px;stroke-linecap:butt;stroke-linejoin:miter;stroke-opacity:1"/>
<path class="bond-17 atom-18 atom-17" d="M 649.8,393.2 L 653.5,398.6" style="fill:none;fill-rule:evenodd;stroke:#000000;stroke-width:1.0px;stroke-linecap:butt;stroke-linejoin:miter;stroke-opacity:1"/>
<path class="bond-18 atom-18 atom-19" d="M 672.5,381.7 L 670.0,348.9" style="fill:none;fill-rule:evenodd;stroke:#000000;stroke-width:2.0px;stroke-linecap:butt;stroke-linejoin:miter;stroke-opacity:1"/>
<path class="bond-19 atom-19 atom-20" d="M 670.0,348.9 L 697.3,330.3" style="fill:none;fill-rule:evenodd;stroke:#000000;stroke-width:2.0px;stroke-linecap:butt;stroke-linejoin:miter;stroke-opacity:1"/>
<path class="bond-20 atom-20 atom-21" d="M 697.3,330.3 L 727.0,344.6" style="fill:none;fill-rule:evenodd;stroke:#000000;stroke-width:2.0px;stroke-linecap:butt;stroke-linejoin:miter;stroke-opacity:1"/>
<path class="bond-21 atom-21 atom-22" d="M 727.0,344.6 L 729.4,377.5" style="fill:none;fill-rule:evenodd;stroke:#000000;stroke-width:2.0px;stroke-linecap:butt;stroke-linejoin:miter;stroke-opacity:1"/>
<path class="bond-22 atom-22 atom-23" d="M 729.4,377.5 L 702.2,396.1" style="fill:none;fill-rule:evenodd;stroke:#000000;stroke-width:2.0px;stroke-linecap:butt;stroke-linejoin:miter;stroke-opacity:1"/>
<path class="bond-23 atom-23 atom-24" d="M 702.0,401.6 L 703.1,401.5" style="fill:none;fill-rule:evenodd;stroke:#000000;stroke-width:1.0px;stroke-linecap:butt;stroke-linejoin:miter;stroke-opacity:1"/>
<path class="bond-23 atom-23 atom-24" d="M 701.9,407.1 L 704.1,407.0" style="fill:none;fill-rule:evenodd;stroke:#000000;stroke-width:1.0px;stroke-linecap:butt;stroke-linejoin:miter;stroke-opacity:1"/>
<path class="bond-23 atom-23 atom-24" d="M 701.8,412.6 L 705.1,412.4" style="fill:none;fill-rule:evenodd;stroke:#000000;stroke-width:1.0px;stroke-linecap:butt;stroke-linejoin:miter;stroke-opacity:1"/>
<path class="bond-23 atom-23 atom-24" d="M 701.6,418.2 L 706.0,417.8" style="fill:none;fill-rule:evenodd;stroke:#000000;stroke-width:1.0px;stroke-linecap:butt;stroke-linejoin:miter;stroke-opacity:1"/>
<path class="bond-23 atom-23 atom-24" d="M 701.5,423.7 L 707.0,423.3" style="fill:none;fill-rule:evenodd;stroke:#000000;stroke-width:1.0px;stroke-linecap:butt;stroke-linejoin:miter;stroke-opacity:1"/>
<path class="bond-23 atom-23 atom-24" d="M 701.3,429.2 L 707.9,428.7" style="fill:none;fill-rule:evenodd;stroke:#000000;stroke-width:1.0px;stroke-linecap:butt;stroke-linejoin:miter;stroke-opacity:1"/>
<path class="bond-24 atom-24 atom-25" d="M 706.1,426.0 L 730.4,437.7" style="fill:none;fill-rule:evenodd;stroke:#000000;stroke-width:2.0px;stroke-linecap:butt;stroke-linejoin:miter;stroke-opacity:1"/>
<path class="bond-24 atom-24 atom-25" d="M 703.2,431.9 L 727.5,443.7" style="fill:none;fill-rule:evenodd;stroke:#000000;stroke-width:2.0px;stroke-linecap:butt;stroke-linejoin:miter;stroke-opacity:1"/>
<path class="bond-25 atom-12 atom-7" d="M 566.6,389.6 L 536.1,402.1" style="fill:none;fill-rule:evenodd;stroke:#000000;stroke-width:2.0px;stroke-linecap:butt;stroke-linejoin:miter;stroke-opacity:1"/>
<path class="bond-26 atom-16 atom-11" d="M 615.5,386.0 L 592.7,409.8" style="fill:none;fill-rule:evenodd;stroke:#000000;stroke-width:2.0px;stroke-linecap:butt;stroke-linejoin:miter;stroke-opacity:1"/>
<path class="bond-27 atom-23 atom-18" d="M 702.2,396.1 L 672.5,381.7" style="fill:none;fill-rule:evenodd;stroke:#000000;stroke-width:2.0px;stroke-linecap:butt;stroke-linejoin:miter;stroke-opacity:1"/>
<path class="atom-0" d="M 648.1 347.5 Q 648.1 345.2, 649.2 344.0 Q 650.3 342.7, 652.4 342.7 Q 654.5 342.7, 655.6 344.0 Q 656.7 345.2, 656.7 347.5 Q 656.7 349.7, 655.6 351.0 Q 654.4 352.3, 652.4 352.3 Q 650.3 352.3, 649.2 351.0 Q 648.1 349.7, 648.1 347.5 M 652.4 351.2 Q 653.8 351.2, 654.6 350.3 Q 655.4 349.3, 655.4 347.5 Q 655.4 345.6, 654.6 344.7 Q 653.8 343.8, 652.4 343.8 Q 651.0 343.8, 650.2 344.7 Q 649.4 345.6, 649.4 347.5 Q 649.4 349.3, 650.2 350.3 Q 651.0 351.2, 652.4 351.2 " fill="#000000"/>
<path class="atom-3" d="M 572.5 305.3 L 575.6 310.2 Q 575.9 310.7, 576.4 311.6 Q 576.9 312.5, 576.9 312.5 L 576.9 305.3 L 578.1 305.3 L 578.1 314.6 L 576.9 314.6 L 573.6 309.2 Q 573.2 308.6, 572.8 307.8 Q 572.4 307.1, 572.3 306.9 L 572.3 314.6 L 571.1 314.6 L 571.1 305.3 L 572.5 305.3 " fill="#000000"/>
<path class="atom-3" d="M 571.0 295.0 L 572.2 295.0 L 572.2 299.0 L 577.0 299.0 L 577.0 295.0 L 578.3 295.0 L 578.3 304.3 L 577.0 304.3 L 577.0 300.0 L 572.2 300.0 L 572.2 304.3 L 571.0 304.3 L 571.0 295.0 " fill="#000000"/>
<path class="atom-4" d="M 540.1 311.1 L 543.1 316.1 Q 543.4 316.6, 543.9 317.5 Q 544.4 318.3, 544.5 318.4 L 544.5 311.1 L 545.7 311.1 L 545.7 320.5 L 544.4 320.5 L 541.1 315.1 Q 540.7 314.4, 540.3 313.7 Q 539.9 313.0, 539.8 312.8 L 539.8 320.5 L 538.6 320.5 L 538.6 311.1 L 540.1 311.1 " fill="#000000"/>
<path class="atom-5" d="M 517.3 335.0 L 520.3 339.9 Q 520.6 340.4, 521.1 341.3 Q 521.6 342.2, 521.6 342.2 L 521.6 335.0 L 522.9 335.0 L 522.9 344.3 L 521.6 344.3 L 518.3 338.9 Q 517.9 338.3, 517.5 337.5 Q 517.1 336.8, 517.0 336.6 L 517.0 344.3 L 515.8 344.3 L 515.8 335.0 L 517.3 335.0 " fill="#000000"/>
<path class="atom-6" d="M 512.8 367.7 L 515.9 372.6 Q 516.2 373.1, 516.7 374.0 Q 517.2 374.9, 517.2 374.9 L 517.2 367.7 L 518.4 367.7 L 518.4 377.0 L 517.2 377.0 L 513.9 371.6 Q 513.5 371.0, 513.1 370.2 Q 512.7 369.5, 512.6 369.3 L 512.6 377.0 L 511.4 377.0 L 511.4 367.7 L 512.8 367.7 " fill="#000000"/>
<path class="atom-13" d="M 569.0 352.3 L 572.0 357.2 Q 572.3 357.7, 572.8 358.6 Q 573.3 359.5, 573.4 359.5 L 573.4 352.3 L 574.6 352.3 L 574.6 361.6 L 573.3 361.6 L 570.0 356.2 Q 569.6 355.6, 569.2 354.9 Q 568.8 354.1, 568.7 353.9 L 568.7 361.6 L 567.5 361.6 L 567.5 352.3 L 569.0 352.3 " fill="#000000"/>
<path class="atom-13" d="M 575.7 352.3 L 577.0 352.3 L 577.0 356.3 L 581.7 356.3 L 581.7 352.3 L 583.0 352.3 L 583.0 361.6 L 581.7 361.6 L 581.7 357.3 L 577.0 357.3 L 577.0 361.6 L 575.7 361.6 L 575.7 352.3 " fill="#000000"/>
<path class="atom-17" d="M 640.9 400.3 Q 640.9 398.1, 642.0 396.8 Q 643.1 395.6, 645.2 395.6 Q 647.3 395.6, 648.4 396.8 Q 649.5 398.1, 649.5 400.3 Q 649.5 402.6, 648.4 403.9 Q 647.3 405.2, 645.2 405.2 Q 643.2 405.2, 642.0 403.9 Q 640.9 402.6, 640.9 400.3 M 645.2 404.1 Q 646.6 404.1, 647.4 403.2 Q 648.2 402.2, 648.2 400.3 Q 648.2 398.5, 647.4 397.6 Q 646.6 396.7, 645.2 396.7 Q 643.8 396.7, 643.0 397.6 Q 642.2 398.5, 642.2 400.3 Q 642.2 402.2, 643.0 403.2 Q 643.8 404.1, 645.2 404.1 " fill="#000000"/>
<path class="atom-25" d="M 730.1 443.3 Q 730.1 441.1, 731.2 439.8 Q 732.3 438.6, 734.3 438.6 Q 736.4 438.6, 737.5 439.8 Q 738.6 441.1, 738.6 443.3 Q 738.6 445.6, 737.5 446.9 Q 736.4 448.2, 734.3 448.2 Q 732.3 448.2, 731.2 446.9 Q 730.1 445.6, 730.1 443.3 M 734.3 447.1 Q 735.8 447.1, 736.5 446.2 Q 737.3 445.2, 737.3 443.3 Q 737.3 441.5, 736.5 440.6 Q 735.8 439.6, 734.3 439.6 Q 732.9 439.6, 732.1 440.5 Q 731.4 441.5, 731.4 443.3 Q 731.4 445.2, 732.1 446.2 Q 732.9 447.1, 734.3 447.1 " fill="#000000"/>
<path class="bond-0 atom-0 atom-1" d="M 51.3,625.0 L 230.8,625.0" style="fill:none;fill-rule:evenodd;stroke:#000000;stroke-width:2.0px;stroke-linecap:butt;stroke-linejoin:miter;stroke-opacity:1"/>
<path class="bond-0 atom-0 atom-1" d="M 51.3,586.0 L 230.8,586.0" style="fill:none;fill-rule:evenodd;stroke:#000000;stroke-width:2.0px;stroke-linecap:butt;stroke-linejoin:miter;stroke-opacity:1"/>
<path class="bond-0 atom-0 atom-1" d="M 51.3,664.0 L 230.8,664.0" style="fill:none;fill-rule:evenodd;stroke:#000000;stroke-width:2.0px;stroke-linecap:butt;stroke-linejoin:miter;stroke-opacity:1"/>
<path class="atom-0" d="M 27.8 634.7 Q 28.1 634.8, 29.5 635.4 Q 30.8 636.0, 32.2 636.3 Q 33.7 636.6, 35.1 636.6 Q 37.8 636.6, 39.4 635.4 Q 40.9 634.0, 40.9 631.8 Q 40.9 630.2, 40.1 629.2 Q 39.4 628.3, 38.2 627.8 Q 37.0 627.2, 35.0 626.6 Q 32.5 625.9, 30.9 625.2 Q 29.5 624.4, 28.4 622.9 Q 27.3 621.4, 27.3 618.8 Q 27.3 615.3, 29.7 613.1 Q 32.2 610.9, 37.0 610.9 Q 40.3 610.9, 44.0 612.4 L 43.1 615.5 Q 39.7 614.1, 37.1 614.1 Q 34.3 614.1, 32.8 615.3 Q 31.3 616.4, 31.3 618.4 Q 31.3 619.9, 32.1 620.8 Q 32.9 621.7, 34.0 622.2 Q 35.2 622.8, 37.1 623.4 Q 39.7 624.2, 41.2 625.0 Q 42.7 625.8, 43.8 627.4 Q 44.9 629.0, 44.9 631.8 Q 44.9 635.7, 42.3 637.8 Q 39.7 639.9, 35.3 639.9 Q 32.8 639.9, 30.9 639.3 Q 29.0 638.8, 26.7 637.9 L 27.8 634.7 " fill="#000000"/>
<path class="atom-0" d="M 22.7,625.0 L 22.7,625.2 L 22.7,625.3 L 22.7,625.5 L 22.6,625.7 L 22.6,625.8 L 22.5,626.0 L 22.4,626.1 L 22.3,626.3 L 22.2,626.4 L 22.0,626.5 L 21.9,626.6 L 21.8,626.7 L 21.6,626.8 L 21.5,626.9 L 21.3,626.9 L 21.1,627.0 L 20.9,627.0 L 20.8,627.0 L 20.6,627.0 L 20.4,627.0 L 20.3,626.9 L 20.1,626.9 L 19.9,626.8 L 19.8,626.8 L 19.6,626.7 L 19.5,626.6 L 19.4,626.5 L 19.2,626.3 L 19.1,626.2 L 19.0,626.1 L 19.0,625.9 L 18.9,625.8 L 18.8,625.6 L 18.8,625.4 L 18.8,625.3 L 18.7,625.1 L 18.7,624.9 L 18.8,624.7 L 18.8,624.6 L 18.8,624.4 L 18.9,624.2 L 19.0,624.1 L 19.0,623.9 L 19.1,623.8 L 19.2,623.7 L 19.4,623.5 L 19.5,623.4 L 19.6,623.3 L 19.8,623.2 L 19.9,623.2 L 20.1,623.1 L 20.3,623.1 L 20.4,623.0 L 20.6,623.0 L 20.8,623.0 L 20.9,623.0 L 21.1,623.0 L 21.3,623.1 L 21.5,623.1 L 21.6,623.2 L 21.8,623.3 L 21.9,623.4 L 22.0,623.5 L 22.2,623.6 L 22.3,623.7 L 22.4,623.9 L 22.5,624.0 L 22.6,624.2 L 22.6,624.3 L 22.7,624.5 L 22.7,624.7 L 22.7,624.8 L 22.7,625.0 L 20.7,625.0 Z" style="fill:#000000;fill-rule:evenodd;fill-opacity:1;stroke:#000000;stroke-width:0.0px;stroke-linecap:butt;stroke-linejoin:miter;stroke-opacity:1;"/>
<path class="bond-0 atom-0 atom-1" d="M 268.3,622.5 L 278.3,616.7" style="fill:none;fill-rule:evenodd;stroke:#000000;stroke-width:2.0px;stroke-linecap:butt;stroke-linejoin:miter;stroke-opacity:1"/>
<path class="bond-1 atom-1 atom-2" d="M 283.8,616.6 L 298.4,624.7" style="fill:none;fill-rule:evenodd;stroke:#000000;stroke-width:2.0px;stroke-linecap:butt;stroke-linejoin:miter;stroke-opacity:1"/>
<path class="bond-1 atom-1 atom-2" d="M 284.1,621.3 L 294.2,627.0" style="fill:none;fill-rule:evenodd;stroke:#000000;stroke-width:2.0px;stroke-linecap:butt;stroke-linejoin:miter;stroke-opacity:1"/>
<path class="bond-2 atom-2 atom-3" d="M 298.4,624.7 L 315.5,614.6" style="fill:none;fill-rule:evenodd;stroke:#000000;stroke-width:2.0px;stroke-linecap:butt;stroke-linejoin:miter;stroke-opacity:1"/>
<path class="bond-3 atom-3 atom-4" d="M 315.5,614.6 L 330.0,622.8" style="fill:none;fill-rule:evenodd;stroke:#000000;stroke-width:2.0px;stroke-linecap:butt;stroke-linejoin:miter;stroke-opacity:1"/>
<path class="bond-4 atom-4 atom-5" d="M 335.6,622.7 L 349.9,614.2" style="fill:none;fill-rule:evenodd;stroke:#000000;stroke-width:2.0px;stroke-linecap:butt;stroke-linejoin:miter;stroke-opacity:1"/>
<path class="bond-5 atom-5 atom-6" d="M 349.9,614.2 L 367.2,624.0" style="fill:none;fill-rule:evenodd;stroke:#000000;stroke-width:2.0px;stroke-linecap:butt;stroke-linejoin:miter;stroke-opacity:1"/>
<path class="bond-5 atom-5 atom-6" d="M 350.6,619.1 L 362.7,626.0" style="fill:none;fill-rule:evenodd;stroke:#000000;stroke-width:2.0px;stroke-linecap:butt;stroke-linejoin:miter;stroke-opacity:1"/>
<path class="bond-6 atom-6 atom-7" d="M 367.2,624.0 L 384.3,613.8" style="fill:none;fill-rule:evenodd;stroke:#000000;stroke-width:2.0px;stroke-linecap:butt;stroke-linejoin:miter;stroke-opacity:1"/>
<path class="bond-7 atom-7 atom-8" d="M 384.3,613.8 L 401.7,623.6" style="fill:none;fill-rule:evenodd;stroke:#000000;stroke-width:2.0px;stroke-linecap:butt;stroke-linejoin:miter;stroke-opacity:1"/>
<path class="bond-7 atom-7 atom-8" d="M 385.0,618.7 L 397.1,625.6" style="fill:none;fill-rule:evenodd;stroke:#000000;stroke-width:2.0px;stroke-linecap:butt;stroke-linejoin:miter;stroke-opacity:1"/>
<path class="bond-8 atom-8 atom-9" d="M 401.7,623.6 L 418.8,613.4" style="fill:none;fill-rule:evenodd;stroke:#000000;stroke-width:2.0px;stroke-linecap:butt;stroke-linejoin:miter;stroke-opacity:1"/>
<path class="bond-9 atom-9 atom-10" d="M 418.8,613.4 L 436.1,623.2" style="fill:none;fill-rule:evenodd;stroke:#000000;stroke-width:2.0px;stroke-linecap:butt;stroke-linejoin:miter;stroke-opacity:1"/>
<path class="bond-10 atom-10 atom-11" d="M 438.1,623.1 L 438.3,639.5" style="fill:none;fill-rule:evenodd;stroke:#000000;stroke-width:2.0px;stroke-linecap:butt;stroke-linejoin:miter;stroke-opacity:1"/>
<path class="bond-10 atom-10 atom-11" d="M 434.1,623.2 L 434.3,639.6" style="fill:none;fill-rule:evenodd;stroke:#000000;stroke-width:2.0px;stroke-linecap:butt;stroke-linejoin:miter;stroke-opacity:1"/>
<path class="bond-11 atom-10 atom-12" d="M 436.1,623.2 L 450.4,614.7" style="fill:none;fill-rule:evenodd;stroke:#000000;stroke-width:2.0px;stroke-linecap:butt;stroke-linejoin:miter;stroke-opacity:1"/>
<path class="bond-12 atom-12 atom-13" d="M 456.0,614.6 L 470.5,622.8" style="fill:none;fill-rule:evenodd;stroke:#000000;stroke-width:2.0px;stroke-linecap:butt;stroke-linejoin:miter;stroke-opacity:1"/>
<path class="bond-13 atom-13 atom-14" d="M 469.5,621.1 L 486.6,610.9" style="fill:none;fill-rule:evenodd;stroke:#000000;stroke-width:2.0px;stroke-linecap:butt;stroke-linejoin:miter;stroke-opacity:1"/>
<path class="bond-13 atom-13 atom-14" d="M 471.5,624.5 L 488.6,614.3" style="fill:none;fill-rule:evenodd;stroke:#000000;stroke-width:2.0px;stroke-linecap:butt;stroke-linejoin:miter;stroke-opacity:1"/>
<path class="atom-0" d="M 261.4 625.1 Q 261.4 623.8, 262.0 623.0 Q 262.7 622.3, 263.9 622.3 Q 265.2 622.3, 265.9 623.0 Q 266.5 623.8, 266.5 625.1 Q 266.5 626.5, 265.9 627.3 Q 265.2 628.1, 263.9 628.1 Q 262.7 628.1, 262.0 627.3 Q 261.4 626.5, 261.4 625.1 M 263.9 627.4 Q 264.8 627.4, 265.3 626.9 Q 265.7 626.3, 265.7 625.1 Q 265.7 624.0, 265.3 623.5 Q 264.8 622.9, 263.9 622.9 Q 263.1 622.9, 262.6 623.5 Q 262.2 624.0, 262.2 625.1 Q 262.2 626.3, 262.6 626.9 Q 263.1 627.4, 263.9 627.4 " fill="#000000"/>
<path class="atom-0" d="M 266.9 623.2 L 268.9 623.2 L 268.9 623.6 L 266.9 623.6 L 266.9 623.2 " fill="#000000"/>
<path class="atom-1" d="M 279.8 612.2 L 281.6 615.2 Q 281.8 615.5, 282.1 616.0 Q 282.4 616.5, 282.4 616.6 L 282.4 612.2 L 283.2 612.2 L 283.2 617.8 L 282.4 617.8 L 280.4 614.6 Q 280.2 614.2, 280.0 613.7 Q 279.7 613.3, 279.6 613.2 L 279.6 617.8 L 278.9 617.8 L 278.9 612.2 L 279.8 612.2 " fill="#000000"/>
<path class="atom-1" d="M 278.8 606.0 L 279.6 606.0 L 279.6 608.4 L 282.5 608.4 L 282.5 606.0 L 283.3 606.0 L 283.3 611.6 L 282.5 611.6 L 282.5 609.0 L 279.6 609.0 L 279.6 611.6 L 278.8 611.6 L 278.8 606.0 " fill="#000000"/>
<path class="atom-1" d="M 283.9 607.0 L 284.9 607.0 L 284.9 606.0 L 285.4 606.0 L 285.4 607.0 L 286.4 607.0 L 286.4 607.4 L 285.4 607.4 L 285.4 608.4 L 284.9 608.4 L 284.9 607.4 L 283.9 607.4 L 283.9 607.0 " fill="#000000"/>
<path class="atom-4" d="M 331.6 621.5 L 333.4 624.5 Q 333.6 624.8, 333.9 625.3 Q 334.2 625.9, 334.2 625.9 L 334.2 621.5 L 334.9 621.5 L 334.9 627.2 L 334.2 627.2 L 332.2 623.9 Q 332.0 623.5, 331.7 623.1 Q 331.5 622.6, 331.4 622.5 L 331.4 627.2 L 330.7 627.2 L 330.7 621.5 L 331.6 621.5 " fill="#000000"/>
<path class="atom-4" d="M 330.6 627.7 L 331.4 627.7 L 331.4 630.1 L 334.2 630.1 L 334.2 627.7 L 335.0 627.7 L 335.0 633.4 L 334.2 633.4 L 334.2 630.8 L 331.4 630.8 L 331.4 633.4 L 330.6 633.4 L 330.6 627.7 " fill="#000000"/>
<path class="atom-11" d="M 433.7 643.1 Q 433.7 641.7, 434.4 641.0 Q 435.1 640.2, 436.3 640.2 Q 437.6 640.2, 438.2 641.0 Q 438.9 641.7, 438.9 643.1 Q 438.9 644.4, 438.2 645.2 Q 437.6 646.0, 436.3 646.0 Q 435.1 646.0, 434.4 645.2 Q 433.7 644.4, 433.7 643.1 M 436.3 645.3 Q 437.2 645.3, 437.6 644.8 Q 438.1 644.2, 438.1 643.1 Q 438.1 642.0, 437.6 641.4 Q 437.2 640.8, 436.3 640.8 Q 435.5 640.8, 435.0 641.4 Q 434.5 641.9, 434.5 643.1 Q 434.5 644.2, 435.0 644.8 Q 435.5 645.3, 436.3 645.3 " fill="#000000"/>
<path class="atom-12" d="M 451.9 610.2 L 453.8 613.2 Q 454.0 613.5, 454.3 614.0 Q 454.6 614.6, 454.6 614.6 L 454.6 610.2 L 455.3 610.2 L 455.3 615.8 L 454.6 615.8 L 452.6 612.6 Q 452.3 612.2, 452.1 611.8 Q 451.9 611.3, 451.8 611.2 L 451.8 615.8 L 451.1 615.8 L 451.1 610.2 L 451.9 610.2 " fill="#000000"/>
<path class="atom-12" d="M 451.0 604.0 L 451.8 604.0 L 451.8 606.4 L 454.6 606.4 L 454.6 604.0 L 455.4 604.0 L 455.4 609.7 L 454.6 609.7 L 454.6 607.1 L 451.8 607.1 L 451.8 609.7 L 451.0 609.7 L 451.0 604.0 " fill="#000000"/>
<path class="atom-0" d="M 595.7 610.8 L 605.0 625.8 Q 605.9 627.3, 607.4 630.0 Q 608.9 632.7, 608.9 632.8 L 608.9 610.8 L 612.7 610.8 L 612.7 639.2 L 608.8 639.2 L 598.9 622.8 Q 597.7 620.8, 596.5 618.6 Q 595.3 616.4, 594.9 615.8 L 594.9 639.2 L 591.2 639.2 L 591.2 610.8 L 595.7 610.8 " fill="#000000"/>
<path class="atom-0" d="M 616.0 610.8 L 619.9 610.8 L 619.9 622.9 L 634.3 622.9 L 634.3 610.8 L 638.2 610.8 L 638.2 639.2 L 634.3 639.2 L 634.3 626.1 L 619.9 626.1 L 619.9 639.2 L 616.0 639.2 L 616.0 610.8 " fill="#000000"/>
<path class="atom-0" d="M 641.6 615.5 L 651.3 615.5 L 651.3 617.6 L 641.6 617.6 L 641.6 615.5 " fill="#000000"/>
<path class="atom-0" d="M 659.3,625.0 L 659.3,625.2 L 659.2,625.3 L 659.2,625.5 L 659.2,625.7 L 659.1,625.8 L 659.0,626.0 L 658.9,626.1 L 658.8,626.3 L 658.7,626.4 L 658.6,626.5 L 658.4,626.6 L 658.3,626.7 L 658.1,626.8 L 658.0,626.9 L 657.8,626.9 L 657.7,627.0 L 657.5,627.0 L 657.3,627.0 L 657.1,627.0 L 657.0,627.0 L 656.8,626.9 L 656.6,626.9 L 656.5,626.8 L 656.3,626.8 L 656.2,626.7 L 656.0,626.6 L 655.9,626.5 L 655.8,626.3 L 655.7,626.2 L 655.6,626.1 L 655.5,625.9 L 655.4,625.8 L 655.4,625.6 L 655.3,625.4 L 655.3,625.3 L 655.3,625.1 L 655.3,624.9 L 655.3,624.7 L 655.3,624.6 L 655.4,624.4 L 655.4,624.2 L 655.5,624.1 L 655.6,623.9 L 655.7,623.8 L 655.8,623.7 L 655.9,623.5 L 656.0,623.4 L 656.2,623.3 L 656.3,623.2 L 656.5,623.2 L 656.6,623.1 L 656.8,623.1 L 657.0,623.0 L 657.1,623.0 L 657.3,623.0 L 657.5,623.0 L 657.7,623.0 L 657.8,623.1 L 658.0,623.1 L 658.1,623.2 L 658.3,623.3 L 658.4,623.4 L 658.6,623.5 L 658.7,623.6 L 658.8,623.7 L 658.9,623.9 L 659.0,624.0 L 659.1,624.2 L 659.2,624.3 L 659.2,624.5 L 659.2,624.7 L 659.3,624.8 L 659.3,625.0 L 657.3,625.0 Z" style="fill:#000000;fill-rule:evenodd;fill-opacity:1;stroke:#000000;stroke-width:0.0px;stroke-linecap:butt;stroke-linejoin:miter;stroke-opacity:1;"/>
</svg>